<svg width="21" height="24" viewBox="0 0 21 24" fill="none" xmlns="http://www.w3.org/2000/svg">
<path d="M8.01143 21.7257C8.01143 22.9829 9.02857 24 10.2857 24C11.5429 24 12.56 22.9829 12.56 21.7257H8.01143ZM18.1486 16.9371V10.2857C18.1486 6.57143 15.5771 3.46286 12.1029 2.64V1.81714C12.1029 0.811428 11.2914 0 10.2857 0C9.28 0 8.46857 0.811428 8.46857 1.81714V2.64C4.99429 3.46286 2.42286 6.57143 2.42286 10.2857V16.9371L0 19.36V20.5714H20.5714V19.36L18.1486 16.9371ZM14.8571 12.5829H11.4286V16.0114H9.14286V12.5829H5.71429V10.2857H9.14286V6.85714H11.4286V10.2857H14.8571V12.5829Z" fill="#3A86FF"/>
</svg>
