<svg width="259" height="274" viewBox="0 0 259 274" fill="none" xmlns="http://www.w3.org/2000/svg">
<g clip-path="url(#clip0_10_358)">
<path d="M104.937 63.8846C100.049 74.2551 105.585 91.8174 117.47 101.541C133.559 114.715 158.111 103.807 162.108 84.2971C163.337 78.5173 162.958 72.5096 161.013 66.9271C159.068 61.3446 155.632 56.4008 151.077 52.633C130.998 37.6968 112.222 48.2473 104.937 63.8846Z" stroke="black" stroke-linejoin="round"/>
<path d="M138.165 107.121C141.19 111.544 144.276 115.823 147.557 120.061C148.573 121.803 149.85 123.379 151.343 124.735C152.101 125.168 154.981 123.941 155.766 123.669C159.482 122.464 162.698 120.072 164.921 116.859C165.634 115.982 166.13 114.949 166.371 113.845C166.261 113.654 165.852 112.946 165.727 112.729C165.082 111.613 164.438 110.497 163.778 109.354C161.342 105.135 158.907 100.916 156.199 96.8541" stroke="black" stroke-linejoin="round"/>
<path d="M154.197 123.776C155.385 125.268 156.475 126.78 157.663 128.272C157.883 128.653 158.433 129.605 158.905 129.732C159.376 129.859 161.069 128.772 161.493 128.564C163.878 127.485 166.011 125.919 167.757 123.968C168.192 123.717 169.148 122.548 169.157 121.998C169.166 121.449 168.45 120.773 168.246 120.419C167.429 119.004 166.596 117.562 165.779 116.146" stroke="black" stroke-linejoin="round"/>
<path d="M145.294 104.965C143.392 101.671 141.491 98.3779 139.454 95.1629C138.259 92.9432 136.607 91.0023 134.607 89.4689C131.513 87.6261 128.611 92.2052 131.006 94.5964C131.739 95.1782 132.582 95.6051 133.485 95.8514C134.387 96.0977 135.33 96.1582 136.256 96.0291C137.353 95.9529 138.431 95.6985 139.446 95.276C143.307 93.7368 149.629 89.1792 147.213 84.1146C145.563 80.5669 139.632 81.596 140.316 85.9192C140.978 88.3441 142.156 90.598 143.768 92.5269C145.867 95.5973 147.737 98.8363 149.956 101.801" stroke="black" stroke-linejoin="round"/>
<path d="M142.383 112.669C147.48 111.782 152.168 109.317 155.787 105.621" stroke="black" stroke-linejoin="round"/>
<path d="M146.524 118.335C151.236 117.774 155.629 115.671 159.021 112.354" stroke="black" stroke-linejoin="round"/>
<path fill-rule="evenodd" clip-rule="evenodd" d="M95.7732 123.358C96.7161 121.608 97.3348 119.702 97.5995 117.731C96.508 115.403 95.2199 113.172 93.7494 111.062C96.3443 112.794 97.912 114.756 99.6111 114.936C101.31 115.116 103.94 112.764 103.878 112.908C102.259 116.383 102.268 117.467 103.32 119.037C104.372 120.607 106.898 124.229 106.898 124.229C105.227 122.726 103.308 121.525 101.225 120.682C100.167 120.653 99.1182 120.881 98.1685 121.347C97.2189 121.813 96.3969 122.503 95.7732 123.358V123.358Z" fill="black"/>
<path fill-rule="evenodd" clip-rule="evenodd" d="M78.2206 68.5311C79.9232 66.4742 81.2308 64.1198 82.0775 61.5865C82.3606 59.7537 78.1152 51.8981 78.6041 52.3054C81.6631 54.9667 83.2817 57.7702 85.5054 58.4824C87.7291 59.1945 91.9063 56.3836 91.6816 56.6222C88.7421 60.8234 88.3592 62.1695 89.426 64.4568C90.4929 66.7441 93.0139 71.6758 93.0139 71.6758C91.0959 69.4448 88.7906 67.5791 86.2094 66.1688C84.7855 65.9485 83.3308 66.046 81.9497 66.4544C80.5685 66.8629 79.295 67.572 78.2206 68.5311Z" fill="black"/>
<path fill-rule="evenodd" clip-rule="evenodd" d="M131.473 18.5518C134.043 17.8115 136.461 16.6238 138.618 15.0431C139.885 13.6585 140.87 4.81562 141.033 5.41125C142.045 9.36292 141.777 12.6026 143.196 14.4325C144.615 16.2625 149.644 16.3711 149.438 16.4538C144.621 18.2189 143.512 19.1859 143.122 21.5881C142.733 23.9904 141.915 29.5433 141.915 29.5433C141.588 26.5996 140.724 23.7405 139.365 21.1081C138.317 20.1289 137.067 19.3922 135.703 18.9504C134.339 18.5086 132.895 18.3725 131.473 18.5518Z" fill="black"/>
<path fill-rule="evenodd" clip-rule="evenodd" d="M177.274 82.4362C179.522 80.983 181.489 79.1346 183.078 76.9804C183.865 75.3288 182.225 66.586 182.507 67.0759C184.55 70.6143 185.356 73.7055 187.143 75.1053C188.93 76.5051 193.893 75.0551 193.719 75.1921C189.644 78.3066 188.957 79.5019 189.191 81.9796C189.425 84.4573 190.418 89.9446 190.418 89.9446C189.245 87.2314 187.573 84.762 185.49 82.6647C184.216 82.0416 182.823 81.6988 181.406 81.6594C179.989 81.62 178.58 81.8849 177.274 82.4362Z" fill="black"/>
</g>
<g clip-path="url(#clip1_10_358)">
<path d="M134.374 193.552C139.036 197.708 143.906 201.623 148.965 205.283" stroke="black" stroke-linejoin="round"/>
<path d="M199.501 214.742L198.7 258.102L257.843 256.855V214.431L199.501 214.742Z" stroke="black" stroke-linejoin="round"/>
<path d="M187.89 140.489C183.597 146.387 178.348 150.839 173.432 156.203C163.179 167.332 153.08 178.751 142.582 189.724C138.133 194.309 132.484 199.028 129.103 204.437C129.103 204.437 130.126 205.416 130.237 205.527C132.96 207.679 135.837 209.628 138.845 211.359C141.336 210.825 149.054 199.673 150.99 197.025C160.562 184.148 170.964 171.909 182.129 160.387C185.777 156.537 189.291 152.53 192.806 148.524C193.362 147.901 194.719 146.543 194.674 145.786C194.63 145.029 188.58 141 187.89 140.489Z" stroke="black" stroke-linejoin="round"/>
<path d="M186.222 138.997C188.78 141.067 191.493 142.937 193.985 145.096C194.563 145.608 195.164 146.098 195.764 146.565C195.922 146.742 196.101 146.899 196.298 147.032C197.237 146.061 198.072 144.994 198.789 143.85C200.368 141.935 202.125 140.199 203.794 138.352L205.618 136.326C205.618 136.193 206.24 135.814 206.263 135.614C205.842 135.285 205.387 135.001 204.906 134.768C203.505 133.856 202.237 132.787 200.902 131.786C199.568 130.784 198.389 129.738 197.01 128.87C196.644 128.589 196.257 128.336 195.853 128.113C194.792 129.056 193.817 130.091 192.939 131.207C190.804 133.677 188.291 136.549 186.222 138.997Z" stroke="black" stroke-linejoin="round"/>
<path d="M131.572 206.663C136.02 202.434 139.913 197.759 144.117 193.152C153.169 183.403 184.153 149.058 191.293 142.158" stroke="black" stroke-linejoin="round"/>
<path d="M135.709 209.356C141.158 202.678 178.393 158.718 192.984 143.983" stroke="black" stroke-linejoin="round"/>
<path d="M151.946 179.463C151.434 179.708 150.945 179.953 150.434 180.153C148.943 180.687 147.675 180.153 147.898 178.35C148.143 176.124 149.744 174.21 149.766 171.895C149.708 171.302 149.515 170.73 149.201 170.223C148.887 169.717 148.462 169.289 147.957 168.973C147.452 168.657 146.881 168.461 146.289 168.4C145.696 168.34 145.098 168.416 144.539 168.623C141.025 170.048 140.335 174.01 139.379 177.215C138.585 180.389 136.684 183.176 134.018 185.072C126.701 190.036 117.381 193.508 115.513 203.346C114.427 208.867 115.409 214.595 118.271 219.439C125.522 230.568 143.627 231.169 153.169 222.844C159.331 217.458 157.484 208.977 160.154 202.011C161.911 197.381 166.159 196.134 169.673 193.241C171.275 191.905 172.721 190.125 170.83 188.344C168.183 185.851 165.292 187.075 162.689 188.745C161.399 189.546 159.108 190.837 157.551 189.924" stroke="black" stroke-linejoin="round"/>
<path fill-rule="evenodd" clip-rule="evenodd" d="M149.811 208.132C149.179 208.034 148.535 208.192 148.02 208.569C147.505 208.947 147.161 209.514 147.064 210.146C146.966 210.778 147.124 211.422 147.501 211.938C147.879 212.453 148.445 212.797 149.077 212.895C151.813 213.362 153.08 208.621 149.811 208.132Z" fill="black"/>
<path fill-rule="evenodd" clip-rule="evenodd" d="M146.83 215.544C146.199 215.446 145.555 215.604 145.04 215.982C144.525 216.359 144.181 216.926 144.083 217.558C143.986 218.19 144.143 218.834 144.521 219.35C144.898 219.865 145.465 220.21 146.096 220.307C148.81 220.774 150.1 216.033 146.83 215.544Z" fill="black"/>
<path d="M199.278 231.147L257.866 230.724" stroke="black" stroke-linejoin="round"/>
<path d="M209.643 231.102C205.943 235.375 202.461 239.832 199.212 244.457" stroke="black" stroke-linejoin="round"/>
<path d="M217.584 231.302C211.556 239.071 204.75 246.216 198.945 254.162" stroke="black" stroke-linejoin="round"/>
<path d="M226.837 231.169C219.497 240.072 212.261 248.976 205.128 257.879" stroke="black" stroke-linejoin="round"/>
<path d="M235.401 231.347C227.549 239.56 221.388 249.154 213.959 257.679" stroke="black" stroke-linejoin="round"/>
<path d="M244.298 230.791C236.357 239.204 229.84 248.597 222.478 257.501" stroke="black" stroke-linejoin="round"/>
<path d="M251.905 230.768C244.275 239.36 237.514 248.575 229.973 257.278" stroke="black" stroke-linejoin="round"/>
<path d="M257.821 232.66C251.148 240.896 244.031 248.82 237.447 257.144" stroke="black" stroke-linejoin="round"/>
<path d="M258.044 241.875C253.728 247.195 248.969 252.27 244.409 257.456" stroke="black" stroke-linejoin="round"/>
<path d="M258.221 250.178C255.864 252.403 253.551 254.785 251.304 257.189" stroke="black" stroke-linejoin="round"/>
<path d="M198.522 245.726C203.393 250.066 208.465 254.051 213.603 258.035" stroke="black" stroke-linejoin="round"/>
<path d="M198.522 236.066C206.73 243.522 215.137 250.445 223.923 257.189" stroke="black" stroke-linejoin="round"/>
<path d="M202.815 230.902C213.336 240.139 224.19 248.709 234.978 257.612" stroke="black" stroke-linejoin="round"/>
<path d="M215.649 230.412C221.588 236.466 228.238 241.764 234.644 247.284C238.448 250.556 242.051 254.14 245.899 257.345" stroke="black" stroke-linejoin="round"/>
<path d="M227.015 231.125C236.068 239.805 245.121 248.553 254.774 256.588" stroke="black" stroke-linejoin="round"/>
<path d="M237.669 230.434C244.031 237.112 251.438 242.365 257.932 248.753" stroke="black" stroke-linejoin="round"/>
<path d="M246.055 230.368C250.103 233.951 254.04 237.646 258.11 241.207" stroke="black" stroke-linejoin="round"/>
<path d="M207.419 220.04C206.595 220.016 205.794 220.317 205.19 220.88C204.587 221.442 204.229 222.22 204.194 223.045C204.203 223.446 204.297 223.841 204.468 224.204C204.64 224.567 204.885 224.89 205.189 225.153C205.493 225.415 205.849 225.61 206.233 225.727C206.617 225.843 207.021 225.877 207.419 225.827C210.311 225.693 211.312 220.062 207.419 220.04Z" stroke="black" stroke-linejoin="round"/>
<path d="M216.094 220.04C215.677 220.067 215.271 220.183 214.902 220.379C214.533 220.575 214.209 220.847 213.953 221.177C213.697 221.507 213.513 221.888 213.414 222.294C213.316 222.701 213.304 223.123 213.38 223.534C213.454 223.953 213.636 224.345 213.908 224.671C214.181 224.997 214.534 225.246 214.932 225.392C215.331 225.539 215.761 225.578 216.18 225.506C216.598 225.434 216.991 225.253 217.317 224.981C217.787 224.676 218.15 224.232 218.355 223.711C218.561 223.19 218.599 222.618 218.464 222.074C218.33 221.531 218.029 221.043 217.604 220.678C217.179 220.313 216.651 220.09 216.094 220.04V220.04Z" stroke="black" stroke-linejoin="round"/>
<path d="M223.523 220.04C222.815 220.279 222.227 220.784 221.883 221.448C221.539 222.112 221.465 222.884 221.677 223.601C221.849 223.952 222.1 224.258 222.41 224.496C222.72 224.734 223.08 224.897 223.463 224.972C223.847 225.048 224.242 225.033 224.619 224.931C224.996 224.828 225.344 224.64 225.636 224.38C226.147 224.064 226.523 223.569 226.69 222.991C226.858 222.414 226.805 221.794 226.541 221.253C226.278 220.713 225.823 220.289 225.266 220.065C224.708 219.841 224.087 219.832 223.523 220.04Z" stroke="black" stroke-linejoin="round"/>
<path d="M237.647 220.04C236.939 220.279 236.351 220.784 236.007 221.448C235.663 222.112 235.589 222.884 235.801 223.601C235.973 223.952 236.224 224.258 236.534 224.496C236.844 224.734 237.204 224.897 237.588 224.972C237.971 225.048 238.366 225.033 238.743 224.931C239.12 224.828 239.468 224.64 239.76 224.38C240.271 224.064 240.647 223.569 240.815 222.991C240.982 222.414 240.929 221.794 240.665 221.253C240.402 220.713 239.948 220.289 239.39 220.065C238.832 219.841 238.211 219.832 237.647 220.04V220.04Z" stroke="black" stroke-linejoin="round"/>
<path d="M247.167 220.04C246.442 220.261 245.834 220.759 245.472 221.425C245.11 222.091 245.024 222.872 245.232 223.601C245.407 223.952 245.66 224.259 245.972 224.497C246.284 224.734 246.646 224.897 247.031 224.972C247.415 225.048 247.812 225.033 248.191 224.931C248.569 224.828 248.919 224.64 249.213 224.38C249.696 224.057 250.047 223.571 250.203 223.011C250.358 222.451 250.307 221.853 250.059 221.328C249.811 220.802 249.383 220.382 248.852 220.146C248.321 219.91 247.723 219.872 247.167 220.04V220.04Z" stroke="black" stroke-linejoin="round"/>
<path d="M140.513 228.787C140.437 230.37 140.61 231.955 141.025 233.484C144.005 243.055 157.017 239.605 162.578 246.549C166.315 251.224 166.893 260.483 159.842 262.531C151.813 265.002 143.16 254.941 146.652 247.195C149.588 240.807 159.153 238.158 165.269 236.066C174.011 232.994 182.063 228.298 186 219.372C186.89 217.437 187.367 215.337 187.401 213.206C187.414 211.66 187.056 210.133 186.355 208.755C185.908 207.581 185.192 206.529 184.265 205.683C183.338 204.836 182.226 204.219 181.017 203.88C174.344 202.767 173.343 211.915 178.148 215.009C187.445 220.886 195.497 207.553 201.08 202.344C205.796 197.893 209.065 201.076 208.932 206.596C208.691 209.222 208.595 211.86 208.643 214.497" stroke="black" stroke-linejoin="round"/>
</g>
<g clip-path="url(#clip2_10_358)">
<path d="M49.739 180.57C56.7904 169.409 63.8293 158.218 71.6177 147.437C73.3232 145.055 77.0819 137.891 80.7745 139.469C96.6848 146.324 84.4903 154.492 77.7429 163.778C75.8516 166.428 73.8506 168.984 71.993 171.673L70.2625 174.415C70.0531 174.921 68.7913 175.931 69.3163 175.802C71.5483 175.268 77.1078 168.973 78.65 167.166C83.0126 162.624 87.5598 158.355 91.981 153.911C94.4536 150.951 97.2697 148.295 100.371 145.996C101.446 145.379 111.358 151.728 107.454 158.041C104.806 162.281 100.252 165.188 96.5784 168.484C90.2545 174.166 84.0615 179.952 78.1715 186.085" stroke="black" stroke-linejoin="round"/>
<path d="M88.5688 176.68C94.3222 182.518 84.6617 191.463 80.8241 195.877" stroke="black" stroke-linejoin="round"/>
<path d="M89.9802 182.87C91.0075 184.241 91.8007 185.771 92.3277 187.398C93.1089 191.031 90.9248 195.29 89.3852 198.53C88.4138 201.07 87.1116 203.471 85.5118 205.671C83.2549 207.789 80.7689 209.652 78.0992 211.224C73.0432 214.862 67.9622 218.441 62.8962 222.223" stroke="black" stroke-linejoin="round"/>
<path d="M57.218 168.796C54.3227 170.932 51.4275 173.068 48.5335 175.082C46.7901 175.971 45.3142 177.302 44.2544 178.943C43.7562 180.502 43.4471 182.115 43.3336 183.748C42.6683 188.117 42.5567 192.467 42.2955 196.879C42.1824 198.832 42.7054 202.309 41.5434 203.977C40.2978 205.435 38.8059 206.665 37.1346 207.611C34.7418 209.314 32.4713 211.14 30.1372 212.941C22.302 218.87 14.8689 225.307 7.88603 232.212" stroke="black" stroke-linejoin="round"/>
<path d="M66.7888 219.116C65.3626 221.243 63.763 223.248 62.328 225.396C60.4654 228.157 58.8821 231.084 57.0744 233.892C50.6177 243.916 43.8642 253.817 37.0058 263.551" stroke="black" stroke-linejoin="round"/>
</g>
<defs>
<clipPath id="clip0_10_358">
<rect width="108.937" height="118.549" fill="white" transform="translate(56 54.4686) rotate(-30)"/>
</clipPath>
<clipPath id="clip1_10_358">
<rect width="145" height="137" fill="white" transform="translate(114 127)"/>
</clipPath>
<clipPath id="clip2_10_358">
<rect width="134.47" height="65.9169" fill="white" transform="matrix(-0.382335 0.924024 0.924024 0.382335 51.4127 124.257)"/>
</clipPath>
</defs>
</svg>
