<svg width="200" height="224" viewBox="0 0 200 224" fill="none" xmlns="http://www.w3.org/2000/svg">
<path d="M127.276 33.2473L14.0303 83.4919C10.8383 84.9081 9.39272 88.6574 10.8018 91.866L47.9149 176.377C48.5857 177.915 49.8421 179.123 51.4058 179.732C52.9695 180.341 54.7114 180.302 56.2461 179.622L130.276 146.777C134.922 149.24 140.22 152.043 144.07 154.078C145.849 155.019 147.789 153.165 146.977 151.317L142.585 141.316L169.492 129.378C172.684 127.962 174.13 124.212 172.72 121.004L135.607 36.4927C134.937 34.9545 133.68 33.7472 132.116 33.1381C130.553 32.5289 128.811 32.5682 127.276 33.2473Z" fill="white" stroke="#1B1B1B" stroke-width="0.5" stroke-linecap="round" stroke-linejoin="round"/>
<path d="M56.6246 112.853L52.5125 119.645" stroke="#1B1B1B" stroke-width="0.5" stroke-linecap="round" stroke-linejoin="round"/>
<path d="M147.281 119.066C146.111 121.833 144.53 124.408 142.593 126.703" stroke="#1B1B1B" stroke-width="0.5" stroke-linecap="round" stroke-linejoin="round"/>
<path d="M167.448 49.7593L166.628 50.4213L166.194 50.6164L169.203 54.8033L170.45 53.2374" fill="#1B1B1B"/>
<path d="M167.448 49.7593L166.628 50.4213L166.194 50.6164L169.203 54.8033L170.45 53.2374" stroke="#1B1B1B" stroke-width="0.5" stroke-linecap="round" stroke-linejoin="round"/>
<path d="M166.932 50.3198L166.628 50.4215L166.194 50.6166L174.041 32.1875H174.507L175.665 36.1766" fill="#1B1B1B"/>
<path d="M166.932 50.3198L166.628 50.4215L166.194 50.6166L174.041 32.1875H174.507L175.665 36.1766" stroke="#1B1B1B" stroke-width="0.5" stroke-linecap="round" stroke-linejoin="round"/>
<path d="M166.628 50.4215L171.409 57.2169L179.288 38.9828L174.507 32.1875L166.628 50.4215Z" fill="#1B1B1B"/>
<mask id="mask0_365_7122" style="mask-type:luminance" maskUnits="userSpaceOnUse" x="166" y="32" width="14" height="26">
<path fill-rule="evenodd" clip-rule="evenodd" d="M166.628 50.4215L171.409 57.2169L179.288 38.9828L174.507 32.1875L166.628 50.4215Z" fill="white"/>
</mask>
<g mask="url(#mask0_365_7122)">
<path d="M170.45 40.0906C173.861 39.2924 176.294 39.5947 176.294 39.5947L175.337 44.0069C175.337 44.0069 172.974 46.6113 172.958 46.7762C172.942 46.941 169.892 49.9741 169.892 49.9741C169.892 49.9741 168.337 50.6169 167.265 50.6169C166.194 50.6169 165.825 49.2488 165.825 49.2488L168.322 43.7431" fill="#1B1B1B"/>
<path d="M170.45 40.0906C173.861 39.2924 176.294 39.5947 176.294 39.5947L175.337 44.0069C175.337 44.0069 172.974 46.6113 172.958 46.7762C172.942 46.941 169.892 49.9741 169.892 49.9741C169.892 49.9741 168.337 50.6169 167.265 50.6169C166.194 50.6169 165.825 49.2488 165.825 49.2488L168.322 43.7431" stroke="#1B1B1B" stroke-width="0.5" stroke-linecap="round" stroke-linejoin="round"/>
</g>
<path fill-rule="evenodd" clip-rule="evenodd" d="M166.628 50.4215L171.409 57.2168L179.288 38.9828L174.507 32.1875L166.628 50.4215V50.4215Z" stroke="#1B1B1B" stroke-width="0.5" stroke-linecap="round" stroke-linejoin="round"/>
<path d="M168.613 71.6982C168.613 71.6982 174.271 58.7538 174.812 57.2164C175.352 55.6791 177.534 46.0501 177.534 46.0501C177.534 46.0501 177.195 39.6728 176.294 39.5939C175.393 39.5151 169.899 40.3035 169.448 40.067C168.998 39.8305 168.197 41.846 169.728 42.5555C171.259 43.265 172.456 42.9839 172.456 42.9839C172.456 42.9839 168.321 44.8875 167.891 45.16C166.825 45.8358 166.383 48.7865 167.432 48.2919C168.1 47.9773 169.538 47.5565 169.538 47.5565C169.538 47.5565 166.794 49.8821 167.334 50.8964C168.088 52.314 169.925 51.7865 169.925 51.7865C169.835 52.7353 164.546 60.8527 164.546 60.8527L168.613 71.6982Z" fill="white"/>
<mask id="mask1_365_7122" style="mask-type:luminance" maskUnits="userSpaceOnUse" x="164" y="39" width="14" height="33">
<path fill-rule="evenodd" clip-rule="evenodd" d="M168.613 71.6982C168.613 71.6982 174.271 58.7538 174.812 57.2164C175.352 55.6791 177.534 46.0501 177.534 46.0501C177.534 46.0501 177.195 39.6728 176.294 39.5939C175.393 39.5151 169.899 40.3035 169.448 40.067C168.998 39.8305 168.197 41.846 169.728 42.5555C171.259 43.265 172.456 42.9839 172.456 42.9839C172.456 42.9839 168.321 44.8875 167.891 45.16C166.825 45.8358 166.383 48.7865 167.432 48.2919C168.1 47.9773 169.538 47.5565 169.538 47.5565C169.538 47.5565 166.794 49.8821 167.334 50.8964C168.088 52.314 169.925 51.7865 169.925 51.7865C169.835 52.7353 164.546 60.8527 164.546 60.8527L168.613 71.6982Z" fill="white"/>
</mask>
<g mask="url(#mask1_365_7122)">
<path d="M168.416 54.6878C169.203 52.9405 174.09 56.468 176.944 58.6769C179.797 60.8857 172.746 61.5451 172.746 61.5451L170.286 60.589" fill="white"/>
</g>
<path fill-rule="evenodd" clip-rule="evenodd" d="M168.613 71.6982C168.613 71.6982 174.271 58.7538 174.812 57.2164C175.352 55.6791 177.534 46.0501 177.534 46.0501C177.534 46.0501 177.195 39.6728 176.294 39.5939C175.393 39.5151 169.899 40.3035 169.448 40.067C168.998 39.8305 168.197 41.846 169.728 42.5555C171.259 43.265 172.456 42.9839 172.456 42.9839C172.456 42.9839 168.321 44.8875 167.891 45.16C166.825 45.8358 166.383 48.7865 167.432 48.2919C168.1 47.9773 169.538 47.5565 169.538 47.5565C169.538 47.5565 166.794 49.8821 167.334 50.8964C168.088 52.314 169.925 51.7865 169.925 51.7865C169.835 52.7353 164.546 60.8527 164.546 60.8527L168.613 71.6982Z" stroke="#1B1B1B" stroke-width="0.5" stroke-linecap="round" stroke-linejoin="round"/>
<path d="M99.1401 158.584L107.023 205.632L97.3317 209.238L83.1815 156.911L99.1401 158.584Z" fill="white"/>
<mask id="mask2_365_7122" style="mask-type:luminance" maskUnits="userSpaceOnUse" x="83" y="156" width="25" height="54">
<path fill-rule="evenodd" clip-rule="evenodd" d="M99.1401 158.584L107.023 205.632L97.3317 209.238L83.1815 156.911L99.1401 158.584Z" fill="white"/>
</mask>
<g mask="url(#mask2_365_7122)">
<path d="M88.4071 176.112C85.2023 178.185 105.845 184.581 105.845 184.581L102.756 175.281" fill="white"/>
</g>
<path fill-rule="evenodd" clip-rule="evenodd" d="M99.1401 158.584L107.023 205.632L97.3317 209.238L83.1815 156.911L99.1401 158.584V158.584Z" stroke="#1B1B1B" stroke-width="0.5" stroke-linecap="round" stroke-linejoin="round"/>
<path d="M106.053 199.124C106.053 199.124 102.039 204.646 95.47 201.945C95.47 201.945 97.1209 209.947 90.512 213.191C78.9556 218.865 84.5212 223 84.5212 223L110 210.706C112.026 209.906 106.053 199.124 106.053 199.124Z" fill="#1B1B1B"/>
<mask id="mask3_365_7122" style="mask-type:luminance" maskUnits="userSpaceOnUse" x="83" y="199" width="28" height="24">
<path fill-rule="evenodd" clip-rule="evenodd" d="M106.053 199.124C106.053 199.124 102.039 204.646 95.47 201.945C95.47 201.945 97.1209 209.947 90.512 213.191C78.9556 218.865 84.5212 223 84.5212 223L110 210.706C112.026 209.906 106.053 199.124 106.053 199.124Z" fill="white"/>
</mask>
<g mask="url(#mask3_365_7122)">
<path d="M80.5826 221.949L115.241 205.219L114.123 213.052L86.3963 228.13" fill="#1B1B1B"/>
<path d="M80.5826 221.949L115.241 205.219L114.123 213.052L86.3963 228.13" stroke="#1B1B1B" stroke-width="0.5" stroke-linecap="round" stroke-linejoin="round"/>
</g>
<path fill-rule="evenodd" clip-rule="evenodd" d="M106.053 199.124C106.053 199.124 102.039 204.646 95.47 201.945C95.47 201.945 97.1209 209.947 90.512 213.191C78.9556 218.865 84.5212 223 84.5212 223L110 210.706C112.026 209.906 106.053 199.124 106.053 199.124Z" stroke="#1B1B1B" stroke-width="0.5" stroke-linecap="round" stroke-linejoin="round"/>
<path d="M87.6522 176.12C104.954 182.589 111.999 174.499 111.999 174.499L94.7994 116.339L71.7594 125.591L87.6522 176.12Z" fill="white" stroke="#1B1B1B" stroke-width="0.5" stroke-linecap="round" stroke-linejoin="round"/>
<path d="M91.9199 136.13L131.211 162.249L127.221 171.925L79.8608 146.887L91.9199 136.13Z" fill="white"/>
<mask id="mask4_365_7122" style="mask-type:luminance" maskUnits="userSpaceOnUse" x="79" y="136" width="53" height="36">
<path fill-rule="evenodd" clip-rule="evenodd" d="M91.9199 136.129L131.211 162.248L127.221 171.924L79.8608 146.886L91.9199 136.129Z" fill="white"/>
</mask>
<g mask="url(#mask4_365_7122)">
<path d="M108.539 163.778C107.854 167.576 123.749 155.281 123.749 155.281L117.697 152.518" fill="white"/>
</g>
<path fill-rule="evenodd" clip-rule="evenodd" d="M91.9199 136.13L131.211 162.249L127.221 171.925L79.8608 146.887L91.9199 136.13V136.13Z" stroke="#1B1B1B" stroke-width="0.5" stroke-linecap="round" stroke-linejoin="round"/>
<path d="M125.857 158.544C125.857 158.544 127.11 165.292 120.695 168.351C120.695 168.351 125.334 171.494 123.179 178.626C119.412 191.098 126.479 189.158 126.479 189.158L134.441 163.045C135.243 160.989 125.857 158.544 125.857 158.544Z" fill="#1B1B1B"/>
<mask id="mask5_365_7122" style="mask-type:luminance" maskUnits="userSpaceOnUse" x="120" y="158" width="15" height="32">
<path fill-rule="evenodd" clip-rule="evenodd" d="M125.857 158.544C125.857 158.544 127.11 165.292 120.695 168.351C120.695 168.351 125.334 171.494 123.179 178.626C119.412 191.098 126.479 189.158 126.479 189.158L134.441 163.045C135.243 160.989 125.857 158.544 125.857 158.544Z" fill="white"/>
</mask>
<g mask="url(#mask5_365_7122)">
<path d="M123.161 190.764L133.438 158.231L139.261 165.732L135.739 182.232" fill="#1B1B1B"/>
<path d="M123.161 190.764L133.438 158.231L139.261 165.732L135.739 182.232" stroke="#1B1B1B" stroke-width="0.5" stroke-linecap="round" stroke-linejoin="round"/>
</g>
<path fill-rule="evenodd" clip-rule="evenodd" d="M125.857 158.544C125.857 158.544 127.11 165.292 120.695 168.351C120.695 168.351 125.334 171.494 123.179 178.626C119.412 191.098 126.479 189.158 126.479 189.158L134.441 163.045C135.243 160.989 125.857 158.544 125.857 158.544Z" stroke="#1B1B1B" stroke-width="0.5" stroke-linecap="round" stroke-linejoin="round"/>
<path d="M79.2767 143.063C79.8682 142.739 80.4047 142.293 81.0383 142.103C136.616 125.428 153.718 119.407 124.075 83.1929L107.918 89.1026L106.52 100.895L67.8418 121.264L80.4554 142.419" fill="white"/>
<mask id="mask6_365_7122" style="mask-type:luminance" maskUnits="userSpaceOnUse" x="67" y="83" width="72" height="61">
<path fill-rule="evenodd" clip-rule="evenodd" d="M79.2767 143.063C79.8682 142.739 80.4047 142.293 81.0383 142.103C136.616 125.428 153.718 119.407 124.075 83.1929L107.918 89.1026L106.52 100.895L67.8418 121.264L80.4554 142.419" fill="white"/>
</mask>
<g mask="url(#mask6_365_7122)">
<path d="M82.4394 128.026C88.6537 114.829 101.082 137.432 124.696 128.868C148.31 120.305 108.954 142.065 108.954 142.065L83.9585 136.13" fill="white"/>
<path d="M106.192 97.5607C102.742 100.839 134.846 98.4534 139.611 104.991C144.375 111.529 140.732 94.6828 140.732 94.6828L126.514 89.2725" fill="white"/>
</g>
<path d="M79.2767 143.063C79.8682 142.739 80.4047 142.293 81.0383 142.103C136.616 125.428 153.718 119.407 124.075 83.1929L107.918 89.1026L106.52 100.895L67.8418 121.264L80.4554 142.419" stroke="#1B1B1B" stroke-width="0.5" stroke-linecap="round" stroke-linejoin="round"/>
<path d="M85.8549 95.395C85.8549 95.395 73.4798 101.583 72.2972 101.727C71.1145 101.871 64.4153 102.477 63.4016 102.692C62.388 102.908 53.7635 102.357 53.5945 102.141C53.4256 101.926 50.1603 103.106 54.6374 104.688C59.1146 106.27 65.2601 106.503 65.429 107.222C65.598 107.941 61.2898 109.022 61.2053 109.811C61.1208 110.601 64.7532 110.224 64.7532 110.224C64.7532 110.224 71.2577 108.913 71.9335 108.552C72.6093 108.192 89.1727 103.669 89.1727 103.669L85.8549 95.395Z" fill="white"/>
<mask id="mask7_365_7122" style="mask-type:luminance" maskUnits="userSpaceOnUse" x="52" y="95" width="38" height="16">
<path fill-rule="evenodd" clip-rule="evenodd" d="M85.8549 95.395C85.8549 95.395 73.4798 101.583 72.2972 101.727C71.1145 101.871 64.4153 102.477 63.4016 102.692C62.388 102.908 53.7635 102.357 53.5945 102.141C53.4256 101.926 50.1603 103.106 54.6374 104.688C59.1146 106.27 65.2601 106.503 65.429 107.222C65.598 107.941 61.2898 109.022 61.2053 109.811C61.1208 110.601 64.7532 110.224 64.7532 110.224C64.7532 110.224 71.2577 108.913 71.9335 108.552C72.6093 108.192 89.1727 103.669 89.1727 103.669L85.8549 95.395Z" fill="white"/>
</mask>
<g mask="url(#mask7_365_7122)">
<path d="M76.1167 100.125C72.8175 99.6875 77.0043 105.199 75.725 109.151C74.6739 112.398 80.9729 108.558 80.9729 108.558L81.1697 103.81" fill="white"/>
</g>
<path fill-rule="evenodd" clip-rule="evenodd" d="M85.8549 95.395C85.8549 95.395 73.4798 101.583 72.2972 101.727C71.1145 101.871 64.4153 102.477 63.4016 102.692C62.388 102.908 53.7635 102.357 53.5945 102.141C53.4256 101.926 50.1603 103.106 54.6374 104.688C59.1146 106.27 65.2601 106.503 65.429 107.222C65.598 107.941 61.2898 109.022 61.2053 109.811C61.1208 110.601 64.7532 110.224 64.7532 110.224C64.7532 110.224 71.2577 108.913 71.9335 108.552C72.6093 108.192 89.1727 103.669 89.1727 103.669L85.8549 95.395Z" stroke="#1B1B1B" stroke-width="0.5" stroke-linecap="round" stroke-linejoin="round"/>
<path d="M75.2173 98.9965C73.4856 100.902 82.5137 113.157 82.5137 113.157C82.5137 113.157 100.749 104.475 107.803 96.6892C114.857 88.9038 120.063 59.9654 120.063 59.9654C120.063 59.9654 114.956 57.9347 113.432 58.0523C105.782 58.6424 96.6845 85.6878 96.6845 85.6878L75.2173 98.9965Z" fill="white" stroke="#1B1B1B" stroke-width="0.5" stroke-linecap="round" stroke-linejoin="round"/>
<path d="M109.274 63.5775C107.682 66.8787 106.687 71.2061 109.246 75.1261C114.267 82.8168 101.346 97.9458 101.346 97.9458C111.214 98.9316 134.45 95.8229 134.45 95.8229C129.249 80.4414 141.442 59.0992 140.574 58.6786C130.651 53.8719 112.887 58.1763 112.887 58.1763" fill="white"/>
<mask id="mask8_365_7122" style="mask-type:luminance" maskUnits="userSpaceOnUse" x="101" y="56" width="40" height="43">
<path fill-rule="evenodd" clip-rule="evenodd" d="M109.274 63.5775C107.682 66.8787 106.687 71.2061 109.246 75.1261C114.267 82.8168 101.346 97.9458 101.346 97.9458C111.214 98.9316 134.45 95.8229 134.45 95.8229C129.249 80.4414 141.442 59.0992 140.574 58.6786C130.651 53.8719 112.887 58.1763 112.887 58.1763" fill="white"/>
</mask>
<g mask="url(#mask8_365_7122)">
<path d="M117.905 53.5664C107.278 66.7536 126.477 70.8571 137.195 54.6974L117.905 53.5664Z" fill="white"/>
<path d="M117.905 53.5664C107.278 66.7536 126.477 70.8571 137.195 54.6974" stroke="#1B1B1B" stroke-width="0.5" stroke-linecap="round" stroke-linejoin="round"/>
<path d="M119.068 52.3984C108.441 65.5856 126.943 64.6067 138.358 53.5294L119.068 52.3984Z" fill="white"/>
<path d="M119.068 52.3984C108.441 65.5856 126.943 64.6067 138.358 53.5294" stroke="#1B1B1B" stroke-width="0.5" stroke-linecap="round" stroke-linejoin="round"/>
</g>
<path d="M109.274 63.5775C107.682 66.8787 106.687 71.2061 109.246 75.1261C114.267 82.8168 101.346 97.9458 101.346 97.9458C111.214 98.9316 134.45 95.8229 134.45 95.8229C129.249 80.4414 141.442 59.0992 140.574 58.6786C130.651 53.8719 112.887 58.1763 112.887 58.1763" stroke="#1B1B1B" stroke-width="0.5" stroke-linecap="round" stroke-linejoin="round"/>
<path d="M68.4361 120.952C42.5818 132.184 103.145 169.645 103.145 169.645C120.063 164.974 117.513 152.504 117.513 152.504C117.513 152.504 100.348 133.458 85.0706 124.625" fill="white"/>
<path d="M68.4361 120.952C42.5818 132.184 103.145 169.645 103.145 169.645C120.063 164.974 117.513 152.504 117.513 152.504C117.513 152.504 100.348 133.458 85.0706 124.625" stroke="#1B1B1B" stroke-width="0.5" stroke-linecap="round" stroke-linejoin="round"/>
<path d="M140.3 58.5496C143.129 59.5944 155.095 69.8819 155.095 69.8819L168.482 54.1523C176.859 59.1356 175.435 67.4139 175.435 67.4139C175.435 67.4139 160.807 91.4146 155.198 92.0081C147.85 92.7855 132.026 73.8491 128.932 70.05" fill="white"/>
<path d="M140.3 58.5496C143.129 59.5944 155.095 69.8819 155.095 69.8819L168.482 54.1523C176.859 59.1356 175.435 67.4139 175.435 67.4139C175.435 67.4139 160.807 91.4146 155.198 92.0081C147.85 92.7855 132.026 73.8491 128.932 70.05" stroke="#1B1B1B" stroke-width="0.5" stroke-linecap="round" stroke-linejoin="round"/>
<path d="M120.623 58.3334L121.933 44.8171L130.23 44.5474C128.761 47.3945 130.163 54.1705 131.033 57.1764" fill="white"/>
<mask id="mask9_365_7122" style="mask-type:luminance" maskUnits="userSpaceOnUse" x="120" y="44" width="12" height="15">
<path fill-rule="evenodd" clip-rule="evenodd" d="M120.623 58.3334L121.933 44.8171L130.23 44.5474C128.761 47.3945 130.163 54.1705 131.033 57.1764" fill="white"/>
</mask>
<g mask="url(#mask9_365_7122)">
<path d="M139.815 60.3276C131.643 56.8983 128.487 54.8576 126.157 48.4608C123.268 40.5284 132.207 45.4142 132.207 45.4142C132.207 45.4142 133.086 45.3887 133.5 46.1763C133.914 46.964 137.188 54.973 137.188 54.973" fill="white"/>
</g>
<path d="M120.623 58.3334L121.933 44.8171L130.23 44.5474C128.761 47.3945 130.163 54.1705 131.033 57.1764" stroke="#1B1B1B" stroke-width="0.5" stroke-linecap="round" stroke-linejoin="round"/>
<ellipse cx="106.509" cy="21.2822" rx="18.8408" ry="15.6628" transform="rotate(-20.5606 106.509 21.2822)" fill="#1B1B1B" stroke="#1B1B1B" stroke-width="0.5" stroke-linecap="round" stroke-linejoin="round"/>
<ellipse cx="124.773" cy="38.0591" rx="11.5145" ry="9.5152" transform="rotate(-20.5447 124.773 38.0591)" fill="#1B1B1B" stroke="#1B1B1B" stroke-width="0.5" stroke-linecap="round" stroke-linejoin="round"/>
<path d="M129.997 31.5649C143.869 46.225 131.95 54.2517 125.088 48.5809L121.592 40.6297L129.997 31.5649Z" fill="white"/>
<mask id="mask10_365_7122" style="mask-type:luminance" maskUnits="userSpaceOnUse" x="121" y="31" width="16" height="20">
<path fill-rule="evenodd" clip-rule="evenodd" d="M129.997 31.5649C143.869 46.225 131.95 54.2517 125.088 48.5809L121.592 40.6297L129.997 31.5649Z" fill="white"/>
</mask>
<g mask="url(#mask10_365_7122)">
<path d="M135.008 41.5044C135.179 41.5273 135.351 41.4815 135.488 41.377C135.625 41.2725 135.714 41.118 135.737 40.9475L135.884 39.8588C135.933 39.5036 135.685 39.176 135.33 39.1264C135.16 39.1035 134.987 39.1493 134.85 39.2537C134.714 39.3582 134.624 39.5127 134.601 39.6833L134.454 40.772C134.405 41.1271 134.653 41.4548 135.008 41.5044Z" fill="#1B1B1B"/>
<path d="M133.347 40.728C132.974 42.0476 132.86 42.4353 132.86 42.4353C134.873 43.4356 132.112 44.2028 132.112 44.2028" stroke="#1B1B1B" stroke-width="0.5" stroke-linecap="round" stroke-linejoin="round"/>
<path d="M130.741 43.8501C130.633 44.3117 130.866 44.7855 131.297 44.9821" stroke="#1B1B1B" stroke-width="0.5" stroke-linecap="round" stroke-linejoin="round"/>
<path d="M130.924 40.7587C131.094 40.7817 131.267 40.7359 131.403 40.6314C131.54 40.527 131.63 40.3724 131.652 40.2019L131.8 39.1132C131.849 38.758 131.601 38.4304 131.246 38.3808C131.075 38.3578 130.902 38.4036 130.766 38.5081C130.629 38.6126 130.54 38.7671 130.517 38.9377L130.37 40.0264C130.321 40.3815 130.569 40.7092 130.924 40.7587Z" fill="#1B1B1B"/>
<path d="M135.696 37.6296C136.953 38.1924 136.495 38.8601 135.687 38.5598C134.878 38.2595 134.875 37.2619 135.696 37.6296Z" fill="#1B1B1B"/>
<path d="M131.497 36.8164C130.136 37.021 130.308 37.7188 131.167 37.6466C132.026 37.5745 132.386 36.6827 131.497 36.8164Z" fill="#1B1B1B"/>
</g>
<path fill-rule="evenodd" clip-rule="evenodd" d="M129.997 31.5649C143.869 46.225 131.95 54.2517 125.088 48.5809L121.592 40.6297L129.997 31.5649Z" stroke="#1B1B1B" stroke-width="0.5" stroke-linecap="round" stroke-linejoin="round"/>
<path d="M123.056 44.4177L119.069 40.1826L125.536 30.5264L129.004 30.3161C129.004 30.3161 130.188 29.4698 130.628 30.3161" fill="#1B1B1B"/>
<path d="M123.056 44.4177L119.069 40.1826L125.536 30.5264L129.004 30.3161C129.004 30.3161 130.188 29.4698 130.628 30.3161" stroke="#1B1B1B" stroke-width="0.5" stroke-linecap="round" stroke-linejoin="round"/>
<path d="M130.628 30.3169C132.154 33.2485 132.658 39.4551 123.056 44.4185L130.628 30.3169Z" fill="#1B1B1B"/>
<path d="M130.628 30.3169C132.154 33.2485 132.658 39.4551 123.056 44.4185" stroke="#1B1B1B" stroke-width="0.5" stroke-linecap="round" stroke-linejoin="round"/>
<path d="M126.094 43.2014C116.699 41.1132 119.22 48.7118 125.555 48.7857L126.094 43.2014Z" fill="white"/>
<path d="M126.094 43.2014C116.699 41.1132 119.22 48.7118 125.555 48.7857" stroke="#1B1B1B" stroke-width="0.5" stroke-linecap="round" stroke-linejoin="round"/>
<ellipse cx="122.575" cy="48.7862" rx="1.85773" ry="1.86729" fill="#1B1B1B" stroke="#1B1B1B" stroke-width="0.5" stroke-linecap="round" stroke-linejoin="round"/>
<path d="M34.1588 137.992L31.3182 137.956L28.8142 137.924C27.6126 137.906 26.6532 136.917 26.6712 135.716C26.6769 135.139 26.9117 134.587 27.3237 134.184C27.7358 133.78 28.2915 133.556 28.8686 133.562L34.2131 133.629C35.4148 133.647 36.3742 134.636 36.3561 135.838C36.3504 136.415 36.1157 136.966 35.7036 137.37C35.2915 137.774 34.7358 137.997 34.1588 137.992Z" fill="white" stroke="#1B1B1B" stroke-width="0.5" stroke-linecap="round" stroke-linejoin="round"/>
<path d="M48.677 151.94C47.4251 154.537 44.671 155.795 42.5254 154.75L23.7201 145.591C21.5746 144.546 20.8501 141.593 22.102 138.996C23.3539 136.4 26.108 135.142 28.2536 136.187L31.4505 137.744L47.0589 145.346C49.2044 146.391 49.9289 149.343 48.677 151.94Z" fill="white"/>
<mask id="mask11_365_7122" style="mask-type:luminance" maskUnits="userSpaceOnUse" x="21" y="135" width="29" height="21">
<path fill-rule="evenodd" clip-rule="evenodd" d="M48.677 151.94C47.4251 154.537 44.671 155.795 42.5254 154.75L23.7201 145.591C21.5746 144.546 20.8501 141.593 22.102 138.996C23.3539 136.4 26.108 135.142 28.2536 136.187L31.4505 137.744L47.0589 145.346C49.2044 146.391 49.9289 149.343 48.677 151.94Z" fill="white"/>
</mask>
<g mask="url(#mask11_365_7122)">
<path d="M38.1553 136.054C17.8596 139.897 39.5613 152.85 39.5613 152.85L22.7152 156.783L14.9907 143.4L29.8212 131.28" fill="white"/>
</g>
<path fill-rule="evenodd" clip-rule="evenodd" d="M48.677 151.94V151.94C47.4251 154.537 44.671 155.795 42.5254 154.75L23.7201 145.591C21.5746 144.546 20.8501 141.593 22.102 138.996V138.996C23.3539 136.4 26.108 135.142 28.2536 136.187L31.4505 137.744L47.0589 145.346C49.2044 146.391 49.9289 149.343 48.677 151.94Z" stroke="#1B1B1B" stroke-width="0.5" stroke-linecap="round" stroke-linejoin="round"/>
<path d="M11.4203 133.434L10.2506 136.46C10.0856 136.891 9.75589 137.237 9.33448 137.424C8.91308 137.61 8.4347 137.621 8.00523 137.454L7.19342 137.137C6.29889 136.785 5.85696 135.776 6.20459 134.88L6.42056 134.322L7.37431 131.854C7.53934 131.424 7.86904 131.077 8.29045 130.89C8.71185 130.704 9.19023 130.693 9.6197 130.86L10.4315 131.177C11.326 131.529 11.768 132.538 11.4203 133.434Z" fill="white" stroke="#1B1B1B" stroke-width="0.5" stroke-linecap="round" stroke-linejoin="round"/>
<ellipse cx="36.3228" cy="94.4125" rx="8.08325" ry="27.5164" transform="rotate(-64.0098 36.3228 94.4125)" fill="url(#paint0_linear_365_7122)"/>
<path d="M11.7021 124.682C10.5476 129.651 8.73021 134.442 6.29877 138.926C8.21449 140.047 10.2613 141.144 12.4114 142.191C16.3978 144.132 20.2971 145.688 23.8698 146.82C26.1908 142.488 28.7279 138.276 31.4713 134.198C27.8697 132.988 24.3516 131.542 20.9399 129.87C17.7589 128.328 14.6741 126.596 11.7021 124.682Z" fill="#1B1B1B" stroke="#1B1B1B" stroke-width="0.5" stroke-linecap="round" stroke-linejoin="round"/>
<path d="M6.29873 138.926C5.21208 140.934 4.02375 142.886 2.73839 144.773C-0.24858 149.173 0.699576 155.15 4.92258 158.368C9.93738 162.19 17.172 160.413 19.8817 154.704C21.0227 152.3 22.3554 149.632 23.8697 146.82C20.297 145.688 16.3977 144.132 12.4114 142.191C10.2613 141.143 8.21445 140.047 6.29873 138.926Z" fill="white" stroke="#1B1B1B" stroke-width="0.5" stroke-linecap="round" stroke-linejoin="round"/>
<path d="M11.4572 83.4248C12.9453 93.5849 13.6535 102.2 13.475 109.8C13.3479 115.213 12.77 120.111 11.7021 124.682C14.674 126.596 17.7589 128.328 20.9398 129.87C24.3516 131.542 27.8696 132.988 31.4712 134.198C34.161 130.224 37.1508 126.301 40.4171 122.71C46.9599 115.518 54.613 109.665 63.1975 107.444L11.4572 83.4248Z" fill="white"/>
<path fill-rule="evenodd" clip-rule="evenodd" d="M11.4572 83.4248C12.9453 93.5849 13.6535 102.2 13.475 109.8C13.3479 115.213 12.77 120.111 11.7021 124.682C14.674 126.596 17.7589 128.328 20.9398 129.87C24.3516 131.542 27.8696 132.988 31.4712 134.198C34.161 130.224 37.1508 126.301 40.4171 122.71C46.96 115.518 54.613 109.665 63.1975 107.444L11.4572 83.4248Z" stroke="#1B1B1B" stroke-width="0.5" stroke-linecap="round" stroke-linejoin="round"/>
<ellipse cx="36.3228" cy="94.4128" rx="10.907" ry="30.8702" transform="rotate(-63.9987 36.3228 94.4128)" fill="#1B1B1B" stroke="#1B1B1B" stroke-width="0.5" stroke-linecap="round" stroke-linejoin="round"/>
<ellipse cx="36.3228" cy="94.4125" rx="8.08325" ry="27.5164" transform="rotate(-64.0098 36.3228 94.4125)" fill="white"/>
<mask id="mask12_365_7122" style="mask-type:luminance" maskUnits="userSpaceOnUse" x="11" y="80" width="51" height="29">
<ellipse cx="36.3228" cy="94.413" rx="8.08325" ry="27.5164" transform="rotate(-64.0098 36.3228 94.413)" fill="white"/>
</mask>
<g mask="url(#mask12_365_7122)">
<path d="M44.7997 109.43L41.6318 116.001C38.5119 122.473 30.763 125.177 24.3242 122.041C17.8855 118.905 15.1951 111.116 18.3151 104.645L19.852 101.456L21.483 98.0734C24.6029 91.6015 32.3518 88.8973 38.7905 92.0333C45.2292 95.1693 47.9196 102.958 44.7997 109.43Z" fill="white"/>
<mask id="mask13_365_7122" style="mask-type:luminance" maskUnits="userSpaceOnUse" x="17" y="90" width="30" height="34">
<path fill-rule="evenodd" clip-rule="evenodd" d="M44.7997 109.43L41.6318 116.001C38.5119 122.473 30.763 125.177 24.3242 122.041C17.8855 118.905 15.1951 111.116 18.3151 104.645L19.852 101.456L21.483 98.0734C24.6029 91.6015 32.3518 88.8973 38.7905 92.0333C45.2292 95.1693 47.9196 102.958 44.7997 109.43Z" fill="white"/>
</mask>
<g mask="url(#mask13_365_7122)">
<path d="M25.4426 90.0347C26.7534 104.152 51.9589 110.84 51.9589 110.84L19.8519 101.456L18.3274 91.1729L24.1931 87.8237" fill="white"/>
</g>
<path fill-rule="evenodd" clip-rule="evenodd" d="M44.7997 109.43L41.6318 116.001C38.5119 122.473 30.763 125.177 24.3242 122.041V122.041C17.8855 118.905 15.1951 111.116 18.3151 104.645L19.852 101.456L21.483 98.0734C24.6029 91.6015 32.3518 88.8973 38.7905 92.0333V92.0333C45.2292 95.1693 47.9196 102.958 44.7997 109.43Z" stroke="#1B1B1B" stroke-width="0.5" stroke-linecap="round" stroke-linejoin="round"/>
</g>
<ellipse cx="36.3228" cy="94.4125" rx="8.08325" ry="27.5164" transform="rotate(-64.0098 36.3228 94.4125)" stroke="#1B1B1B" stroke-width="0.5" stroke-linecap="round" stroke-linejoin="round"/>
<path d="M22.3912 115.379C23.6029 116.975 24.4559 118.814 24.8922 120.77" stroke="#1B1B1B" stroke-width="0.5" stroke-linecap="round" stroke-linejoin="round"/>
<path d="M67.6925 31.7319H22.2508C20.9666 31.7353 19.9283 32.779 19.9316 34.0632V54.9691C19.9282 56.2533 20.9666 57.297 22.2508 57.3004H51.9564C53.1537 58.8197 54.5195 60.5504 55.5122 61.8076C55.9709 62.3886 56.8956 62.0551 56.8956 61.3134V57.3004H67.6925C68.9767 57.297 70.0151 56.2533 70.0118 54.9691V34.0632C70.0151 32.779 68.9767 31.7353 67.6925 31.7319Z" fill="white"/>
<mask id="mask14_365_7122" style="mask-type:luminance" maskUnits="userSpaceOnUse" x="19" y="31" width="52" height="32">
<path fill-rule="evenodd" clip-rule="evenodd" d="M67.6925 31.7319H22.2508C20.9666 31.7353 19.9283 32.779 19.9316 34.0632V54.9691C19.9282 56.2533 20.9666 57.297 22.2508 57.3004H51.9564C53.1537 58.8197 54.5195 60.5504 55.5122 61.8076C55.9709 62.3886 56.8956 62.0551 56.8956 61.3134V57.3004H67.6925C68.9767 57.297 70.0151 56.2533 70.0118 54.9691V34.0632C70.0151 32.779 68.9767 31.7353 67.6925 31.7319Z" fill="white"/>
</mask>
<g mask="url(#mask14_365_7122)">
<path d="M70.0117 28.1205C70.1886 65.4711 13.3564 54.9739 13.3564 54.9739C13.3564 54.9739 22.3427 66.8194 23.557 67.8541C24.7714 68.8888 79.1749 69.8653 79.1749 69.8653L73.8317 26.6558" fill="#1B1B1B"/>
<path d="M70.0117 28.1205C70.1886 65.4711 13.3564 54.9739 13.3564 54.9739C13.3564 54.9739 22.3427 66.8194 23.557 67.8541C24.7714 68.8888 79.1749 69.8653 79.1749 69.8653L73.8317 26.6558" stroke="#1B1B1B" stroke-width="0.5" stroke-linecap="round" stroke-linejoin="round"/>
</g>
<path fill-rule="evenodd" clip-rule="evenodd" d="M67.6925 31.7319H22.2508C20.9666 31.7353 19.9283 32.779 19.9316 34.0632V54.9691C19.9282 56.2533 20.9666 57.297 22.2508 57.3004H51.9564C53.1537 58.8197 54.5195 60.5504 55.5122 61.8076C55.9709 62.3886 56.8956 62.0551 56.8956 61.3134V57.3004H67.6925C68.9767 57.297 70.0151 56.2533 70.0118 54.9691V34.0632C70.0151 32.779 68.9767 31.7353 67.6925 31.7319Z" stroke="#1B1B1B" stroke-width="0.5" stroke-linecap="round" stroke-linejoin="round"/>
<ellipse cx="30.0431" cy="43.8173" rx="2.31661" ry="2.32852" fill="white" stroke="#1B1B1B" stroke-width="0.5" stroke-linecap="round" stroke-linejoin="round"/>
<ellipse cx="39.7274" cy="43.8173" rx="2.31661" ry="2.32852" fill="white" stroke="#1B1B1B" stroke-width="0.5" stroke-linecap="round" stroke-linejoin="round"/>
<ellipse cx="49.4117" cy="43.8173" rx="2.31661" ry="2.32852" fill="white" stroke="#1B1B1B" stroke-width="0.5" stroke-linecap="round" stroke-linejoin="round"/>
<ellipse cx="59.096" cy="43.8173" rx="2.31661" ry="2.32852" fill="white" stroke="#1B1B1B" stroke-width="0.5" stroke-linecap="round" stroke-linejoin="round"/>
<path d="M61.1502 50.3545C59.9694 51.4111 58.6694 52.3265 57.2766 53.0821" stroke="#1B1B1B" stroke-width="0.5" stroke-linecap="round" stroke-linejoin="round"/>
<path d="M33.0536 34.71L32.3799 35.7263" stroke="#1B1B1B" stroke-width="0.5" stroke-linecap="round" stroke-linejoin="round"/>
<path d="M64.8863 51.1733L62.2387 53.6406" stroke="white" stroke-width="0.5" stroke-linecap="round" stroke-linejoin="round"/>
<path d="M167.232 142.324C165.65 143.167 163.759 143.197 162.151 142.404L137.135 130.074V157.055C137.133 157.748 137.407 158.413 137.896 158.904C138.384 159.396 139.048 159.672 139.741 159.674H187.405C188.098 159.672 188.761 159.396 189.25 158.904C189.739 158.413 190.012 157.748 190.011 157.055V130.187L167.232 142.324Z" fill="white" stroke="#1B1B1B" stroke-width="0.5" stroke-linecap="round" stroke-linejoin="round"/>
<path d="M167.232 142.324L190.01 130.187V127.278C190.014 125.835 188.848 124.662 187.405 124.659H139.741C138.298 124.662 137.131 125.835 137.135 127.278V130.074L162.151 142.404C163.759 143.197 165.65 143.167 167.232 142.324Z" fill="white" stroke="#1B1B1B" stroke-width="0.5" stroke-linecap="round" stroke-linejoin="round"/>
<ellipse cx="190.01" cy="127.512" rx="9.49787" ry="9.5467" fill="white"/>
<mask id="mask15_365_7122" style="mask-type:luminance" maskUnits="userSpaceOnUse" x="180" y="117" width="20" height="21">
<ellipse cx="190.01" cy="127.512" rx="9.49787" ry="9.5467" fill="white"/>
</mask>
<g mask="url(#mask15_365_7122)">
<path d="M184.627 114.873C203.714 117.186 198.299 134.354 192.884 137.607C187.469 140.861 203.984 137.059 203.984 137.059L201.006 117.965L191.45 114.873" fill="white"/>
</g>
<ellipse cx="190.01" cy="127.512" rx="9.49787" ry="9.5467" stroke="#1B1B1B" stroke-width="0.5" stroke-linecap="round" stroke-linejoin="round"/>
<path d="M191.441 131.25H190.104V125.334L188.571 126.227L188.58 124.883L190.464 123.774H191.45L191.441 131.25Z" fill="white" stroke="#1B1B1B" stroke-width="0.5" stroke-linecap="round" stroke-linejoin="round"/>
<path d="M144.588 127.824L143.325 128.913" stroke="#1B1B1B" stroke-width="0.5" stroke-linecap="round" stroke-linejoin="round"/>
<path d="M178.525 152.16L175.099 153.08" stroke="#1B1B1B" stroke-width="0.5" stroke-linecap="round" stroke-linejoin="round"/>
<defs>
<linearGradient id="paint0_linear_365_7122" x1="26.9932" y1="123.43" x2="44.89" y2="123.67" gradientUnits="userSpaceOnUse">
<stop stop-color="#FFFEFF"/>
<stop offset="1" stop-color="#C5EFFE"/>
</linearGradient>
</defs>
</svg>
