<svg width="137" height="33" viewBox="0 0 137 33" fill="none" xmlns="http://www.w3.org/2000/svg">
<path fill-rule="evenodd" clip-rule="evenodd" d="M32.1353 4.66995L30.3528 25.6523C30.2852 26.4483 30.8757 27.1485 31.6717 27.2161C32.4678 27.2837 33.1679 26.6932 33.2355 25.8972L35.1636 3.20075C35.3043 1.54463 33.5002 0.433527 32.0846 1.30442L22.455 8.28205L16.1557 2.81167C14.8725 1.9092 13.0947 2.74548 12.9718 4.30942L11.3155 25.372C11.2528 26.1685 11.8477 26.8649 12.6442 26.9275C13.4406 26.9902 14.137 26.3953 14.1997 25.5988L15.7366 6.05387L21.4768 11.1079C22.1386 11.5733 22.5267 11.5318 23.2158 11.1079L32.1353 4.66995Z" fill="#3A86FF"/>
<path fill-rule="evenodd" clip-rule="evenodd" d="M26.6518 28.4265C28.4977 28.4265 29.7149 27.04 29.7149 25.6652C29.7149 24.2904 28.4977 22.9039 26.6518 22.9039C24.806 22.9039 23.5888 24.2904 23.5888 25.6652C23.5888 27.04 24.806 28.4265 26.6518 28.4265ZM26.6518 32C30.3231 32 33.4826 29.9355 33.4826 25.1758C33.4826 21.6772 30.3231 19.3304 26.6518 19.3304C22.9805 19.3304 20.0043 22.1666 20.0043 25.6652C20.0043 29.1638 22.9805 32 26.6518 32Z" fill="#3A86FF"/>
<path fill-rule="evenodd" clip-rule="evenodd" d="M7.59365 28.4265C9.42452 28.4265 10.6319 27.04 10.6319 25.6652C10.6319 24.2904 9.42452 22.9039 7.59365 22.9039C5.76279 22.9039 4.5554 24.2904 4.5554 25.6652C4.5554 27.04 5.76279 28.4265 7.59365 28.4265ZM7.59365 32C11.2352 32 13.9926 29.9355 14.4783 25.2978C14.4783 21.7992 11.2352 19.3304 7.59365 19.3304C3.95208 19.3304 1 22.1666 1 25.6652C1 29.1638 3.95208 32 7.59365 32Z" fill="#3A86FF"/>
<path fill-rule="evenodd" clip-rule="evenodd" d="M32.1353 4.66995L30.3528 25.6523C30.2852 26.4483 30.8757 27.1485 31.6717 27.2161C32.4678 27.2837 33.1679 26.6932 33.2355 25.8972L35.1636 3.20075C35.3043 1.54463 33.5002 0.433527 32.0846 1.30442L22.455 8.28205L16.1557 2.81167C14.8725 1.9092 13.0947 2.74548 12.9718 4.30942L11.3155 25.372C11.2528 26.1685 11.8477 26.8649 12.6442 26.9275C13.4406 26.9902 14.137 26.3953 14.1997 25.5988L15.7366 6.05387L21.4768 11.1079C22.1386 11.5733 22.5267 11.5318 23.2158 11.1079L32.1353 4.66995Z" stroke="#3A86FF"/>
<path fill-rule="evenodd" clip-rule="evenodd" d="M26.6518 28.4265C28.4977 28.4265 29.7149 27.04 29.7149 25.6652C29.7149 24.2904 28.4977 22.9039 26.6518 22.9039C24.806 22.9039 23.5888 24.2904 23.5888 25.6652C23.5888 27.04 24.806 28.4265 26.6518 28.4265ZM26.6518 32C30.3231 32 33.4826 29.9355 33.4826 25.1758C33.4826 21.6772 30.3231 19.3304 26.6518 19.3304C22.9805 19.3304 20.0043 22.1666 20.0043 25.6652C20.0043 29.1638 22.9805 32 26.6518 32Z" stroke="#3A86FF"/>
<path fill-rule="evenodd" clip-rule="evenodd" d="M7.59365 28.4265C9.42452 28.4265 10.6319 27.04 10.6319 25.6652C10.6319 24.2904 9.42452 22.9039 7.59365 22.9039C5.76279 22.9039 4.5554 24.2904 4.5554 25.6652C4.5554 27.04 5.76279 28.4265 7.59365 28.4265ZM7.59365 32C11.2352 32 13.9926 29.9355 14.4783 25.2978C14.4783 21.7992 11.2352 19.3304 7.59365 19.3304C3.95208 19.3304 1 22.1666 1 25.6652C1 29.1638 3.95208 32 7.59365 32Z" stroke="#3A86FF"/>
<path d="M37.9304 20.3757V18.5952H41.5975V20.3509C41.5975 21.1093 41.7875 21.6533 42.1674 21.9831C42.5639 22.3128 43.1172 22.4776 43.8275 22.4776C44.2735 22.4776 44.6452 22.4364 44.9425 22.354C45.2399 22.2716 45.4629 22.1891 45.6115 22.1067V18.5952H49.3034V22.5518C49.3034 22.9475 49.2208 23.2854 49.0556 23.5657C48.907 23.846 48.6592 24.0933 48.3123 24.3076C47.7837 24.6373 47.1312 24.8928 46.3549 25.0742C45.595 25.272 44.7443 25.3709 43.8028 25.3709C42.6299 25.3709 41.5975 25.1978 40.7055 24.8516C39.83 24.5054 39.1445 23.9696 38.649 23.2442C38.1699 22.5024 37.9304 21.5462 37.9304 20.3757ZM49.3034 19.708H45.6115V13.1795C45.7767 13.1301 46.008 13.0806 46.3053 13.0311C46.6026 12.9817 46.9248 12.957 47.2716 12.957C47.9819 12.957 48.494 13.0806 48.8079 13.3279C49.1382 13.5587 49.3034 14.0121 49.3034 14.688V19.708ZM41.5975 19.708H37.9304V13.1795C38.0791 13.1301 38.3021 13.0806 38.5994 13.0311C38.8968 12.9817 39.2189 12.957 39.5658 12.957C40.276 12.957 40.7881 13.0806 41.102 13.3279C41.4323 13.5587 41.5975 14.0121 41.5975 14.688V19.708Z" fill="#373737"/>
<path d="M61.7968 21.5379C61.7968 22.7414 61.3426 23.6894 60.4341 24.3818C59.5255 25.0577 58.2041 25.3957 56.4696 25.3957C55.1151 25.3957 54.0001 25.1978 53.1246 24.8022C52.2491 24.4065 51.8114 23.8212 51.8114 23.0464C51.8114 22.7002 51.8857 22.4034 52.0344 22.1562C52.1831 21.8924 52.373 21.6863 52.6043 21.5379C53.0668 21.8017 53.6036 22.049 54.2148 22.2798C54.8425 22.4941 55.5528 22.6013 56.3457 22.6013C57.5516 22.6013 58.1545 22.2551 58.1545 21.5627C58.1545 21.2659 58.0471 21.0351 57.8324 20.8702C57.6176 20.6889 57.2625 20.557 56.7669 20.4746L55.7263 20.2273C54.4048 19.947 53.4137 19.5184 52.7529 18.9414C52.1087 18.3479 51.7866 17.5401 51.7866 16.5179C51.7866 15.3639 52.2491 14.4489 53.1742 13.773C54.1157 13.0806 55.3794 12.7344 56.9652 12.7344C57.7581 12.7344 58.4766 12.8168 59.1208 12.9817C59.7816 13.1301 60.3019 13.3691 60.6818 13.6988C61.0618 14.0121 61.2517 14.4077 61.2517 14.8858C61.2517 15.2155 61.1856 15.504 61.0535 15.7513C60.9213 15.9986 60.7479 16.2047 60.5332 16.3696C60.3515 16.2542 60.0706 16.1305 59.6907 15.9986C59.3273 15.8667 58.9226 15.7596 58.4766 15.6772C58.0471 15.5947 57.6424 15.5535 57.2625 15.5535C56.6678 15.5535 56.2053 15.6359 55.8749 15.8008C55.5446 15.9492 55.3794 16.1882 55.3794 16.5179C55.3794 16.7323 55.4702 16.9218 55.6519 17.0867C55.8502 17.2351 56.1888 17.3587 56.6678 17.4576L57.6589 17.7049C59.1291 18.0346 60.1863 18.5127 60.8305 19.1392C61.4747 19.7492 61.7968 20.5488 61.7968 21.5379Z" fill="#373737"/>
<path d="M63.9635 9.71746C63.9635 9.15693 64.1535 8.68708 64.5334 8.3079C64.9299 7.92873 65.4254 7.73914 66.0201 7.73914C66.6313 7.73914 67.1268 7.92873 67.5068 8.3079C67.8867 8.68708 68.0766 9.15693 68.0766 9.71746C68.0766 10.2615 67.8867 10.7313 67.5068 11.127C67.1268 11.5227 66.6313 11.7205 66.0201 11.7205C65.4254 11.7205 64.9299 11.5227 64.5334 11.127C64.1535 10.7313 63.9635 10.2615 63.9635 9.71746ZM64.1865 18.4715H67.8536V24.9753C67.705 25.0247 67.482 25.0659 67.1846 25.0989C66.8873 25.1484 66.5652 25.1731 66.2183 25.1731C65.508 25.1731 64.9877 25.0494 64.6573 24.8022C64.3435 24.5549 64.1865 24.1097 64.1865 23.4668V18.4715ZM67.8536 20.3757H64.1865V13.2784C64.3352 13.229 64.5582 13.1795 64.8555 13.1301C65.1694 13.0806 65.4998 13.0559 65.8466 13.0559C66.5569 13.0559 67.069 13.1795 67.3829 13.4268C67.6967 13.6576 67.8536 14.111 67.8536 14.7869V20.3757Z" fill="#373737"/>
<path d="M77.2558 15.6772C76.3638 15.6772 75.5957 15.9739 74.9515 16.5674C74.3238 17.1444 74.0099 17.9934 74.0099 19.1145C74.0099 20.219 74.3155 21.0516 74.9267 21.6121C75.5379 22.1726 76.306 22.4529 77.2311 22.4529C77.7762 22.4529 78.2469 22.387 78.6434 22.2551C79.0564 22.1067 79.4115 21.9501 79.7088 21.7852C79.9896 21.9831 80.2044 22.2056 80.3531 22.4529C80.5017 22.6837 80.5761 22.9722 80.5761 23.3184C80.5761 23.9284 80.2457 24.423 79.5849 24.8022C78.9242 25.1813 78.0074 25.3709 76.8346 25.3709C75.5296 25.3709 74.3816 25.1401 73.3905 24.6785C72.3994 24.2004 71.6313 23.4915 71.0862 22.5518C70.5411 21.6121 70.2685 20.4663 70.2685 19.1145C70.2685 17.6802 70.5658 16.5015 71.1605 15.5782C71.7552 14.6385 72.5398 13.9379 73.5144 13.4763C74.5055 12.9982 75.5792 12.7591 76.7355 12.7591C77.8753 12.7591 78.7673 12.9652 79.4115 13.3774C80.0722 13.7895 80.4026 14.3006 80.4026 14.9106C80.4026 15.2073 80.3283 15.4793 80.1796 15.7266C80.0475 15.9574 79.8905 16.1635 79.7088 16.3448C79.395 16.18 79.0316 16.0316 78.6186 15.8997C78.2222 15.7513 77.7679 15.6772 77.2558 15.6772Z" fill="#373737"/>
<path d="M93.1465 21.2659C92.9648 21.4143 92.717 21.5379 92.4032 21.6368C92.1058 21.7358 91.759 21.7852 91.3625 21.7852C90.8504 21.7852 90.421 21.7193 90.0741 21.5874C89.7272 21.4555 89.5042 21.2329 89.4051 20.9197C88.8434 19.3535 88.3644 18.0511 87.968 17.0125C87.588 15.9739 87.2907 15.0754 87.076 14.3171H86.9521C86.9025 15.3557 86.8612 16.3036 86.8282 17.1609C86.7951 18.0182 86.7704 18.8589 86.7538 19.6833C86.7373 20.4911 86.7126 21.3154 86.6795 22.1562C86.6465 22.9969 86.5969 23.9202 86.5308 24.9258C86.3491 24.9753 86.1014 25.033 85.7875 25.0989C85.4902 25.1649 85.1928 25.1978 84.8955 25.1978C84.2678 25.1978 83.7723 25.0907 83.4088 24.8763C83.062 24.662 82.8885 24.2911 82.8885 23.7635C82.8885 23.4008 82.905 22.8651 82.9381 22.1562C82.9876 21.4308 83.0372 20.6065 83.0867 19.6833C83.1528 18.7435 83.2106 17.7544 83.2602 16.7158C83.3263 15.6772 83.3923 14.655 83.4584 13.6494C83.541 12.6272 83.6153 11.6875 83.6814 10.8303C83.8136 10.6324 84.0778 10.4346 84.4743 10.2368C84.8707 10.0224 85.4158 9.91529 86.1096 9.91529C86.853 9.91529 87.4476 10.0389 87.8936 10.2862C88.3561 10.517 88.6865 10.9044 88.8847 11.4485C89.1325 12.042 89.3968 12.7344 89.6776 13.5257C89.9584 14.3006 90.231 15.0919 90.4953 15.8997C90.7761 16.691 91.0321 17.4082 91.2634 18.0511H91.3873C91.8498 16.6004 92.3206 15.1826 92.7996 13.7977C93.2952 12.4129 93.7164 11.2589 94.0633 10.3357C94.2945 10.2038 94.5836 10.1049 94.9305 10.0389C95.2939 9.9565 95.6738 9.91529 96.0703 9.91529C96.7806 9.91529 97.3505 10.0224 97.78 10.2368C98.226 10.4346 98.4903 10.7396 98.5728 11.1517C98.6389 11.465 98.705 11.9596 98.7711 12.6355C98.8537 13.3114 98.9362 14.0945 99.0188 14.9847C99.1014 15.8585 99.184 16.7817 99.2666 17.7544C99.3492 18.7106 99.4235 19.6503 99.4896 20.5735C99.5722 21.4802 99.6383 22.2963 99.6878 23.0217C99.7374 23.7471 99.7704 24.3241 99.787 24.7527C99.5392 24.9011 99.2749 25.0082 98.9941 25.0742C98.7298 25.1566 98.3911 25.1978 97.9782 25.1978C97.4496 25.1978 96.9953 25.0989 96.6154 24.9011C96.252 24.7032 96.0538 24.3241 96.0207 23.7635C95.9381 22.4776 95.8721 21.2577 95.8225 20.1036C95.773 18.9331 95.7317 17.8698 95.6986 16.9136C95.6821 15.9409 95.6573 15.1084 95.6243 14.416H95.5004C95.2857 15.1249 94.9801 16.0234 94.5836 17.1114C94.2037 18.183 93.7247 19.5679 93.1465 21.2659Z" fill="#373737"/>
<path d="M107.418 22.6507C107.798 22.6507 108.169 22.6178 108.533 22.5518C108.913 22.4694 109.185 22.3787 109.35 22.2798V19.9058L107.269 20.1036C106.707 20.1366 106.261 20.252 105.931 20.4499C105.601 20.6477 105.436 20.9444 105.436 21.3401C105.436 21.7358 105.592 22.0572 105.906 22.3045C106.22 22.5353 106.724 22.6507 107.418 22.6507ZM107.269 12.7591C108.987 12.7591 110.358 13.1218 111.382 13.8472C112.406 14.5561 112.918 15.6607 112.918 17.1609V22.7744C112.918 23.1865 112.811 23.5245 112.596 23.7883C112.382 24.0356 112.109 24.2499 111.779 24.4312C111.283 24.728 110.664 24.9588 109.92 25.1236C109.193 25.305 108.359 25.3957 107.418 25.3957C105.733 25.3957 104.387 25.0659 103.379 24.4065C102.388 23.7471 101.892 22.7661 101.892 21.4637C101.892 20.3427 102.239 19.4854 102.933 18.8919C103.627 18.2819 104.659 17.911 106.03 17.7791L109.326 17.4329V17.1362C109.326 16.5756 109.103 16.1717 108.657 15.9244C108.227 15.6771 107.608 15.5535 106.798 15.5535C106.171 15.5535 105.551 15.6277 104.94 15.7761C104.345 15.9244 103.808 16.0975 103.329 16.2954C103.131 16.1635 102.958 15.9657 102.809 15.7019C102.677 15.4216 102.611 15.1331 102.611 14.8364C102.611 14.144 102.991 13.6411 103.751 13.3279C104.23 13.1301 104.783 12.9899 105.411 12.9075C106.055 12.8086 106.674 12.7591 107.269 12.7591Z" fill="#373737"/>
<path d="M115.773 18.4715H119.415V21.1175C119.415 21.5791 119.564 21.9171 119.861 22.1314C120.159 22.3457 120.58 22.4529 121.125 22.4529C121.373 22.4529 121.637 22.4282 121.918 22.3787C122.215 22.3128 122.463 22.2386 122.661 22.1562C122.793 22.3045 122.909 22.4859 123.008 22.7002C123.124 22.9145 123.181 23.1618 123.181 23.4421C123.181 24.0026 122.95 24.4642 122.488 24.8269C122.025 25.1896 121.249 25.3709 120.159 25.3709C118.771 25.3709 117.689 25.0577 116.913 24.4312C116.153 23.8048 115.773 22.7826 115.773 21.3648V18.4715ZM118.102 16.2212V13.4021H122.859C122.942 13.534 123.024 13.7236 123.107 13.9708C123.19 14.2181 123.231 14.4902 123.231 14.7869C123.231 15.2815 123.115 15.6442 122.884 15.875C122.669 16.1058 122.372 16.2212 121.992 16.2212H118.102ZM119.415 19.0898H115.773V10.212C115.938 10.1626 116.169 10.1131 116.467 10.0637C116.764 9.99772 117.078 9.96475 117.408 9.96475C118.118 9.96475 118.631 10.0884 118.944 10.3357C119.258 10.583 119.415 11.0363 119.415 11.6958V19.0898Z" fill="#373737"/>
<path d="M126.991 20.7961L126.843 18.3232L132.988 17.3587C132.955 16.8971 132.756 16.4685 132.393 16.0728C132.03 15.6772 131.493 15.4793 130.782 15.4793C130.039 15.4793 129.42 15.7349 128.924 16.2459C128.429 16.7405 128.164 17.4494 128.131 18.3726L128.255 20.0789C128.404 20.9856 128.792 21.6368 129.42 22.0325C130.047 22.4117 130.791 22.6013 131.65 22.6013C132.343 22.6013 132.996 22.5024 133.607 22.3045C134.218 22.1067 134.714 21.9006 135.094 21.6863C135.341 21.8347 135.54 22.0408 135.688 22.3045C135.854 22.5683 135.936 22.8486 135.936 23.1453C135.936 23.6399 135.738 24.052 135.341 24.3818C134.962 24.7115 134.425 24.9588 133.731 25.1236C133.054 25.2885 132.277 25.3709 131.402 25.3709C130.13 25.3709 128.982 25.1319 127.958 24.6538C126.95 24.1757 126.157 23.4585 125.579 22.5024C125.001 21.5462 124.712 20.3509 124.712 18.9167C124.712 17.8615 124.877 16.9466 125.207 16.1717C125.554 15.3969 126.009 14.7622 126.57 14.2676C127.148 13.7565 127.793 13.3774 128.503 13.1301C129.23 12.8828 129.981 12.7591 130.758 12.7591C131.897 12.7591 132.888 12.9899 133.731 13.4515C134.59 13.8967 135.259 14.5066 135.738 15.2815C136.217 16.0563 136.456 16.9548 136.456 17.977C136.456 18.488 136.316 18.8754 136.035 19.1392C135.754 19.403 135.366 19.5678 134.871 19.6338L126.991 20.7961Z" fill="#373737"/>
</svg>
