<svg width="284" height="289" viewBox="0 0 284 289" fill="none" xmlns="http://www.w3.org/2000/svg">
<path d="M190.776 236.493C190.776 247.021 205.245 255.554 223.092 255.554C236.122 255.554 247.342 251.01 252.457 244.457L252.654 244.511L259.437 246.37C259.307 246.573 259.237 246.807 259.233 247.048C259.233 247.116 259.233 247.191 259.233 247.272C259.162 247.58 259.158 247.9 259.221 248.211C259.284 248.521 259.413 248.814 259.6 249.07C260.022 249.453 260.515 249.748 261.052 249.939C261.589 250.13 262.158 250.213 262.727 250.182C264.545 250.182 265.969 249.246 265.99 248.439C265.99 247.082 265.956 246.736 265.813 246.519C265.495 246.119 265.065 245.821 264.579 245.664C263.901 244.882 262.944 244.395 261.913 244.308C261.235 244.118 257.239 243.08 253.915 242.212C254.882 240.46 255.395 238.494 255.408 236.493C255.408 225.965 240.939 217.432 223.092 217.432C205.245 217.432 190.776 225.945 190.776 236.493ZM240.084 244.24C240.077 244.368 240.021 244.489 239.928 244.577C239.834 244.666 239.711 244.715 239.582 244.715H239.548C239.481 244.71 239.416 244.693 239.356 244.663C239.296 244.634 239.242 244.592 239.198 244.542C239.154 244.492 239.12 244.433 239.099 244.369C239.077 244.306 239.069 244.239 239.073 244.172L239.189 242.483C239.519 242.568 239.858 242.621 240.199 242.639L240.084 244.24ZM264.362 247.489C264.556 247.329 264.701 247.117 264.782 246.879L264.945 247.001C265.018 247.449 265.037 247.905 264.999 248.357C264.704 248.647 264.349 248.87 263.959 249.009C263.569 249.148 263.153 249.201 262.74 249.165C261.857 249.217 260.988 248.923 260.319 248.344C260.19 248.215 260.237 247.591 260.258 247.36C260.258 247.265 260.258 247.177 260.258 247.096C260.258 247.014 260.258 246.865 260.61 246.702C260.704 247.007 260.88 247.279 261.12 247.489C261.359 247.699 261.653 247.837 261.967 247.889C262.228 247.948 262.494 247.978 262.761 247.977C263.335 248.004 263.9 247.832 264.362 247.489ZM239.08 241.316C239.106 240.754 239.349 240.224 239.758 239.837C240.131 239.607 240.694 239.783 241.244 239.953L241.644 240.075L242.736 240.36L253.508 243.168C258.358 244.423 261.255 245.203 261.648 245.298H261.743C262.22 245.348 262.681 245.493 263.1 245.725C263.342 245.843 263.55 246.02 263.704 246.241L263.744 246.322C263.751 246.358 263.751 246.395 263.744 246.431C263.748 246.48 263.739 246.529 263.717 246.573C263.696 246.617 263.663 246.654 263.622 246.682C263.4 246.812 263.154 246.896 262.899 246.928C262.643 246.959 262.384 246.938 262.137 246.865C261.984 246.85 261.84 246.787 261.725 246.686C261.609 246.585 261.528 246.451 261.492 246.302C261.433 246.084 261.292 245.897 261.099 245.78L260.644 245.637C258.915 245.128 252.925 243.514 252.857 243.494C251.27 243.059 243.326 240.909 242.682 240.78C242.567 240.771 242.451 240.771 242.336 240.78C242.126 240.775 241.918 240.823 241.731 240.92C241.545 241.017 241.387 241.161 241.271 241.337C241.223 241.407 241.166 241.47 241.101 241.526H240.925C240.547 241.577 240.164 241.577 239.786 241.526H239.677C239.44 241.499 239.21 241.427 238.999 241.316H239.08ZM234.542 246.946C234.602 247.065 234.612 247.203 234.572 247.33C234.531 247.457 234.443 247.563 234.325 247.625C231.957 248.866 227.921 249.51 223.777 249.51C220.606 249.555 217.447 249.127 214.402 248.242C214.274 248.201 214.166 248.112 214.104 247.992C214.042 247.872 214.029 247.733 214.07 247.604C214.112 247.475 214.203 247.368 214.324 247.306C214.444 247.243 214.585 247.231 214.714 247.272C220.473 249.124 229.78 248.859 233.85 246.723C233.969 246.671 234.103 246.665 234.226 246.706C234.348 246.748 234.452 246.833 234.515 246.946H234.542ZM219.388 245.312C219.408 245.179 219.48 245.059 219.588 244.979C219.696 244.899 219.831 244.865 219.964 244.884C222.409 245.315 224.913 245.265 227.338 244.735C227.403 244.719 227.471 244.716 227.537 244.726C227.603 244.736 227.667 244.759 227.724 244.794C227.781 244.828 227.831 244.874 227.871 244.928C227.911 244.982 227.939 245.043 227.955 245.108C227.971 245.173 227.974 245.241 227.964 245.307C227.954 245.373 227.931 245.437 227.897 245.494C227.862 245.551 227.816 245.601 227.762 245.641C227.708 245.681 227.647 245.709 227.582 245.725C226.249 246.041 224.882 246.196 223.512 246.187C222.272 246.178 221.034 246.08 219.808 245.895C219.676 245.872 219.558 245.798 219.48 245.689C219.401 245.58 219.368 245.444 219.388 245.312ZM233.022 234.384C233.022 237.619 228.579 240.244 223.092 240.244C217.604 240.244 213.161 237.619 213.161 234.384C213.161 231.148 217.604 228.523 223.092 228.523C228.579 228.523 233.022 231.141 233.022 234.377V234.384ZM205.889 224.242C208.487 222.723 211.316 221.746 213.391 221.638C213.526 221.635 213.657 221.685 213.756 221.776C213.856 221.866 213.917 221.992 213.927 222.126C213.93 222.193 213.92 222.259 213.896 222.322C213.873 222.385 213.838 222.443 213.793 222.492C213.747 222.541 213.693 222.581 213.632 222.609C213.571 222.637 213.506 222.652 213.439 222.655C211.526 222.757 208.826 223.7 206.398 225.124C206.321 225.168 206.235 225.192 206.147 225.192C206.034 225.193 205.925 225.157 205.835 225.089C205.746 225.021 205.681 224.925 205.652 224.817C205.622 224.708 205.63 224.593 205.673 224.489C205.715 224.385 205.792 224.298 205.889 224.242ZM204.342 229.031C207.056 226.433 212.13 223.747 217.231 223.605C217.365 223.603 217.495 223.654 217.593 223.746C217.69 223.839 217.748 223.966 217.753 224.1C217.756 224.167 217.745 224.234 217.721 224.297C217.698 224.36 217.662 224.417 217.616 224.466C217.57 224.514 217.514 224.553 217.453 224.58C217.391 224.607 217.325 224.621 217.258 224.622C212.448 224.751 207.558 227.376 205.048 229.764C204.956 229.855 204.831 229.906 204.702 229.907C204.599 229.908 204.498 229.878 204.413 229.821C204.327 229.764 204.261 229.682 204.223 229.587C204.184 229.491 204.176 229.386 204.199 229.286C204.221 229.186 204.274 229.095 204.349 229.025L204.342 229.031Z" fill="#373737"/>
<path d="M196.216 77.8299C196.107 77.7629 195.976 77.7396 195.85 77.7647C195.724 77.7899 195.613 77.8616 195.538 77.9656C194.529 79.4688 193.6 81.0244 192.756 82.6258C192.702 82.7446 192.695 82.8799 192.737 83.0036C192.78 83.1273 192.868 83.2299 192.984 83.2901C193.1 83.3503 193.235 83.3635 193.361 83.327C193.486 83.2905 193.593 83.2069 193.659 83.0938C194.482 81.5297 195.388 80.0104 196.372 78.5422C196.409 78.4854 196.435 78.4218 196.447 78.355C196.46 78.2882 196.459 78.2195 196.444 78.1531C196.43 78.0867 196.402 78.0239 196.363 77.9684C196.324 77.9129 196.274 77.8658 196.216 77.8299Z" fill="#373737"/>
<path d="M196.528 87.069C196.577 87.0764 196.628 87.0764 196.677 87.069C198.37 86.4546 199.98 85.6345 201.473 84.627C201.532 84.5914 201.584 84.5441 201.624 84.488C201.664 84.4319 201.693 84.3681 201.708 84.3005C201.723 84.233 201.724 84.1631 201.711 84.0952C201.698 84.0273 201.671 83.9627 201.632 83.9054C201.594 83.8482 201.544 83.7994 201.485 83.7621C201.427 83.7249 201.362 83.6999 201.293 83.6887C201.225 83.6775 201.155 83.6804 201.088 83.6971C201.021 83.7138 200.958 83.744 200.903 83.7859C199.492 84.7318 197.973 85.5061 196.379 86.0922C196.26 86.1266 196.159 86.2027 196.092 86.3064C196.026 86.4101 196 86.5343 196.018 86.656C196.036 86.7777 196.098 86.8887 196.191 86.9684C196.285 87.0481 196.405 87.0911 196.528 87.0894V87.069Z" fill="#373737"/>
<path d="M199.92 93.7507C200.883 93.866 203.61 94.2934 203.637 94.3001H203.718C203.846 94.2998 203.969 94.2515 204.062 94.1648C204.156 94.0781 204.214 93.9594 204.224 93.8322C204.234 93.705 204.196 93.5786 204.118 93.4781C204.039 93.3775 203.926 93.3102 203.8 93.2894C203.684 93.2894 201.025 92.8553 200.042 92.74C199.975 92.7315 199.908 92.7364 199.843 92.7544C199.779 92.7725 199.718 92.8033 199.666 92.845C199.613 92.8867 199.57 92.9385 199.538 92.9974C199.505 93.0563 199.485 93.1209 199.479 93.1877C199.463 93.3206 199.501 93.4543 199.584 93.5597C199.666 93.6651 199.787 93.7337 199.92 93.7507Z" fill="#373737"/>
<path d="M257.829 96.2603C257.949 96.2591 258.064 96.2159 258.155 96.1382C263.107 91.9732 264.429 85.9632 261.886 79.234C261.832 79.1162 261.736 79.0232 261.617 78.9738C261.497 78.9245 261.363 78.9225 261.242 78.9683C261.121 79.014 261.022 79.1042 260.965 79.2203C260.909 79.3365 260.898 79.4699 260.936 79.5936C263.358 85.9835 262.171 91.4373 257.504 95.3581C257.425 95.4254 257.369 95.5152 257.342 95.6153C257.316 95.7155 257.321 95.8213 257.356 95.9187C257.392 96.016 257.456 96.1002 257.54 96.1601C257.625 96.2199 257.726 96.2525 257.829 96.2535V96.2603Z" fill="#373737"/>
<path d="M215.141 150.039C215.081 150.068 215.028 150.109 214.983 150.16C214.939 150.21 214.905 150.268 214.883 150.331C214.861 150.395 214.852 150.462 214.857 150.528C214.861 150.595 214.878 150.661 214.907 150.721C214.937 150.781 214.978 150.835 215.028 150.879C215.078 150.923 215.136 150.957 215.2 150.979C215.263 151.001 215.33 151.01 215.397 151.006C215.464 151.001 215.529 150.984 215.589 150.955C238.463 139.769 262.354 135.523 265.868 139.898C266.155 140.242 266.359 140.646 266.466 141.081C266.573 141.516 266.58 141.97 266.485 142.408C265.569 147.332 255.204 153.39 255.096 153.451C254.998 153.507 254.922 153.594 254.879 153.698C254.836 153.802 254.829 153.917 254.858 154.025C254.888 154.134 254.952 154.229 255.042 154.297C255.131 154.365 255.241 154.402 255.353 154.401C255.444 154.402 255.533 154.378 255.611 154.333C256.052 154.075 266.464 147.977 267.489 142.598C267.612 142.015 267.602 141.413 267.46 140.835C267.318 140.257 267.047 139.719 266.668 139.26C262.381 133.935 237.343 139.172 215.141 150.039Z" fill="#373737"/>
<path d="M283.837 191.194C282.399 189.925 277.582 185.876 275.866 187.056C274.903 187.734 274.856 190.129 274.856 194.009C274.856 196.186 274.856 199.822 274.286 200.114C273.716 200.406 271.857 198.567 270.67 197.4C268.879 195.616 267.733 194.538 266.777 194.687C265.42 194.897 265.596 197.265 266.024 201.138C266.18 202.542 266.397 204.469 266.241 204.828C265.929 204.93 264.124 204.15 259.559 199.341C259.519 199.279 259.465 199.226 259.403 199.187C259.34 199.147 259.27 199.122 259.196 199.113C259.123 199.104 259.049 199.11 258.978 199.133C258.908 199.155 258.843 199.193 258.788 199.243C258.734 199.293 258.691 199.354 258.663 199.422C258.634 199.49 258.621 199.564 258.624 199.638C258.627 199.712 258.646 199.784 258.68 199.85C258.714 199.916 258.761 199.973 258.82 200.019C262.496 203.872 264.986 205.825 266.227 205.825H266.39C266.548 205.802 266.698 205.739 266.826 205.643C266.954 205.547 267.056 205.421 267.123 205.276C267.414 204.666 267.285 203.329 267.028 201.016C266.831 199.286 266.471 196.057 266.926 195.684C267.428 195.603 268.961 197.116 269.944 198.113C271.789 199.951 273.39 201.504 274.632 201.077C275.873 200.65 275.866 198.228 275.86 193.995C275.86 191.716 275.859 188.27 276.429 187.89C277.108 187.402 280.499 189.593 283.152 191.96C283.252 192.05 283.385 192.096 283.52 192.089C283.654 192.081 283.781 192.02 283.871 191.92C283.961 191.819 284.007 191.686 283.999 191.552C283.992 191.417 283.931 191.29 283.83 191.2L283.837 191.194Z" fill="#373737"/>
<path d="M269.924 235.733C270.016 235.734 270.106 235.709 270.185 235.662C270.264 235.615 270.329 235.548 270.372 235.467C270.416 235.387 270.437 235.296 270.434 235.204C270.43 235.112 270.402 235.023 270.351 234.947C270.297 234.858 264.585 226.21 259.566 221.149C259.519 221.099 259.463 221.059 259.401 221.031C259.338 221.003 259.271 220.988 259.203 220.987C259.134 220.986 259.066 220.999 259.003 221.024C258.94 221.05 258.882 221.088 258.834 221.136C258.786 221.185 258.747 221.242 258.722 221.305C258.696 221.369 258.684 221.437 258.685 221.505C258.686 221.573 258.701 221.641 258.729 221.703C258.757 221.765 258.797 221.822 258.847 221.868C263.799 226.861 269.449 235.435 269.503 235.51C269.55 235.578 269.613 235.635 269.686 235.674C269.759 235.713 269.841 235.733 269.924 235.733Z" fill="#373737"/>
<path d="M271.023 230.225C270.972 230.181 270.913 230.147 270.849 230.125C270.785 230.103 270.718 230.094 270.65 230.099C270.583 230.103 270.517 230.121 270.456 230.151C270.396 230.181 270.342 230.222 270.297 230.273C270.253 230.324 270.218 230.383 270.197 230.447C270.175 230.511 270.166 230.578 270.171 230.646C270.175 230.713 270.193 230.779 270.222 230.839C270.252 230.9 270.294 230.954 270.345 230.999C271.986 232.416 275.188 237.233 275.222 237.28C275.268 237.351 275.332 237.409 275.406 237.45C275.481 237.49 275.564 237.511 275.649 237.511C275.748 237.512 275.845 237.483 275.927 237.429C276.032 237.355 276.105 237.244 276.132 237.118C276.158 236.992 276.136 236.861 276.07 236.751C275.948 236.493 272.766 231.745 271.023 230.225Z" fill="#373737"/>
<path d="M274.937 248.764V248.724C274.928 248.702 274.917 248.681 274.903 248.663C274.909 248.645 274.909 248.626 274.903 248.608C274.733 248.405 258.284 227.743 255.659 224.297C253.033 220.851 244.839 211.469 243.306 209.99C243.251 209.938 243.184 209.898 243.111 209.875C243.038 209.851 242.961 209.844 242.885 209.855C242.526 209.902 220.256 212.989 203.074 215.383C203.253 212.614 203.59 209.858 204.085 207.128C205.018 201.687 205.638 196.197 205.943 190.685C206.703 190.223 207.389 189.649 207.978 188.982C208.033 188.911 208.068 188.827 208.08 188.738C208.08 188.738 208.338 186.886 208.819 184.363C211.594 169.826 211.017 161.754 210.461 153.946L210.346 152.298C210.074 148.357 209.627 144.89 209.233 141.831C209.152 141.207 209.077 140.61 209.002 140.033C211.127 137.158 213.419 134.41 215.867 131.805C217.265 130.347 219.747 127.884 222.651 125.022C227.901 119.826 234.433 113.361 239.087 108.301C243.555 103.495 247.58 98.2962 251.114 92.7668C251.555 92.0885 251.975 91.4101 252.09 91.3288C255.387 88.8121 254.031 86.2819 252.158 82.7749C251.745 82.0016 251.276 81.1198 250.802 80.1837C248.339 75.069 236.428 58.6261 231.856 52.7517C227.284 46.8773 222.271 40.2906 221.104 36.7836C222.418 34.8296 222.906 32.4348 222.461 30.1223C221.972 26.9952 221.029 25.5774 219.598 23.4271L219.13 22.7488C218.335 21.7721 217.753 20.6399 217.421 19.4249C217.414 18.954 217.432 18.483 217.475 18.014C217.536 17.0032 217.624 15.6126 217.59 14.2628C217.56 12.2462 217.36 10.2357 216.993 8.25268C216.769 7.14699 216.179 5.76318 215.264 5.53932C215.059 5.48523 214.842 5.49309 214.642 5.56191C214.441 5.63073 214.266 5.75743 214.137 5.92598C213.459 6.71963 213.425 8.34086 213.398 10.2063C213.398 10.6065 213.398 11.0067 213.398 11.4002C213.337 13.0978 213.126 14.7866 212.767 16.447C212.672 16.2624 212.588 16.0721 212.516 15.8772C212.373 14.8065 212.357 13.7227 212.469 12.6483C212.516 12.2956 212.577 11.97 212.638 11.5833C212.932 10.0174 213.084 8.42818 213.093 6.83495C213.093 5.07127 212.679 3.72816 211.879 3.15836C211.657 2.99781 211.392 2.90796 211.119 2.90059C210.979 2.57318 210.742 2.29631 210.441 2.10693C210.253 2.00401 210.038 1.96057 209.825 1.98238C209.611 2.00418 209.41 2.09019 209.247 2.22904C208.277 2.99556 206.167 6.9774 205.801 7.84567C205.367 8.86318 205.217 10.1385 205.183 13.3673C205.082 13.4006 204.986 13.4486 204.898 13.5098C204.716 13.6638 204.572 13.8577 204.476 14.0765C204.381 14.2953 204.338 14.5331 204.349 14.7715C204.204 14.476 204.103 14.1605 204.051 13.8354L204.017 13.6319C203.509 10.5677 202.752 7.5503 201.751 4.61C200.435 0.702776 199.038 0.0447878 198.359 0.00408747C198.129 -0.015391 197.899 0.0350559 197.698 0.148831C197.497 0.262605 197.335 0.434401 197.233 0.641722C196.847 1.44894 196.901 1.8763 197.579 7.08593L197.742 8.34086C198.42 13.5709 198.875 17.0304 198.848 18.7059C198.848 18.9433 198.848 19.1875 198.848 19.4249C198.606 21.4539 199.163 23.4973 200.401 25.1229C202.857 28.6174 205.091 32.2627 207.09 36.0374C208.765 39.3545 214.015 48.6274 216.2 52.3718C218.384 56.1162 225.018 68.9436 226.856 72.9729C227.223 73.7734 227.691 74.7705 228.213 75.8694C229.963 79.6274 233.226 86.6143 233.138 87.564C233.022 88.629 228.6 92.6515 224.692 96.1924C223.594 97.1896 222.474 98.2274 221.375 99.2246C215.908 104.271 209.443 107.955 206.649 109.088L205.4 109.576C202.012 110.785 198.833 112.515 195.978 114.704C193.943 116.237 189.69 119.453 187.974 118.333C187.024 117.655 184.786 107.222 185.939 100.5C186.318 100.621 186.714 100.683 187.112 100.683C187.491 100.682 187.868 100.627 188.232 100.52C188.974 100.311 189.645 99.903 190.172 99.3399C190.725 98.7525 191.124 98.037 191.332 97.2574C191.489 96.5774 191.551 95.8788 191.515 95.1817V95.0393C191.382 92.0536 190.66 89.1237 189.392 86.4176C189.378 86.3749 189.36 86.3339 189.337 86.2955V86.2616C188.868 85.2838 188.235 84.3936 187.465 83.6296C186.891 83.0775 186.176 82.6937 185.398 82.5203C184.621 82.3468 183.811 82.3903 183.056 82.646C182.638 82.7871 182.243 82.9882 181.882 83.243C178.097 76.0526 173.064 71.7655 167 70.4834C158.86 62.9267 139.731 59.6707 124 66.8475C107.774 74.2346 102.334 83.1276 103.935 99.5841C104.027 100.585 103.913 101.594 103.599 102.548C103.285 103.503 102.778 104.382 102.11 105.133C99.3152 108.484 93.7392 110.729 86.8202 111.299C75.5123 112.228 64.8353 113.11 60.365 126.568C60.3307 126.67 60.3293 126.78 60.3609 126.882C60.3926 126.984 60.4558 127.074 60.5414 127.138C60.6278 127.202 60.7324 127.237 60.8399 127.237C60.9473 127.237 61.0519 127.202 61.1383 127.138C64.6485 124.822 68.8195 123.717 73.016 123.991C77.4117 124.194 78.8769 125.51 78.8972 125.87C78.9176 126.229 77.2489 126.29 76.1839 126.372C72.7922 126.636 67.1145 127.05 62.7935 131.622C62.7163 131.704 62.6685 131.809 62.6575 131.921C62.6465 132.033 62.6729 132.145 62.7326 132.241C62.7923 132.336 62.8819 132.409 62.9874 132.448C63.0929 132.487 63.2084 132.49 63.3158 132.456C63.6957 132.334 67.2095 131.371 74.6847 134.831C81.19 137.849 86.1419 139.884 92.3215 139.884C94.4122 139.872 96.4972 139.664 98.5487 139.26C107.109 137.639 114.462 131.69 118.22 123.34C119.692 120.09 121.069 116.441 122.399 112.907C123.871 109.013 125.391 104.99 127.005 101.585C129.637 96.05 136.068 87.218 142.478 86.2616C142.064 91.0922 143.004 95.9425 145.191 100.269C144.588 100.9 144.24 101.731 144.214 102.603C144.045 105.228 145.035 107.901 147.647 111.821C149.621 114.786 151.418 115.518 152.721 115.518C153.378 115.519 154.022 115.328 154.573 114.969C154.954 114.711 155.291 114.392 155.57 114.026C156.74 115.543 158.017 116.976 159.389 118.313C161.559 120.348 164.286 122.627 167.393 123.916C165.718 124.594 163.601 125.273 161.376 125.951C157.564 127.131 153.623 128.359 151.201 129.892C146.329 132.849 142.182 136.862 139.066 141.634C136.996 144.736 135.107 147.954 133.408 151.273C132.581 152.84 131.794 154.326 130.966 155.676C128.721 159.352 125.316 163.992 120.384 170.647C117.576 174.425 115.778 177.023 114.462 178.923C113.506 180.279 112.868 181.222 112.366 181.839C111.227 183.386 109.77 184.672 108.093 185.611L107.822 185.74C106.01 186.595 101.771 188.602 91.148 197.997C86.9084 201.755 84.0187 204.428 81.6987 206.572C78.5241 209.509 76.4213 211.449 73.3009 213.925L73.2331 213.966C70.6554 213.287 69.1156 212.806 69.102 212.806C69.0297 212.783 68.9531 212.776 68.878 212.787C68.8029 212.797 68.7311 212.825 68.6679 212.867C57.9094 220.091 20.0989 241.927 19.4816 242.286C19.4183 242.319 19.3628 242.365 19.3188 242.422C19.318 242.438 19.318 242.453 19.3188 242.469V242.517C19.2887 242.58 19.2725 242.65 19.2713 242.72C19.2713 242.72 19.2713 242.72 19.2713 242.72C19.3591 247.303 20.0014 251.859 21.1842 256.287C21.2171 256.401 21.2892 256.499 21.3877 256.565C46.9407 273.483 80.1114 281.399 125.777 281.467H126.652C185.864 281.467 246.304 271.122 272.78 264.983C272.878 264.96 272.967 264.909 273.036 264.835C273.105 264.762 273.15 264.669 273.166 264.57C273.533 262.297 274.788 253.126 275.073 248.907C275.076 248.873 275.076 248.839 275.073 248.805C275.034 248.776 274.986 248.761 274.937 248.764ZM242.716 210.866C244.547 212.731 252.267 221.583 254.79 224.887C257.192 228.041 271.111 245.522 273.655 248.717C258.345 255.778 197.681 263.186 191.42 263.939C191.115 261.015 189.541 246.424 187.513 237.334C185.702 229.235 184.426 221.102 184.121 219.019L188.252 218.429L190.029 218.178L202.606 216.421L242.716 210.866ZM155.828 167.662C155.997 168.13 156.173 168.591 156.35 169.019C158.019 173.055 158.965 177.353 159.145 181.717C159.466 185.846 158.575 189.979 156.58 193.609C156.542 193.669 156.516 193.738 156.506 193.809C156.496 193.88 156.501 193.953 156.521 194.022C156.54 194.092 156.575 194.156 156.621 194.211C156.668 194.266 156.726 194.31 156.791 194.341C157.374 194.619 157.951 194.87 158.514 195.121C157.958 196.017 156.384 198.242 152.633 201.654C151.412 202.766 149.539 204.231 147.369 205.927C141.494 210.526 133.476 216.781 128.945 223.293C125.601 223.293 122.162 223.245 118.627 223.157L118.505 221.407C118.505 221.407 118.505 221.407 118.505 221.366C118.507 221.341 118.507 221.316 118.505 221.292C118.508 221.269 118.508 221.246 118.505 221.224V221.183C118.491 221.156 118.47 221.132 118.444 221.115L118.397 221.074H118.336H118.254H118.214C118.182 221.067 118.15 221.067 118.119 221.074C107.591 221.074 96.0592 219.195 87.8716 217.527C90.3815 215.845 93.9088 213.938 98.6843 211.361L101.778 209.692C115.093 202.474 119.882 199.68 121.999 197.346C123.408 195.66 124.73 193.903 125.96 192.082C126.943 190.605 128.012 189.187 129.162 187.836C130.797 186.034 132.328 184.141 133.748 182.165C134.528 181.141 135.423 179.974 136.461 178.624C138.313 176.223 140.694 173.197 143.244 169.941C146.195 166.177 149.241 162.276 152.015 158.688C152.992 157.419 153.765 156.388 154.389 155.527C153.841 159.628 154.336 163.802 155.828 167.662ZM178.118 217.113L179.474 211.686C182.527 212.019 185.627 212.29 188.734 212.365L187.709 217.5L186.99 217.608C184.015 217.725 181.035 217.559 178.091 217.113H178.118ZM183.036 218.605L182.805 219.779C163.812 221.956 148.21 223.286 130.193 223.327C134.704 217.167 142.342 211.184 147.993 206.762C149.248 205.778 150.401 204.876 151.384 204.048C159.602 212.874 170.967 218.104 183.015 218.605H183.036ZM177.107 216.95C173.882 216.397 170.729 215.487 167.705 214.237L169.326 209.624C172.24 210.593 175.248 211.25 178.301 211.585H178.45L177.107 216.95ZM166.769 213.803C164.405 212.754 162.135 211.503 159.986 210.065L161.715 205.832C163.776 207.241 166.007 208.381 168.356 209.224L166.769 213.803ZM159.138 209.475L158.765 209.21L160.637 205.011L160.888 205.201L159.138 209.475ZM157.924 208.593C155.861 207.042 153.938 205.312 152.178 203.424C152.592 203.078 152.979 202.746 153.311 202.441C154.349 201.498 155.217 200.643 155.956 199.876C157.021 201.543 158.324 203.044 159.823 204.333L157.924 208.593ZM117.63 223.727C117.639 223.853 117.694 223.972 117.786 224.06C117.877 224.148 117.999 224.199 118.126 224.202C121.945 224.303 125.587 224.358 129.182 224.358H129.291C147.877 224.358 163.771 223.001 183.287 220.756H183.368C183.89 224.039 185.037 230.822 186.549 237.585C187.669 242.598 188.646 249.307 189.351 254.781C190.056 260.255 190.477 264.488 190.484 264.563L190.525 265.302C162.475 268.314 131.136 270.776 84.5206 265.472L84.4596 264.651C106.56 240.807 115.114 227.519 117.603 223.272L117.63 223.727ZM188.808 217.35L189.758 212.412H190.212L189.5 217.249L188.822 217.344L188.808 217.35ZM190.545 217.106L191.223 212.439C194.973 212.476 198.715 212.099 202.382 211.313C202.188 212.701 202.063 214.098 202.009 215.499L190.538 217.106H190.545ZM203.047 206.931C202.863 208.084 202.694 209.176 202.538 210.221C194.832 212.039 186.393 211.449 178.409 210.533C168.167 209.353 160.467 205.296 156.669 199.103C157.711 198.015 158.64 196.824 159.443 195.549C164.178 197.626 169.298 198.681 174.468 198.642C177.61 198.607 180.746 198.367 183.856 197.923C192.485 196.783 200.476 193.853 204.851 191.289C204.525 196.534 203.916 201.758 203.026 206.938L203.047 206.931ZM209.226 151.206C209.226 151.579 209.287 151.945 209.314 152.325L209.43 153.98C209.986 161.72 210.556 169.724 207.802 184.132C207.395 186.276 207.123 187.931 207.076 188.413C204.939 190.895 194.737 195.474 183.734 196.919C172.494 198.398 166.321 197.645 157.72 193.676C159.621 189.975 160.462 185.819 160.149 181.67C159.963 177.198 158.989 172.793 157.272 168.659C157.103 168.205 156.926 167.75 156.757 167.303C154.993 162.899 154.584 158.068 155.583 153.431C156.265 152.374 156.875 151.273 157.408 150.134C157.768 149.395 158.181 148.56 158.765 147.421C160.8 143.69 163.316 139.81 166.226 135.312L167.529 133.311C168.158 134.254 168.947 135.078 169.862 135.746C171.15 136.672 172.699 137.166 174.285 137.157C175.303 137.148 176.313 136.977 177.277 136.649C183.314 134.661 187.411 131.093 189.236 126.473C199.241 136.452 205.407 144.11 209.206 151.212L209.226 151.206ZM211.044 7.33692C211.254 6.73353 211.404 6.11099 211.492 5.47828C211.541 5.02739 211.541 4.57249 211.492 4.1216C211.971 4.91332 212.181 5.83932 212.089 6.76033C212.084 8.29888 211.939 9.83376 211.655 11.3459C211.587 11.7325 211.526 12.0853 211.478 12.4516C211.344 13.685 211.378 14.9311 211.58 16.1553C211.76 16.6294 211.987 17.084 212.258 17.512H210.502C210.268 15.8987 210.144 14.2715 210.128 12.6415C210.162 10.8409 210.464 9.0554 211.024 7.34371L211.044 7.33692ZM206.703 8.21876C207.157 7.15377 209.172 3.53144 209.844 3.00234C209.864 2.98485 209.887 2.97107 209.911 2.96164C210.108 2.99556 210.59 3.89096 210.481 5.39687C210.395 5.95743 210.259 6.50911 210.074 7.04524C209.462 8.87048 209.131 10.7779 209.091 12.7026C209.094 13.9539 209.169 15.2041 209.314 16.447C208.784 15.3526 207.963 14.4255 206.94 13.7676C206.699 13.6154 206.442 13.4903 206.174 13.3945C206.181 10.3284 206.309 9.08704 206.703 8.21876ZM190.294 119.31C192.214 118.7 194.479 117.106 196.582 115.525C199.365 113.393 202.464 111.708 205.767 110.533L207.029 110.037C209.884 108.877 216.525 105.119 222.06 99.9776C223.159 98.9668 224.279 97.9425 225.371 96.9522C230.872 91.9528 233.992 89.0631 234.142 87.6793C234.25 86.6618 232.541 82.7613 229.129 75.4692C228.62 74.3703 228.152 73.3799 227.772 72.5795C225.873 68.4213 219.15 55.621 216.959 51.863C214.768 48.1051 209.545 38.8864 207.876 35.5829C205.849 31.761 203.584 28.0703 201.093 24.5328C200.546 23.8197 200.144 23.0058 199.911 22.1375C199.679 21.2693 199.619 20.3636 199.736 19.4724C199.736 19.2214 199.736 18.9704 199.736 18.7194C199.736 16.9693 199.309 13.4827 198.624 8.20519L198.461 6.95027C197.823 2.06623 197.783 1.59818 198.027 1.07586C198.027 1.02837 198.108 1.01481 198.176 1.01481C198.631 1.01481 199.669 1.89665 200.693 4.9356C201.676 7.82496 202.42 10.7902 202.918 13.8015L202.952 14.0118C203.128 15.0632 203.521 15.6398 204.566 17.1796L204.668 17.3356L204.831 17.9393C203.949 18.0275 203.189 18.1225 202.633 18.2243C202.506 18.2451 202.392 18.3129 202.314 18.4142C202.235 18.5155 202.198 18.6427 202.209 18.7705C202.22 18.8982 202.279 19.017 202.374 19.1032C202.469 19.1893 202.593 19.2364 202.721 19.235H202.816C203.386 19.1332 204.173 19.0315 205.095 18.9433C205.596 20.6364 205.959 22.3673 206.181 24.119C206.193 24.2522 206.256 24.3754 206.357 24.4627C206.459 24.5501 206.59 24.5946 206.723 24.5871C206.79 24.5819 206.855 24.5636 206.915 24.5332C206.975 24.5027 207.028 24.4608 207.072 24.4097C207.115 24.3586 207.148 24.2995 207.169 24.2356C207.189 24.1718 207.197 24.1045 207.191 24.0376C206.95 22.1499 206.556 20.2851 206.011 18.4617L205.957 18.2582C205.76 17.5798 205.584 16.9015 205.441 16.2706C205.116 14.914 205.292 14.412 205.387 14.3442C205.482 14.2763 205.713 14.2899 206.33 14.6698C207.587 15.5604 208.503 16.8522 208.928 18.3328C208.969 18.4549 209.009 18.577 209.05 18.7059C209.574 20.2036 210.498 21.5292 211.723 22.5385C216.132 25.8013 218.024 29.6814 217.346 34.0702C217.335 34.1366 217.338 34.2045 217.354 34.2699C217.37 34.3352 217.398 34.3968 217.438 34.4511C217.478 34.5053 217.528 34.5511 217.585 34.5859C217.643 34.6207 217.707 34.6437 217.773 34.6536H217.855C217.976 34.6535 218.092 34.6105 218.184 34.5322C218.276 34.4539 218.337 34.3455 218.357 34.2263C219.103 29.4304 217.075 25.2179 212.34 21.7109C211.362 20.8832 210.603 19.828 210.128 18.638C211.207 18.638 212.238 18.5973 213.134 18.6041C213.853 18.6041 214.49 18.6041 214.992 18.6584C215.127 18.6584 215.257 18.6048 215.352 18.5094C215.447 18.414 215.501 18.2846 215.501 18.1496C215.501 18.0147 215.447 17.8853 215.352 17.7899C215.257 17.6945 215.127 17.6409 214.992 17.6409C214.531 17.6409 213.975 17.5934 213.357 17.5866C213.904 15.5769 214.209 13.5092 214.266 11.4273C214.266 11.0271 214.266 10.6201 214.266 10.2131C214.266 8.75465 214.307 7.0995 214.755 6.58397C214.778 6.55257 214.808 6.52703 214.843 6.50935C215.019 6.50935 215.589 7.18769 215.847 8.45618C216.205 10.3832 216.4 12.3369 216.43 14.2967C216.464 15.5991 216.383 16.9625 216.322 17.9597C216.253 18.532 216.253 19.1104 216.322 19.6827C216.659 21.0015 217.264 22.2369 218.099 23.3118L218.567 23.9901C219.971 26.0998 220.819 27.3818 221.28 30.2715C221.877 34.1449 220.073 36.2477 219.998 36.3359C219.941 36.4003 219.901 36.4784 219.882 36.5626C219.863 36.6469 219.865 36.7346 219.89 36.8175C220.941 40.4263 226.117 47.2503 230.892 53.3689C235.451 59.2094 247.288 75.5642 249.73 80.611C250.191 81.5742 250.666 82.4561 251.087 83.243C253.122 86.9942 253.8 88.595 251.297 90.508C250.823 91.0201 250.415 91.5898 250.083 92.2038C246.613 97.6826 242.659 102.838 238.266 107.609C233.626 112.649 227.1 119.141 221.864 124.296C218.981 127.145 216.498 129.607 215.08 131.079C212.847 133.451 210.743 135.942 208.779 138.541C208.46 135.78 208.317 133.569 208.65 132.117C208.668 132.051 208.672 131.982 208.663 131.915C208.653 131.847 208.63 131.782 208.595 131.723C208.56 131.665 208.514 131.614 208.458 131.573C208.403 131.533 208.341 131.504 208.274 131.489C208.207 131.473 208.138 131.472 208.071 131.483C208.004 131.495 207.94 131.52 207.882 131.557C207.825 131.594 207.776 131.643 207.737 131.699C207.699 131.756 207.672 131.82 207.659 131.887C207.157 134.05 207.585 137.361 208.175 141.933C208.446 144.008 208.738 146.281 208.982 148.757C205.034 142.028 198.963 134.715 189.643 125.402C190.237 123.429 190.458 121.364 190.294 119.31ZM188.462 86.8314C189.678 89.4052 190.37 92.1954 190.497 95.0393C190.409 95.4056 190.219 95.6633 190.023 95.6769C189.575 95.6769 188.51 94.7747 187.309 91.1659C186.258 87.9031 186.739 86.1056 187.235 85.8749C187.486 85.78 187.947 86.0309 188.456 86.8314H188.462ZM183.348 83.6093C183.693 83.4942 184.055 83.4347 184.419 83.4329C185.285 83.4398 186.115 83.7771 186.739 84.3758C186.897 84.5261 187.046 84.6846 187.187 84.8506C187.065 84.8695 186.946 84.9061 186.834 84.9592C185.525 85.5764 185.335 88.2627 186.373 91.4848C187.479 94.8765 188.727 96.7012 190.002 96.7012H190.07C190.191 96.6934 190.309 96.6683 190.423 96.6266C190.396 96.7622 190.369 96.8843 190.341 96.9929C190.194 97.5893 189.896 98.1378 189.475 98.5857C189.055 99.0335 188.526 99.3657 187.94 99.5502C187.241 99.7556 186.491 99.7002 185.83 99.3942L185.735 99.3467C185.476 99.2131 185.236 99.0441 185.023 98.8447C184.846 98.6761 184.687 98.4897 184.548 98.2885C182.927 96.0703 181.089 90.4469 180.967 87.3537C180.948 87.016 180.963 86.6773 181.014 86.343C181.12 85.72 181.392 85.1371 181.801 84.6559C182.211 84.1747 182.743 83.813 183.341 83.6093H183.348ZM143.482 85.7528C143.805 83.1094 144.826 80.5995 146.439 78.481C147.721 76.8647 149.318 75.5261 151.133 74.5467C156.513 71.562 161.865 70.4766 166.613 71.4467C172.515 72.6338 177.372 76.8394 181.048 83.9281C180.494 84.5578 180.123 85.3273 179.976 86.153C179.976 86.153 179.976 86.2209 179.976 86.2548C178.009 81.7913 173.729 75.1436 165.419 73.7123C152.666 71.5213 143.502 81.364 145.381 92.0274C145.822 94.5047 146.466 96.9414 147.308 99.3128C146.837 99.3523 146.377 99.4764 145.951 99.6791C143.792 95.3754 142.934 90.5362 143.482 85.7528ZM153.935 114.121C153.182 114.616 151.12 115.335 148.413 111.258C145.34 106.646 145.022 104.326 145.144 102.671C145.137 102.359 145.194 102.05 145.31 101.761C145.427 101.472 145.6 101.209 145.821 100.989C146.042 100.769 146.305 100.596 146.594 100.481C146.883 100.365 147.193 100.309 147.504 100.317C147.606 100.317 147.728 100.317 147.837 100.317C148.333 101.951 148.968 103.54 149.736 105.065C151.189 107.928 152.898 110.652 154.844 113.205C154.601 113.564 154.292 113.875 153.935 114.121ZM168.716 124.418C169.861 124.774 171.051 124.959 172.25 124.968C174.262 124.954 176.236 124.422 177.982 123.421C184.711 119.704 184.148 110.343 183.884 105.845C183.875 105.71 183.814 105.584 183.713 105.494C183.612 105.405 183.479 105.359 183.344 105.367C183.209 105.375 183.083 105.436 182.994 105.538C182.904 105.639 182.858 105.771 182.866 105.906C183.124 110.193 183.653 119.127 177.494 122.532C172.23 125.442 166.64 123.889 160.02 117.574C158.533 116.12 157.159 114.555 155.909 112.893L155.875 112.846C153.884 110.26 152.14 107.494 150.665 104.583C149.01 101.239 148.169 98.3496 148.169 95.9957C148.156 92.346 149.41 88.8047 151.717 85.9767C152.131 87.9031 153.637 91.8036 159.179 93.7233C166.416 96.2399 173.715 93.9132 177.344 91.9121C178.097 94.2184 179.527 96.2442 181.448 97.7255C182.014 98.1576 182.704 98.3955 183.416 98.4038C183.524 98.5802 183.633 98.743 183.741 98.8922C183.923 99.1369 184.127 99.364 184.352 99.5706C184.561 99.758 184.788 99.9239 185.03 100.066C183.829 106.625 185.824 118.137 187.486 119.188C187.904 119.443 188.386 119.573 188.876 119.561C189.04 119.56 189.203 119.549 189.365 119.527C189.656 124.181 188.293 131.982 177.066 135.678C174.604 136.493 172.42 136.235 170.561 134.912C168.044 133.121 166.362 129.431 166.213 125.415C167.095 125.11 167.963 124.771 168.716 124.418ZM73.0703 215.207C73.3626 215.081 73.6383 214.919 73.8911 214.725C77.0453 212.222 79.155 210.269 82.3499 207.318C84.6631 205.174 87.546 202.508 91.7788 198.757C102.293 189.457 106.445 187.49 108.215 186.656L108.493 186.527C110.308 185.518 111.883 184.13 113.113 182.457C113.642 181.778 114.286 180.876 115.256 179.472C116.565 177.579 118.356 174.988 121.158 171.223C126.11 164.542 129.522 159.888 131.794 156.178C132.635 154.821 133.429 153.309 134.263 151.721C135.94 148.444 137.804 145.267 139.846 142.204C142.884 137.547 146.93 133.632 151.683 130.747C153.976 129.289 157.856 128.081 161.6 126.921C162.828 126.541 164.022 126.168 165.141 125.795C165.259 128.094 165.89 130.337 166.986 132.361L165.419 134.742C162.475 139.253 159.938 143.154 157.896 146.952C157.266 148.112 156.852 148.987 156.492 149.707C156.268 150.168 156.065 150.582 155.814 151.002C155.823 149.385 155.625 147.773 155.224 146.206C155.188 146.076 155.102 145.965 154.984 145.898C154.866 145.831 154.727 145.814 154.596 145.85C154.466 145.886 154.355 145.972 154.288 146.09C154.222 146.208 154.204 146.347 154.24 146.478C154.8 148.627 154.92 150.867 154.593 153.064C153.847 154.204 152.782 155.676 151.025 157.948C148.257 161.537 145.205 165.41 142.261 169.195C139.717 172.444 137.336 175.483 135.477 177.885C134.433 179.241 133.537 180.408 132.764 181.432C131.37 183.372 129.869 185.231 128.267 187.002C127.072 188.392 125.964 189.856 124.95 191.384C123.742 193.171 122.445 194.896 121.063 196.553C118.933 198.906 113.343 202.061 101.113 208.688L98.0196 210.357C92.6403 213.26 88.8009 215.329 86.1893 217.228L86.1215 217.276C83.9983 218.829 82.7298 220.267 82.0515 221.936V221.882C82.0287 221.816 81.9927 221.756 81.9456 221.704C81.8986 221.653 81.8416 221.612 81.7781 221.584C81.7145 221.555 81.6459 221.54 81.5763 221.54C81.5068 221.539 81.4378 221.552 81.3737 221.579C81.3096 221.606 81.2517 221.646 81.2036 221.696C81.1554 221.747 81.1181 221.806 81.0939 221.871C81.0697 221.937 81.0591 222.006 81.0628 222.075C81.0665 222.145 81.0844 222.213 81.1154 222.275C81.3053 222.743 81.5834 223.361 81.8887 224.059C82.8371 226.068 83.6661 228.132 84.3714 230.239C84.6221 231.751 84.7062 233.287 84.6224 234.818C84.6224 236.676 84.5817 238.433 84.9141 239.437C85.1763 240.188 85.4937 240.918 85.8637 241.621C86.1651 242.102 86.3701 242.636 86.4675 243.195C86.4675 243.297 86.264 243.338 86.169 243.344C85.6446 243.325 85.1336 243.173 84.684 242.903C84.2343 242.632 83.8607 242.252 83.5981 241.798C82.5819 240.156 81.8761 238.342 81.5156 236.446C81.435 236.052 81.3262 235.664 81.19 235.286C80.8915 234.451 80.2675 233.027 79.4263 232.898L78.8158 232.789C78.0696 232.661 77.6219 232.579 77.2285 232.864C76.8351 233.149 73.7012 237.171 73.5248 238.04C73.4773 238.284 73.4163 238.942 73.3349 239.987L73.2874 240.597C73.1788 241.954 73.0296 243.745 72.9346 244.111C72.6017 245.175 71.8733 246.071 70.8996 246.614C70.6771 246.748 70.4208 246.816 70.161 246.808C69.9013 246.801 69.6491 246.72 69.4344 246.573C69.619 245.808 69.9482 245.085 70.4044 244.443C70.6215 244.104 70.73 243.358 70.6215 240.556V240.373V239.987C70.6215 239.79 70.6215 239.593 70.6215 239.403V239.186C70.6215 238.542 70.5672 237.829 70.6215 237.673C70.8165 237.136 71.0786 236.626 71.4016 236.154C72.2512 234.855 72.8878 233.428 73.2874 231.928C73.3043 231.864 73.3084 231.797 73.2995 231.731C73.2906 231.665 73.2688 231.602 73.2354 231.545C73.2021 231.487 73.1577 231.437 73.1049 231.397C73.0521 231.357 72.992 231.328 72.9278 231.311C72.8637 231.294 72.7969 231.29 72.7311 231.298C72.6654 231.307 72.602 231.329 72.5447 231.363C72.4874 231.396 72.4372 231.44 72.397 231.493C72.3569 231.546 72.3275 231.606 72.3106 231.67C71.9306 233.074 71.3307 234.409 70.5333 235.625C70.1587 236.167 69.8597 236.758 69.6447 237.382C69.5717 237.992 69.5717 238.609 69.6447 239.22V239.403C69.5429 239.831 69.4548 240.21 69.3869 240.536L69.3123 240.862C69.1897 241.683 68.9378 242.48 68.5661 243.222L68.383 243.568C67.9828 244.328 66.7617 246.634 66.348 246.885C65.6696 247.116 63.8313 247.367 63.3701 246.973C63.341 246.952 63.3215 246.921 63.3158 246.885C63.2344 246.546 63.7703 245.671 64.435 245.047C64.8488 244.654 65.5475 243.046 66.4701 240.299C66.8906 239.084 67.2569 237.958 67.318 237.721C67.6194 235.972 67.7489 234.197 67.7046 232.423C67.6977 232.289 67.6396 232.163 67.5424 232.071C67.4452 231.979 67.3163 231.928 67.1823 231.928C67.1155 231.93 67.0497 231.945 66.9886 231.972C66.9276 231.999 66.8725 232.038 66.8265 232.086C66.7805 232.135 66.7445 232.192 66.7206 232.254C66.6967 232.317 66.6853 232.383 66.6871 232.45C66.7307 234.128 66.6148 235.807 66.3412 237.463C66.2937 237.653 65.9545 238.711 65.5136 239.973C64.4554 243.073 63.8856 244.172 63.7228 244.335C63.56 244.498 62.3661 245.617 62.2779 246.695C61.8498 246.875 61.3805 246.934 60.9213 246.865C60.8956 246.858 60.8719 246.845 60.8519 246.827C60.832 246.81 60.8162 246.788 60.8059 246.763C60.4668 245.956 61.5521 244.097 62.0812 243.202C62.2711 242.87 62.4272 242.612 62.5086 242.429C62.6849 242.028 63.0648 240.801 63.7364 238.447L63.8517 238.053C64.0484 237.375 64.218 236.785 64.3062 236.507C64.4314 236.102 64.5177 235.686 64.5639 235.265C64.5639 235.001 64.625 234.723 64.6521 234.424L64.72 233.746C64.72 233.468 64.781 233.169 64.8285 232.857C64.8384 232.729 64.7993 232.602 64.719 232.501C64.6388 232.4 64.5234 232.334 64.396 232.315C64.2687 232.296 64.139 232.326 64.0329 232.399C63.9269 232.472 63.8524 232.582 63.8245 232.708C63.7771 233.04 63.7431 233.386 63.716 233.644L63.6482 234.322C63.6482 234.573 63.6007 234.804 63.5736 235.001C63.3768 235.286 62.8952 235.971 62.339 236.819C61.7827 237.667 60.7584 239.152 59.9851 240.448C59.3068 241.621 58.486 242.279 58.079 242.3C58.0555 242.306 58.0308 242.303 58.0086 242.294C57.9865 242.284 57.9683 242.267 57.9569 242.245C57.3803 241.472 58.6895 237.863 59.5307 236.629L59.741 236.317C60.8719 234.724 61.8766 233.046 62.746 231.297C63.3429 230.042 65.8053 226.366 67.7793 223.408C69.6176 220.661 70.6622 219.087 70.825 218.66C71.795 215.79 72.392 215.505 73.0703 215.207ZM80.3963 236.059C79.3788 237.633 77.181 239.071 74.3931 239.871C74.488 238.65 74.5355 238.311 74.5491 238.236C74.7254 237.633 77.5066 234.004 77.839 233.685C78.1155 233.689 78.3908 233.723 78.6598 233.787L79.2703 233.888C79.7501 234.364 80.0903 234.962 80.2539 235.618C80.2742 235.761 80.3217 235.91 80.3624 236.059H80.3963ZM54.6195 247.177C54.5692 247.131 54.5286 247.075 54.5003 247.013C54.472 246.951 54.4565 246.884 54.4547 246.815C54.4529 246.747 54.4648 246.679 54.4898 246.616C54.5148 246.552 54.5523 246.494 54.6002 246.446C54.648 246.397 54.7051 246.358 54.7681 246.332C54.8312 246.306 54.8989 246.293 54.9671 246.293C55.0354 246.294 55.1029 246.308 55.1655 246.335C55.2281 246.362 55.2847 246.402 55.3318 246.451C57.0683 248.147 61.0501 249.68 67.0195 248.9C67.0859 248.891 67.1533 248.896 67.2178 248.914C67.2824 248.931 67.3428 248.961 67.3957 249.002C67.4486 249.043 67.493 249.094 67.5262 249.152C67.5594 249.21 67.5809 249.274 67.5893 249.341C67.5978 249.407 67.5931 249.475 67.5755 249.539C67.5579 249.604 67.5278 249.664 67.4869 249.717C67.4459 249.77 67.395 249.814 67.3369 249.848C67.2788 249.881 67.2148 249.902 67.1484 249.911C66.0869 250.051 65.0173 250.121 63.9466 250.121C59.3204 250.121 56.1457 248.703 54.5788 247.177H54.6195ZM63.7635 251.505C63.7691 251.639 63.7218 251.771 63.6318 251.871C63.5418 251.971 63.4162 252.032 63.2819 252.041H62.6035C60.2403 252.012 57.9167 251.429 55.8202 250.338C55.7025 250.276 55.6134 250.17 55.5717 250.044C55.53 249.917 55.5388 249.78 55.5963 249.66C55.6585 249.542 55.7643 249.453 55.8911 249.413C56.018 249.372 56.1557 249.383 56.2746 249.443C58.4253 250.564 60.8313 251.104 63.2547 251.01C63.3796 251.021 63.4961 251.078 63.5822 251.169C63.6684 251.26 63.7184 251.379 63.7228 251.505H63.7635ZM34.8527 241.33H34.7849C34.69 241.364 34.6074 241.425 34.5475 241.506C34.4692 241.605 34.4157 241.721 34.3915 241.845C34.3508 241.994 34.2897 242.232 33.435 242.354C32.8855 242.435 32.682 242.354 32.6278 242.286C32.5735 242.218 32.5192 242.083 32.5057 241.913C32.8847 241.651 33.2865 241.424 33.7063 241.235L34.1269 241.018C34.3847 240.909 36.8403 240.238 42.8503 238.691C47.8768 237.395 53.1271 236.066 53.3713 235.978C53.5156 235.972 53.6592 235.999 53.791 236.058C53.9228 236.117 54.0392 236.205 54.1311 236.317C54.3642 236.519 54.5101 236.803 54.5381 237.11C54.5042 237.246 54.104 237.443 53.6223 237.558C53.3352 237.637 53.0381 237.673 52.7405 237.667C52.6659 237.667 52.5981 237.565 52.4692 237.348C52.3403 237.131 52.0011 236.547 51.3703 236.724C50.6309 236.92 46.2895 238.08 42.2466 239.2C36.7792 240.712 35.2801 241.147 34.812 241.309L34.8527 241.33ZM35.4225 243.853C34.857 244.225 34.185 244.402 33.5096 244.355C32.7917 244.442 32.0669 244.261 31.4746 243.846C31.3186 243.704 31.3254 243.433 31.3593 243.066C31.3593 242.951 31.3593 242.849 31.3593 242.754C31.3593 242.659 31.4136 242.639 31.5221 242.564C31.599 242.784 31.738 242.978 31.9223 243.12C32.2311 243.343 32.607 243.454 32.9873 243.433C33.1622 243.431 33.3367 243.418 33.5096 243.392C34.4932 243.249 34.9273 242.917 35.1376 242.517C35.1853 242.547 35.2287 242.583 35.2665 242.625C35.3622 243.02 35.401 243.427 35.3818 243.833L35.4225 243.853ZM54.2668 238.474L54.477 239.613C54.4887 239.679 54.4873 239.747 54.4728 239.812C54.4584 239.878 54.4311 239.94 54.3927 239.994C54.3542 240.049 54.3054 240.096 54.2488 240.132C54.1923 240.168 54.1292 240.192 54.0633 240.204H53.9751C53.8556 240.203 53.7403 240.16 53.6487 240.083C53.5572 240.007 53.4951 239.9 53.4731 239.783L53.2696 238.691C53.5953 238.643 53.9156 238.563 54.2261 238.454L54.2668 238.474ZM69.0003 213.85C69.4344 213.979 70.4587 214.278 71.9375 214.685C71.2591 215.166 70.6418 216.041 69.8007 218.212C69.6989 218.463 68.8239 219.806 67.8267 221.298C55.1486 224.012 45.3602 230.639 42.8707 237.619L42.5451 237.701C34.0455 239.885 33.7267 240.054 33.6181 240.109L33.2044 240.326C32.5864 240.564 32.0266 240.932 31.5628 241.404C31.2457 241.475 30.9593 241.644 30.7447 241.888C30.5301 242.132 30.3985 242.438 30.3689 242.761C30.3689 242.829 30.3689 242.91 30.3689 242.998C30.312 243.283 30.3228 243.576 30.4006 243.856C30.4784 244.135 30.6209 244.392 30.8166 244.606C31.5315 245.155 32.4196 245.43 33.3197 245.379H33.5435C34.0116 245.379 36.3519 245.21 36.4333 243.955C36.4669 243.398 36.412 242.839 36.2705 242.3C36.2352 242.194 36.1773 242.096 36.1009 242.015C37.0302 241.75 38.8142 241.248 42.2941 240.292C42.2171 241.118 42.2559 241.952 42.4094 242.768C44.0917 251.634 58.7845 256.301 75.2274 253.187C91.6703 250.073 103.643 240.353 101.961 231.48C100.828 225.504 93.7799 221.434 84.2764 220.369C84.9766 219.575 85.7639 218.863 86.6235 218.246C94.6889 219.928 106.37 221.909 117.149 222.004C115.405 225.138 107.333 238.467 83.7473 263.918C57.6177 260.276 33.5503 252.224 20.628 242.808C25.7494 239.803 58.7099 220.695 69.0003 213.85ZM88.6721 225.504C88.6827 225.438 88.7064 225.375 88.7416 225.319C88.7768 225.262 88.8228 225.214 88.8771 225.175C88.9314 225.137 88.9928 225.109 89.0578 225.095C89.1227 225.08 89.1899 225.079 89.2554 225.09C93.1694 225.769 96.5543 228.482 96.8053 231.195C96.8186 231.329 96.7782 231.463 96.693 231.567C96.6078 231.672 96.4848 231.738 96.3509 231.752H96.2966C96.1702 231.752 96.0483 231.705 95.9553 231.619C95.8622 231.534 95.8049 231.416 95.7946 231.29C95.6047 229.33 92.8642 226.779 89.0858 226.108C89.0181 226.097 88.9532 226.073 88.8951 226.037C88.837 226 88.7871 225.952 88.7483 225.895C88.7095 225.839 88.6828 225.775 88.6697 225.708C88.6565 225.64 88.6574 225.571 88.6721 225.504ZM272.081 264.108C245.477 270.213 185.39 280.49 126.517 280.49H125.641C80.2742 280.415 47.3274 272.587 21.9643 255.86C20.9333 251.905 20.3351 247.849 20.1803 243.765C33.4418 253.323 56.9259 261.178 83.4014 264.882L83.4828 265.933C83.4939 266.05 83.5441 266.16 83.6253 266.245C83.7066 266.33 83.8141 266.385 83.9305 266.401C101.427 268.464 119.027 269.519 136.644 269.562C157.422 269.562 174.78 267.982 191.054 266.231C191.183 266.216 191.302 266.152 191.386 266.053C191.471 265.953 191.514 265.826 191.508 265.696L191.467 264.949C197.918 264.183 257.87 256.931 273.845 249.734C273.526 253.987 272.502 261.592 272.101 264.108H272.081Z" fill="#373737"/>
<path d="M88.2312 287.531C87.3426 287.172 84.6971 286.602 81.034 285.815C73.1382 284.112 61.213 281.548 54.3211 278.462C54.2598 278.433 54.1934 278.417 54.1258 278.414C54.0581 278.411 53.9906 278.422 53.9271 278.445C53.8636 278.469 53.8055 278.505 53.7562 278.551C53.7068 278.598 53.6672 278.653 53.6396 278.715C53.6121 278.777 53.5972 278.844 53.5958 278.911C53.5943 278.979 53.6065 279.047 53.6314 279.109C53.6563 279.172 53.6936 279.23 53.7409 279.278C53.7883 279.327 53.8449 279.365 53.9073 279.391C60.8942 282.518 72.9008 285.103 80.8238 286.812C84.2968 287.558 87.0441 288.169 87.8581 288.474C87.9206 288.503 87.9883 288.518 88.057 288.52C88.1256 288.521 88.1939 288.509 88.2577 288.483C88.3214 288.458 88.3794 288.42 88.428 288.371C88.4766 288.323 88.5149 288.265 88.5406 288.201C88.5663 288.137 88.5788 288.069 88.5773 288C88.5759 287.932 88.5606 287.864 88.5323 287.802C88.5041 287.739 88.4634 287.683 88.4128 287.636C88.3622 287.59 88.3028 287.554 88.238 287.531H88.2312Z" fill="#373737"/>
<path d="M67.0195 287.504L66.6668 287.436C65.1541 287.145 60.5617 286.249 57.1701 284.269C57.054 284.199 56.9152 284.179 56.7842 284.212C56.6532 284.245 56.5406 284.329 56.4714 284.445C56.4021 284.561 56.3818 284.7 56.4149 284.831C56.4479 284.962 56.5317 285.074 56.6477 285.144C60.148 287.219 64.8895 288.135 66.4497 288.434L66.7889 288.501H66.8907C67.0142 288.498 67.1323 288.45 67.2228 288.365C67.3134 288.281 67.3702 288.167 67.3827 288.044C67.3951 287.921 67.3624 287.798 67.2906 287.697C67.2188 287.597 67.1128 287.526 66.9924 287.497L67.0195 287.504Z" fill="#373737"/>
<path d="M49.5862 186.459C51.7976 188.019 55.0129 188.806 59.0829 188.806C62.0496 188.771 65.0047 188.43 67.9013 187.788C74.6847 186.357 81.7598 183.237 89.269 179.927C96.1948 176.874 103.358 173.72 110.494 171.861C110.561 171.846 110.624 171.818 110.68 171.778C110.735 171.738 110.782 171.688 110.818 171.629C110.854 171.571 110.877 171.506 110.887 171.438C110.897 171.371 110.893 171.302 110.876 171.236C110.858 171.169 110.828 171.107 110.786 171.053C110.744 170.999 110.692 170.954 110.632 170.921C110.572 170.887 110.507 170.866 110.439 170.859C110.371 170.851 110.302 170.858 110.236 170.877C103.019 172.756 95.8149 175.931 88.8552 179.018C81.3935 182.301 74.3591 185.407 67.691 186.818C59.8291 188.48 53.6155 188.067 50.1967 185.652C49.4874 185.186 48.8861 184.575 48.4332 183.857C47.9804 183.14 47.6865 182.334 47.5715 181.493C47.5626 181.427 47.5407 181.363 47.5071 181.305C47.4735 181.247 47.4288 181.197 47.3755 181.156C47.3223 181.115 47.2616 181.086 47.1969 181.068C47.1322 181.051 47.0647 181.047 46.9983 181.056C46.932 181.065 46.868 181.087 46.8101 181.12C46.7522 181.154 46.7015 181.199 46.6609 181.252C46.6202 181.305 46.5905 181.366 46.5733 181.431C46.5561 181.495 46.5519 181.563 46.5608 181.629C46.6986 182.601 47.0391 183.533 47.5603 184.365C48.0815 185.198 48.7717 185.911 49.5862 186.459Z" fill="#373737"/>
<path d="M133.334 193.711C133.339 193.644 133.331 193.576 133.311 193.513C133.29 193.449 133.257 193.39 133.214 193.339C133.126 193.236 133.001 193.172 132.866 193.161C132.731 193.15 132.597 193.194 132.494 193.281C132.391 193.369 132.327 193.494 132.316 193.629C131.923 198.486 127.568 201.993 123.674 203.655C123.567 203.701 123.478 203.782 123.424 203.886C123.369 203.99 123.352 204.109 123.375 204.223C123.398 204.338 123.46 204.441 123.55 204.516C123.641 204.59 123.754 204.631 123.871 204.632C123.939 204.632 124.006 204.618 124.068 204.591C128.273 202.814 132.906 199.022 133.334 193.711Z" fill="#373737"/>
<path d="M134.161 198.411C134.033 198.371 133.893 198.383 133.774 198.446C133.654 198.508 133.564 198.615 133.524 198.744C132.845 200.935 131.163 202.739 128.402 204.265C128.338 204.294 128.28 204.336 128.233 204.388C128.186 204.44 128.15 204.501 128.127 204.568C128.105 204.635 128.097 204.705 128.103 204.775C128.109 204.845 128.13 204.914 128.164 204.975C128.198 205.037 128.244 205.091 128.3 205.134C128.356 205.177 128.42 205.207 128.488 205.224C128.556 205.241 128.627 205.243 128.697 205.231C128.766 205.219 128.832 205.193 128.891 205.154C131.896 203.499 133.727 201.498 134.494 199.049C134.534 198.92 134.522 198.781 134.46 198.661C134.397 198.542 134.29 198.452 134.161 198.411Z" fill="#373737"/>
<path d="M20.94 222.377C20.9685 222.245 20.9439 222.107 20.8716 221.993C20.7993 221.878 20.685 221.797 20.5534 221.766C20.1464 221.672 19.6376 221.943 18.1656 222.804C17.1549 223.395 15.6761 224.263 14.9639 224.358C15.1065 223.499 15.3337 222.656 15.6422 221.841C16.3205 219.806 16.9989 217.724 16.2256 216.74C15.3437 215.573 13.3833 216.557 11.3144 217.601C10.0188 218.28 8.55358 218.992 7.77349 218.924C7.73883 218.927 7.70406 218.92 7.67296 218.905C7.64186 218.889 7.61562 218.866 7.59711 218.836C7.19689 218.239 7.90915 215.926 8.38399 214.393C8.73998 213.434 8.96806 212.433 9.06233 211.415C9.06737 211.226 9.02761 211.038 8.94626 210.867C8.86492 210.696 8.7443 210.547 8.59427 210.431C7.74635 209.794 6.02337 210.235 3.41177 210.9C2.6249 211.103 1.77698 211.32 0.89514 211.517C0.826403 211.528 0.760627 211.553 0.701894 211.59C0.64316 211.627 0.592717 211.676 0.553673 211.734C0.514629 211.791 0.48782 211.856 0.474905 211.925C0.461989 211.993 0.463236 212.064 0.478579 212.131C0.493922 212.199 0.523035 212.263 0.564106 212.32C0.605178 212.376 0.657342 212.423 0.717368 212.458C0.777394 212.493 0.844007 212.516 0.913088 212.524C0.982169 212.533 1.05224 212.527 1.11898 212.507C2.01439 212.304 2.86909 212.087 3.66275 211.883C5.47391 211.422 7.5225 210.9 7.98377 211.245C7.98377 211.245 8.04482 211.293 8.0516 211.442C7.91841 212.347 7.69106 213.236 7.37326 214.094C6.59317 216.618 6.08442 218.477 6.69492 219.406C6.79987 219.561 6.93875 219.689 7.10098 219.782C7.26321 219.875 7.4445 219.93 7.63103 219.942C8.70959 220.037 10.168 219.263 11.7011 218.51C13.0035 217.832 14.9774 216.862 15.3505 217.357C15.7236 217.852 15.0724 220.071 14.6043 221.529C13.9871 223.435 13.6818 224.459 14.0685 225.036C14.1387 225.136 14.2307 225.22 14.3376 225.28C14.4444 225.34 14.5635 225.375 14.6857 225.382H14.7875C15.6558 225.382 16.9311 224.704 18.6269 223.686C19.1737 223.336 19.7476 223.03 20.3431 222.77C20.474 222.793 20.6085 222.765 20.7194 222.692C20.8303 222.619 20.9092 222.506 20.94 222.377Z" fill="#373737"/>
<path d="M127.622 258.2C127.67 258.207 127.718 258.207 127.765 258.2C127.875 258.2 127.982 258.164 128.07 258.098C128.158 258.032 128.222 257.939 128.253 257.834L131.238 247.747C132.174 247.645 133.151 246.539 133.646 244.918C134.141 243.297 133.958 241.743 133.185 241.167L136.278 230.707C136.317 230.577 136.302 230.438 136.238 230.319C136.174 230.2 136.065 230.111 135.935 230.073C135.806 230.034 135.666 230.048 135.547 230.113C135.428 230.177 135.34 230.286 135.301 230.415L132.181 240.957C131.292 241.14 130.383 242.212 129.908 243.765C129.653 244.531 129.57 245.344 129.664 246.146C129.712 246.628 129.925 247.079 130.268 247.421L127.276 257.542C127.253 257.608 127.244 257.678 127.249 257.747C127.255 257.817 127.274 257.884 127.306 257.946C127.339 258.008 127.384 258.062 127.438 258.106C127.492 258.149 127.555 258.182 127.622 258.2Z" fill="#373737"/>
<path d="M101.133 258.2C104.674 258.492 108.059 258.641 111.403 258.641C112.428 258.641 113.438 258.641 114.469 258.6C114.562 258.597 114.652 258.569 114.729 258.519C114.807 258.469 114.87 258.398 114.91 258.315C116.136 255.824 117.266 253.508 118.302 251.369C118.343 251.293 118.365 251.208 118.365 251.122C118.365 251.035 118.343 250.95 118.302 250.874C118.257 250.799 118.193 250.738 118.117 250.696C118.041 250.654 117.955 250.634 117.868 250.637C115.249 250.677 110.264 250.704 106.289 250.365C106.201 250.359 106.114 250.376 106.034 250.412C105.955 250.449 105.886 250.505 105.834 250.575C103.277 254.116 101.337 256.681 100.808 257.359C100.751 257.431 100.715 257.517 100.703 257.607C100.691 257.698 100.704 257.79 100.74 257.874C100.772 257.958 100.825 258.032 100.894 258.089C100.963 258.146 101.045 258.184 101.133 258.2ZM106.458 251.417C110.033 251.702 114.327 251.708 117.027 251.681C116.122 253.531 115.159 255.505 114.137 257.603C110.136 257.696 106.133 257.585 102.144 257.271C102.992 256.165 104.545 254.062 106.458 251.417Z" fill="#373737"/>
<path d="M107.964 248.893C110.677 249.103 113.791 249.158 116.26 249.158C117.339 249.158 118.295 249.158 119.048 249.158C119.143 249.156 119.236 249.128 119.317 249.076C119.397 249.025 119.461 248.952 119.503 248.866C120.418 246.933 121.239 245.162 121.978 243.541C122.015 243.464 122.031 243.378 122.025 243.292C122.019 243.207 121.991 243.124 121.945 243.053C121.901 242.978 121.837 242.917 121.76 242.876C121.684 242.835 121.597 242.816 121.51 242.822C119.414 242.856 115.358 242.883 111.708 242.652C111.619 242.645 111.53 242.661 111.45 242.701C111.37 242.74 111.302 242.801 111.254 242.876C110.114 244.538 108.88 246.302 107.591 248.106C107.539 248.181 107.507 248.267 107.499 248.358C107.49 248.448 107.506 248.539 107.543 248.622C107.584 248.7 107.644 248.765 107.718 248.813C107.792 248.86 107.876 248.888 107.964 248.893Z" fill="#373737"/>
<path d="M113.092 241.526C115.86 241.75 119.089 241.805 121.565 241.805H122.46C122.558 241.806 122.654 241.778 122.736 241.725C122.818 241.672 122.883 241.596 122.921 241.506C123.674 239.851 124.326 238.379 124.875 237.11C124.909 237.033 124.923 236.948 124.916 236.864C124.908 236.779 124.88 236.698 124.834 236.628C124.787 236.557 124.724 236.499 124.649 236.459C124.575 236.419 124.492 236.398 124.407 236.398C121.015 236.398 118.302 236.364 115.982 236.222C115.891 236.218 115.801 236.238 115.72 236.279C115.639 236.321 115.57 236.383 115.521 236.459C114.646 237.816 113.703 239.268 112.712 240.733C112.663 240.806 112.633 240.89 112.626 240.978C112.618 241.066 112.634 241.155 112.672 241.235C112.71 241.316 112.769 241.385 112.843 241.436C112.917 241.488 113.003 241.519 113.092 241.526ZM116.219 237.253C118.302 237.375 120.737 237.416 123.627 237.422C123.175 238.431 122.677 239.561 122.134 240.814C119.862 240.814 116.789 240.814 114.042 240.604C114.775 239.444 115.507 238.331 116.192 237.253H116.219Z" fill="#373737"/>
<path d="M117.23 235.082C119.591 235.211 122.026 235.238 123.803 235.238H125.302C125.401 235.238 125.498 235.208 125.58 235.152C125.662 235.097 125.726 235.018 125.764 234.926C126.971 232.084 127.5 230.66 127.5 230.646C127.53 230.571 127.541 230.489 127.531 230.409C127.522 230.328 127.493 230.251 127.446 230.185C127.401 230.118 127.34 230.063 127.269 230.024C127.199 229.985 127.12 229.963 127.039 229.961L119.713 229.764C119.619 229.765 119.527 229.791 119.446 229.838C119.365 229.886 119.298 229.954 119.252 230.036C118.573 231.29 117.773 232.749 116.81 234.316C116.765 234.392 116.741 234.479 116.741 234.567C116.741 234.655 116.765 234.742 116.81 234.818C116.852 234.893 116.913 234.957 116.986 235.003C117.06 235.049 117.144 235.077 117.23 235.082ZM120.018 230.782L126.306 230.951C126.055 231.582 125.628 232.674 124.95 234.214C123.383 234.214 120.751 234.214 118.112 234.106C118.851 232.898 119.482 231.786 120.018 230.782Z" fill="#373737"/>
<path d="M141.582 259.055C141.682 259.065 141.782 259.065 141.881 259.055C142.164 259.032 142.439 258.947 142.686 258.805C142.932 258.663 143.144 258.468 143.305 258.234C143.798 257.596 144.146 256.857 144.323 256.07C144.649 255.005 144.569 253.858 144.099 252.848C143.969 252.616 143.773 252.427 143.536 252.305L147.884 230.185C147.901 230.118 147.903 230.049 147.892 229.981C147.881 229.913 147.856 229.848 147.819 229.79C147.782 229.732 147.734 229.682 147.677 229.643C147.62 229.604 147.556 229.577 147.489 229.564C147.421 229.55 147.352 229.551 147.284 229.565C147.217 229.58 147.153 229.607 147.097 229.647C147.041 229.687 146.993 229.738 146.957 229.796C146.921 229.855 146.897 229.92 146.887 229.988L142.512 252.238C141.657 252.523 140.87 253.642 140.477 255.141C140.049 257.122 140.511 258.79 141.582 259.055ZM141.501 255.419C141.847 254.001 142.58 253.214 143.007 253.214C143.103 253.252 143.181 253.325 143.224 253.418C143.413 253.796 143.502 254.217 143.482 254.639C143.478 255.051 143.426 255.46 143.326 255.86C143.184 256.499 142.906 257.101 142.512 257.624C142.254 257.936 141.983 258.105 141.833 258.065C141.474 257.976 141.162 256.844 141.515 255.419H141.501Z" fill="#373737"/>
<path d="M156.669 240.563L155.828 257.685C155.824 257.751 155.834 257.818 155.856 257.881C155.878 257.945 155.912 258.003 155.957 258.052C156.002 258.102 156.056 258.143 156.116 258.172C156.177 258.2 156.242 258.217 156.309 258.22C156.44 258.221 156.565 258.171 156.66 258.081C156.754 257.992 156.811 257.869 156.818 257.739L157.659 240.455C158.446 240.034 159.056 238.827 159.192 237.28C159.335 235.571 158.839 234.16 157.991 233.739L158.195 229.547C158.199 229.48 158.189 229.413 158.167 229.35C158.145 229.287 158.11 229.229 158.065 229.179C158.021 229.129 157.967 229.089 157.906 229.06C157.846 229.031 157.78 229.015 157.713 229.011C157.579 229.007 157.449 229.055 157.349 229.145C157.249 229.234 157.188 229.359 157.177 229.493L156.974 233.699C156.112 234.024 155.434 235.299 155.292 236.941C155.204 237.745 155.296 238.558 155.563 239.322C155.642 239.599 155.782 239.855 155.973 240.07C156.165 240.285 156.403 240.453 156.669 240.563Z" fill="#373737"/>
<path d="M167.502 242.598L167.983 257.366C167.987 257.498 168.042 257.624 168.137 257.717C168.232 257.809 168.36 257.861 168.492 257.861C168.559 257.859 168.625 257.844 168.686 257.817C168.747 257.79 168.802 257.751 168.848 257.702C168.894 257.654 168.93 257.597 168.954 257.534C168.978 257.472 168.989 257.405 168.987 257.339L168.506 242.517C169.32 242.096 169.862 240.787 169.862 239.125C169.862 237.348 169.184 235.964 168.275 235.673L168.058 228.889C168.054 228.757 167.999 228.631 167.904 228.538C167.809 228.446 167.682 228.394 167.549 228.394C167.482 228.396 167.417 228.411 167.356 228.438C167.294 228.465 167.239 228.504 167.193 228.552C167.147 228.601 167.111 228.658 167.088 228.72C167.064 228.783 167.052 228.849 167.054 228.916L167.278 235.801C166.498 236.256 165.962 237.538 165.962 239.132C166.003 240.869 166.6 242.239 167.502 242.598Z" fill="#373737"/>
<path d="M176.062 245.535C176.273 247.258 177.06 248.534 178.009 248.764L178.986 256.701C179.001 256.824 179.06 256.937 179.153 257.019C179.245 257.102 179.364 257.148 179.488 257.149H179.569C179.636 257.14 179.7 257.119 179.758 257.086C179.816 257.052 179.867 257.008 179.908 256.955C179.949 256.902 179.979 256.842 179.997 256.777C180.014 256.712 180.019 256.645 180.01 256.579L179.02 248.561C179.766 248.038 180.16 246.668 179.963 245.067C179.766 243.466 179.054 242.198 178.192 241.879L176.422 227.532C176.406 227.398 176.337 227.276 176.231 227.193C176.125 227.109 175.99 227.072 175.856 227.088C175.721 227.104 175.599 227.173 175.516 227.279C175.433 227.385 175.395 227.52 175.411 227.654L177.175 241.94C176.327 242.388 175.866 243.812 176.062 245.535ZM177.657 242.822H177.738C178.118 242.822 178.776 243.745 178.945 245.196C179.115 246.648 178.701 247.692 178.335 247.781C177.969 247.828 177.283 246.906 177.1 245.413C176.917 243.921 177.344 242.863 177.657 242.822Z" fill="#373737"/>
<path d="M250.266 155.446C250.184 155.339 250.063 155.269 249.929 155.251C249.796 155.233 249.661 155.269 249.554 155.351C247.9 156.565 245.969 157.346 243.937 157.623C243.81 157.635 243.693 157.694 243.608 157.788C243.522 157.882 243.475 158.005 243.476 158.132C243.476 158.267 243.706 161.523 243.869 163.769C243.301 163.714 242.728 163.779 242.187 163.961C241.646 164.142 241.149 164.435 240.728 164.82C239.175 166.041 238.551 167.642 239.263 168.558C239.423 168.744 239.623 168.891 239.85 168.986C240.076 169.082 240.321 169.123 240.566 169.107C241.551 169.041 242.488 168.658 243.238 168.015C243.716 167.693 244.119 167.273 244.422 166.783C244.725 166.293 244.92 165.744 244.995 165.173C245.004 165.092 245.004 165.01 244.995 164.929V164.888C244.907 163.653 244.798 162.127 244.703 160.818C246.625 160.582 248.456 159.866 250.028 158.735C250.081 158.695 250.126 158.643 250.159 158.585C250.192 158.527 250.214 158.463 250.222 158.397C250.231 158.33 250.226 158.263 250.209 158.198C250.191 158.133 250.161 158.073 250.12 158.02C250.079 157.967 250.028 157.922 249.97 157.889C249.912 157.856 249.848 157.834 249.781 157.826C249.715 157.817 249.647 157.822 249.583 157.84C249.518 157.857 249.457 157.887 249.404 157.928C248 158.934 246.369 159.578 244.656 159.8C244.622 159.292 244.588 158.864 244.568 158.573C246.615 158.227 248.551 157.402 250.218 156.165C250.269 156.121 250.31 156.067 250.34 156.007C250.369 155.947 250.387 155.882 250.391 155.815C250.396 155.748 250.387 155.681 250.365 155.618C250.344 155.554 250.31 155.496 250.266 155.446Z" fill="#373737"/>
<path d="M40.6661 169.148C39.5859 169.644 38.7026 170.487 38.1562 171.542C37.6697 172.351 37.3771 173.261 37.3015 174.201C37.2332 174.587 37.2774 174.984 37.429 175.345C37.5806 175.706 37.8331 176.015 38.1562 176.236C38.3939 176.371 38.663 176.442 38.9363 176.44C39.4236 176.415 39.8939 176.252 40.293 175.972C41.0668 175.448 41.7078 174.751 42.1652 173.937C42.6924 173.081 42.9913 172.105 43.0335 171.101C43.0644 170.55 42.885 170.007 42.5315 169.582C42.5131 169.552 42.4902 169.524 42.4637 169.5L42.3959 169.439L34.9952 162.71C36.4842 162.568 37.915 162.06 39.1602 161.232C41.1477 160.112 42.5858 159.298 44.8718 161.679C44.9671 161.749 45.0835 161.783 45.2012 161.776C45.3189 161.769 45.4306 161.722 45.5171 161.641C45.6036 161.561 45.6596 161.454 45.6755 161.337C45.6915 161.22 45.6663 161.101 45.6044 161.001C42.7757 158.05 40.6864 159.23 38.665 160.37C37.193 161.198 35.6735 162.052 33.6385 161.591C33.5284 161.565 33.4128 161.577 33.3101 161.624C33.2074 161.671 33.1233 161.752 33.0712 161.852C33.0191 161.952 33.0019 162.067 33.0223 162.178C33.0427 162.29 33.0996 162.391 33.184 162.466L40.6661 169.148Z" fill="#373737"/>
<path d="M190.423 65.1925C190.607 65.1899 190.791 65.1718 190.972 65.1382C191.753 64.9619 192.482 64.6066 193.102 64.1004C193.998 63.4808 194.622 62.5412 194.846 61.4752C194.846 61.4752 195.232 57.4595 195.524 54.529H196.006C197.849 54.5241 199.681 54.2288 201.432 53.654L201.507 57.724C201.152 57.6418 200.783 57.6418 200.428 57.724C199.644 57.8975 198.912 58.253 198.292 58.7619C196.745 59.9829 196.114 61.5838 196.826 62.4995C196.987 62.6847 197.188 62.8305 197.414 62.9258C197.639 63.021 197.884 63.0632 198.129 63.049C199.115 62.9851 200.053 62.6017 200.801 61.9568C201.995 61.0207 202.633 59.8608 202.551 58.9586L202.382 50.2691C202.376 50.2175 202.363 50.1671 202.341 50.1198C202.344 50.0905 202.344 50.061 202.341 50.0317C202.314 49.9935 202.282 49.9593 202.246 49.9299C202.222 49.8996 202.195 49.8722 202.165 49.8485C202.091 49.8096 202.01 49.7865 201.927 49.7807C201.874 49.7856 201.821 49.7994 201.771 49.8214C201.744 49.8191 201.717 49.8191 201.69 49.8214C200.771 50.3002 199.792 50.6559 198.78 50.8796C197.687 51.1287 196.57 51.2606 195.449 51.273H195.341C195.296 51.2665 195.25 51.2665 195.205 51.273C195.112 51.3005 195.029 51.354 194.965 51.4273C194.901 51.5007 194.86 51.5907 194.846 51.6868C194.846 51.6868 194.846 51.6868 194.846 51.7343C194.846 51.7818 194.751 52.684 194.608 53.9457C194.405 55.8518 194.154 58.3684 194.004 59.9354C193.606 59.7949 193.176 59.769 192.763 59.8608C191.98 60.0398 191.249 60.3973 190.626 60.9054C189.073 62.1196 188.449 63.7273 189.161 64.6363C189.315 64.8187 189.509 64.9636 189.728 65.0599C189.946 65.1563 190.184 65.2016 190.423 65.1925Z" fill="#373737"/>
<path d="M167.448 112.534C167.428 112.47 167.396 112.41 167.354 112.358C167.311 112.306 167.259 112.263 167.199 112.231C167.14 112.2 167.075 112.18 167.008 112.174C166.941 112.168 166.874 112.175 166.81 112.195C166.81 112.195 166.22 112.371 165.08 112.873C164.849 112.991 164.593 113.053 164.334 113.053C164.074 113.053 163.819 112.991 163.588 112.873C162.909 112.48 162.407 111.34 162.17 109.583C161.566 105.14 161.146 102.657 158.9 99.2248C158.462 98.4533 157.83 97.8085 157.068 97.3532C156.307 96.8979 155.44 96.6477 154.552 96.6268C152.694 96.6268 150.923 97.746 149.702 99.6725C149.667 99.7291 149.642 99.7921 149.631 99.858C149.62 99.9239 149.622 99.9914 149.636 100.057C149.651 100.122 149.679 100.183 149.717 100.238C149.756 100.293 149.805 100.339 149.862 100.375C149.918 100.41 149.981 100.434 150.047 100.446C150.113 100.457 150.18 100.455 150.246 100.44C150.311 100.425 150.372 100.398 150.427 100.359C150.482 100.321 150.528 100.272 150.564 100.215C150.965 99.4892 151.54 98.8743 152.237 98.4255C152.934 97.9768 153.732 97.7083 154.559 97.6443C155.271 97.6772 155.962 97.8905 156.569 98.2643C157.175 98.6382 157.676 99.1601 158.025 99.781C160.149 103.03 160.556 105.418 161.139 109.719C161.431 111.855 162.055 113.178 163.052 113.789C163.402 113.991 163.8 114.097 164.205 114.094C164.63 114.085 165.05 113.993 165.44 113.823C166.532 113.375 167.074 113.205 167.081 113.205C167.152 113.189 167.218 113.159 167.276 113.115C167.334 113.072 167.382 113.016 167.416 112.953C167.451 112.889 167.472 112.819 167.477 112.747C167.483 112.674 167.472 112.602 167.448 112.534Z" fill="#373737"/>
<path d="M159.274 104.346C159.207 104.35 159.141 104.366 159.081 104.395C159.02 104.424 158.966 104.464 158.922 104.514C158.877 104.564 158.842 104.622 158.82 104.685C158.798 104.748 158.788 104.815 158.792 104.882C158.829 105.197 158.792 105.516 158.683 105.814C158.575 106.112 158.398 106.381 158.168 106.598C157.738 106.907 157.246 107.121 156.727 107.225C156.208 107.329 155.672 107.321 155.156 107.202C155.029 107.195 154.903 107.235 154.804 107.316C154.706 107.397 154.641 107.512 154.623 107.638C154.605 107.765 154.635 107.893 154.708 107.998C154.78 108.104 154.889 108.178 155.014 108.206C155.353 108.255 155.695 108.28 156.038 108.281C157.059 108.332 158.063 108 158.853 107.351C159.193 107.032 159.456 106.639 159.621 106.203C159.787 105.767 159.851 105.299 159.809 104.835C159.802 104.699 159.742 104.572 159.642 104.48C159.542 104.389 159.409 104.341 159.274 104.346Z" fill="#373737"/>
<path d="M169.062 101.959C169.66 101.96 170.251 101.821 170.785 101.552C171.451 101.2 172.006 100.672 172.389 100.024C172.772 99.3758 172.969 98.6344 172.956 97.8818C172.956 97.7468 172.902 97.6174 172.807 97.522C172.711 97.4266 172.582 97.373 172.447 97.373C172.312 97.373 172.183 97.4266 172.087 97.522C171.992 97.6174 171.938 97.7468 171.938 97.8818C171.953 98.4458 171.81 99.0029 171.526 99.4905C171.242 99.9781 170.828 100.377 170.33 100.643C169.771 100.898 169.151 100.99 168.542 100.905C167.933 100.821 167.36 100.565 166.891 100.168C166.782 100.088 166.646 100.054 166.513 100.075C166.379 100.095 166.259 100.167 166.179 100.276C166.099 100.385 166.065 100.521 166.086 100.655C166.106 100.788 166.179 100.908 166.288 100.989C167.085 101.6 168.057 101.94 169.062 101.959Z" fill="#373737"/>
<path d="M174.577 109.047C174.463 109.045 174.351 109.081 174.26 109.15C174.169 109.219 174.104 109.316 174.075 109.427C173.855 110.437 173.432 111.392 172.831 112.234C172.231 113.076 171.465 113.787 170.581 114.324C169.978 114.693 169.308 114.939 168.61 115.048C167.911 115.158 167.198 115.128 166.511 114.962C166.413 114.945 166.312 114.957 166.22 114.997C166.128 115.037 166.051 115.103 165.996 115.187C165.942 115.271 165.914 115.369 165.915 115.469C165.916 115.569 165.946 115.666 166.003 115.749C166.138 115.925 168.872 119.412 171.986 119.412C172.607 119.414 173.221 119.27 173.776 118.991C176.734 117.533 175.248 110.254 175.072 109.427C175.042 109.318 174.978 109.222 174.888 109.153C174.799 109.085 174.69 109.047 174.577 109.047ZM173.322 118.103C171.226 119.134 168.933 117.35 167.705 116.136C168.899 116.137 170.071 115.815 171.097 115.206C172.549 114.353 173.701 113.071 174.394 111.536C174.733 114.229 174.679 117.431 173.322 118.103Z" fill="#373737"/>
<path d="M176.754 99.4622C177.178 99.4622 177.521 99.119 177.521 98.6956C177.521 98.2723 177.178 97.9291 176.754 97.9291C176.331 97.9291 175.988 98.2723 175.988 98.6956C175.988 99.119 176.331 99.4622 176.754 99.4622Z" fill="#373737"/>
</svg>
