<svg width="28" height="26" viewBox="0 0 28 26" fill="none" xmlns="http://www.w3.org/2000/svg">
<path fill-rule="evenodd" clip-rule="evenodd" d="M25.1047 3.84125L23.7248 20.0856C23.6724 20.7019 24.1296 21.244 24.7459 21.2963C25.3621 21.3487 25.9042 20.8915 25.9565 20.2752L27.4493 2.70381C27.5582 1.42165 26.1615 0.56144 25.0655 1.23568L17.6103 6.63771L12.7335 2.40258C11.74 1.7039 10.3637 2.35134 10.2685 3.56213L8.98616 19.8687C8.93767 20.4853 9.39822 21.0244 10.0148 21.0729C10.6314 21.1214 11.1706 20.6609 11.2191 20.0443L12.409 4.91268L16.853 8.82548C17.3653 9.18581 17.6658 9.15368 18.1993 8.82548L25.1047 3.84125Z" fill="#3A86FF"/>
<path fill-rule="evenodd" clip-rule="evenodd" d="M20.8595 22.2334C22.2885 22.2334 23.2309 21.16 23.2309 20.0957C23.2309 19.0313 22.2885 17.9579 20.8595 17.9579C19.4305 17.9579 18.4881 19.0313 18.4881 20.0957C18.4881 21.16 19.4305 22.2334 20.8595 22.2334ZM20.8595 25C23.7018 25 26.1478 23.4016 26.1478 19.7167C26.1478 17.0081 23.7018 15.1913 20.8595 15.1913C18.0172 15.1913 15.713 17.3871 15.713 20.0957C15.713 22.8042 18.0172 25 20.8595 25Z" fill="#3A86FF"/>
<path fill-rule="evenodd" clip-rule="evenodd" d="M6.10476 22.2334C7.52221 22.2334 8.45696 21.16 8.45696 20.0957C8.45696 19.0313 7.52221 17.9579 6.10476 17.9579C4.68732 17.9579 3.75257 19.0313 3.75257 20.0957C3.75257 21.16 4.68732 22.2334 6.10476 22.2334ZM6.10476 25C8.92405 25 11.0588 23.4016 11.4348 19.8112C11.4348 17.1026 8.92405 15.1913 6.10476 15.1913C3.28548 15.1913 1 17.3871 1 20.0957C1 22.8042 3.28548 25 6.10476 25Z" fill="#3A86FF"/>
<path fill-rule="evenodd" clip-rule="evenodd" d="M25.1047 3.84125L23.7248 20.0856C23.6724 20.7019 24.1296 21.244 24.7459 21.2963C25.3621 21.3487 25.9042 20.8915 25.9565 20.2752L27.4493 2.70381C27.5582 1.42165 26.1615 0.56144 25.0655 1.23568L17.6103 6.63771L12.7335 2.40258C11.74 1.7039 10.3637 2.35134 10.2685 3.56213L8.98616 19.8687C8.93767 20.4853 9.39822 21.0244 10.0148 21.0729C10.6314 21.1214 11.1706 20.6609 11.2191 20.0443L12.409 4.91268L16.853 8.82548C17.3653 9.18581 17.6658 9.15368 18.1993 8.82548L25.1047 3.84125Z" stroke="#3A86FF"/>
<path fill-rule="evenodd" clip-rule="evenodd" d="M20.8595 22.2334C22.2885 22.2334 23.2309 21.16 23.2309 20.0957C23.2309 19.0313 22.2885 17.9579 20.8595 17.9579C19.4305 17.9579 18.4881 19.0313 18.4881 20.0957C18.4881 21.16 19.4305 22.2334 20.8595 22.2334ZM20.8595 25C23.7018 25 26.1478 23.4016 26.1478 19.7167C26.1478 17.0081 23.7018 15.1913 20.8595 15.1913C18.0172 15.1913 15.713 17.3871 15.713 20.0957C15.713 22.8042 18.0172 25 20.8595 25Z" stroke="#3A86FF"/>
<path fill-rule="evenodd" clip-rule="evenodd" d="M6.10476 22.2334C7.52221 22.2334 8.45696 21.16 8.45696 20.0957C8.45696 19.0313 7.52221 17.9579 6.10476 17.9579C4.68732 17.9579 3.75257 19.0313 3.75257 20.0957C3.75257 21.16 4.68732 22.2334 6.10476 22.2334ZM6.10476 25C8.92405 25 11.0588 23.4016 11.4348 19.8112C11.4348 17.1026 8.92405 15.1913 6.10476 15.1913C3.28548 15.1913 1 17.3871 1 20.0957C1 22.8042 3.28548 25 6.10476 25Z" stroke="#3A86FF"/>
</svg>
