<svg width="211" height="219" viewBox="0 0 211 219" fill="none" xmlns="http://www.w3.org/2000/svg">
<rect y="32" width="198" height="187" rx="10" fill="#CDE0FF"/>
<rect x="17" y="163" width="166" height="40" rx="9" fill="white" stroke="#3A86FF" stroke-width="2"/>
<path d="M57.1295 188.769C55.4735 188.769 54.1715 188.295 53.2235 187.347C52.2755 186.399 51.8015 185.013 51.8015 183.189V176.025H53.6015V183.117C53.6015 184.521 53.9075 185.547 54.5195 186.195C55.1435 186.843 56.0195 187.167 57.1475 187.167C58.2875 187.167 59.1635 186.843 59.7755 186.195C60.3995 185.547 60.7115 184.521 60.7115 183.117V176.025H62.4575V183.189C62.4575 185.013 61.9835 186.399 61.0355 187.347C60.0995 188.295 58.7975 188.769 57.1295 188.769ZM70.9538 188.733C70.1618 188.733 69.4358 188.553 68.7758 188.193C68.1278 187.821 67.6058 187.275 67.2098 186.555C66.8258 185.835 66.6338 184.935 66.6338 183.855C66.6338 182.775 66.8198 181.875 67.1918 181.155C67.5758 180.435 68.0918 179.895 68.7398 179.535C69.3998 179.175 70.1378 178.995 70.9538 178.995C71.8898 178.995 72.7178 179.199 73.4378 179.607C74.1578 180.015 74.7278 180.585 75.1478 181.317C75.5678 182.037 75.7778 182.883 75.7778 183.855C75.7778 184.827 75.5678 185.679 75.1478 186.411C74.7278 187.143 74.1578 187.713 73.4378 188.121C72.7178 188.529 71.8898 188.733 70.9538 188.733ZM65.8958 192.117V179.085H67.5518V181.659L67.4438 183.873L67.6238 186.087V192.117H65.8958ZM70.8098 187.221C71.4218 187.221 71.9678 187.083 72.4478 186.807C72.9398 186.531 73.3238 186.141 73.5998 185.637C73.8878 185.121 74.0318 184.527 74.0318 183.855C74.0318 183.171 73.8878 182.583 73.5998 182.091C73.3238 181.587 72.9398 181.197 72.4478 180.921C71.9678 180.645 71.4218 180.507 70.8098 180.507C70.2098 180.507 69.6638 180.645 69.1718 180.921C68.6918 181.197 68.3078 181.587 68.0198 182.091C67.7438 182.583 67.6058 183.171 67.6058 183.855C67.6058 184.527 67.7438 185.121 68.0198 185.637C68.3078 186.141 68.6918 186.531 69.1718 186.807C69.6638 187.083 70.2098 187.221 70.8098 187.221ZM78.1654 188.625V175.269H79.8934V188.625H78.1654ZM87.2787 188.733C86.3187 188.733 85.4667 188.523 84.7227 188.103C83.9787 187.683 83.3907 187.107 82.9587 186.375C82.5267 185.631 82.3107 184.791 82.3107 183.855C82.3107 182.907 82.5267 182.067 82.9587 181.335C83.3907 180.603 83.9787 180.033 84.7227 179.625C85.4667 179.205 86.3187 178.995 87.2787 178.995C88.2267 178.995 89.0727 179.205 89.8167 179.625C90.5727 180.033 91.1607 180.603 91.5807 181.335C92.0127 182.055 92.2287 182.895 92.2287 183.855C92.2287 184.803 92.0127 185.643 91.5807 186.375C91.1607 187.107 90.5727 187.683 89.8167 188.103C89.0727 188.523 88.2267 188.733 87.2787 188.733ZM87.2787 187.221C87.8907 187.221 88.4367 187.083 88.9167 186.807C89.4087 186.531 89.7927 186.141 90.0687 185.637C90.3447 185.121 90.4827 184.527 90.4827 183.855C90.4827 183.171 90.3447 182.583 90.0687 182.091C89.7927 181.587 89.4087 181.197 88.9167 180.921C88.4367 180.645 87.8907 180.507 87.2787 180.507C86.6667 180.507 86.1207 180.645 85.6407 180.921C85.1607 181.197 84.7767 181.587 84.4887 182.091C84.2007 182.583 84.0567 183.171 84.0567 183.855C84.0567 184.527 84.2007 185.121 84.4887 185.637C84.7767 186.141 85.1607 186.531 85.6407 186.807C86.1207 187.083 86.6667 187.221 87.2787 187.221ZM100.453 188.625V186.609L100.363 186.231V182.793C100.363 182.061 100.147 181.497 99.7146 181.101C99.2946 180.693 98.6586 180.489 97.8066 180.489C97.2426 180.489 96.6906 180.585 96.1506 180.777C95.6106 180.957 95.1546 181.203 94.7826 181.515L94.0626 180.219C94.5546 179.823 95.1426 179.523 95.8266 179.319C96.5226 179.103 97.2486 178.995 98.0046 178.995C99.3126 178.995 100.321 179.313 101.029 179.949C101.737 180.585 102.091 181.557 102.091 182.865V188.625H100.453ZM97.3206 188.733C96.6126 188.733 95.9886 188.613 95.4486 188.373C94.9206 188.133 94.5126 187.803 94.2246 187.383C93.9366 186.951 93.7926 186.465 93.7926 185.925C93.7926 185.409 93.9126 184.941 94.1526 184.521C94.4046 184.101 94.8066 183.765 95.3586 183.513C95.9226 183.261 96.6786 183.135 97.6266 183.135H100.651V184.377H97.6986C96.8346 184.377 96.2526 184.521 95.9526 184.809C95.6526 185.097 95.5026 185.445 95.5026 185.853C95.5026 186.321 95.6886 186.699 96.0606 186.987C96.4326 187.263 96.9486 187.401 97.6086 187.401C98.2566 187.401 98.8206 187.257 99.3006 186.969C99.7926 186.681 100.147 186.261 100.363 185.709L100.705 186.897C100.477 187.461 100.075 187.911 99.4986 188.247C98.9226 188.571 98.1966 188.733 97.3206 188.733ZM109.23 188.733C108.306 188.733 107.478 188.529 106.746 188.121C106.026 187.713 105.456 187.143 105.036 186.411C104.616 185.679 104.406 184.827 104.406 183.855C104.406 182.883 104.616 182.037 105.036 181.317C105.456 180.585 106.026 180.015 106.746 179.607C107.478 179.199 108.306 178.995 109.23 178.995C110.034 178.995 110.76 179.175 111.408 179.535C112.056 179.895 112.572 180.435 112.956 181.155C113.352 181.875 113.55 182.775 113.55 183.855C113.55 184.935 113.358 185.835 112.974 186.555C112.602 187.275 112.092 187.821 111.444 188.193C110.796 188.553 110.058 188.733 109.23 188.733ZM109.374 187.221C109.974 187.221 110.514 187.083 110.994 186.807C111.486 186.531 111.87 186.141 112.146 185.637C112.434 185.121 112.578 184.527 112.578 183.855C112.578 183.171 112.434 182.583 112.146 182.091C111.87 181.587 111.486 181.197 110.994 180.921C110.514 180.645 109.974 180.507 109.374 180.507C108.762 180.507 108.216 180.645 107.736 180.921C107.256 181.197 106.872 181.587 106.584 182.091C106.296 182.583 106.152 183.171 106.152 183.855C106.152 184.527 106.296 185.121 106.584 185.637C106.872 186.141 107.256 186.531 107.736 186.807C108.216 187.083 108.762 187.221 109.374 187.221ZM112.632 188.625V186.051L112.74 183.837L112.56 181.623V175.269H114.288V188.625H112.632ZM124.264 181.983H130.762V183.531H124.264V181.983ZM124.444 188.625H122.644V176.025H131.536V177.591H124.444V188.625ZM133.818 188.625V179.085H135.546V188.625H133.818ZM134.682 177.249C134.346 177.249 134.064 177.141 133.836 176.925C133.62 176.709 133.512 176.445 133.512 176.133C133.512 175.809 133.62 175.539 133.836 175.323C134.064 175.107 134.346 174.999 134.682 174.999C135.018 174.999 135.294 175.107 135.51 175.323C135.738 175.527 135.852 175.785 135.852 176.097C135.852 176.421 135.744 176.697 135.528 176.925C135.312 177.141 135.03 177.249 134.682 177.249ZM138.845 188.625V175.269H140.573V188.625H138.845ZM148.12 188.733C147.1 188.733 146.2 188.523 145.42 188.103C144.652 187.683 144.052 187.107 143.62 186.375C143.2 185.643 142.99 184.803 142.99 183.855C142.99 182.907 143.194 182.067 143.602 181.335C144.022 180.603 144.592 180.033 145.312 179.625C146.044 179.205 146.866 178.995 147.778 178.995C148.702 178.995 149.518 179.199 150.226 179.607C150.934 180.015 151.486 180.591 151.882 181.335C152.29 182.067 152.494 182.925 152.494 183.909C152.494 183.981 152.488 184.065 152.476 184.161C152.476 184.257 152.47 184.347 152.458 184.431H144.34V183.189H151.558L150.856 183.621C150.868 183.009 150.742 182.463 150.478 181.983C150.214 181.503 149.848 181.131 149.38 180.867C148.924 180.591 148.39 180.453 147.778 180.453C147.178 180.453 146.644 180.591 146.176 180.867C145.708 181.131 145.342 181.509 145.078 182.001C144.814 182.481 144.682 183.033 144.682 183.657V183.945C144.682 184.581 144.826 185.151 145.114 185.655C145.414 186.147 145.828 186.531 146.356 186.807C146.884 187.083 147.49 187.221 148.174 187.221C148.738 187.221 149.248 187.125 149.704 186.933C150.172 186.741 150.58 186.453 150.928 186.069L151.882 187.185C151.45 187.689 150.91 188.073 150.262 188.337C149.626 188.601 148.912 188.733 148.12 188.733Z" fill="#3A86FF"/>
<path d="M166.385 134.98L210.11 59.2457L210.291 59.0147L210.251 59.0006L210.255 58.994L210.173 58.963L131.134 26.4868L131.128 26.4836L96.5801 86.3228C94.2155 83.7111 91.1639 81.4516 87.5689 79.8214C76.1845 74.6498 63.6658 77.7005 59.6042 86.6209C55.539 95.5532 61.4651 106.982 72.8457 112.151C84.2348 117.326 96.7525 114.279 100.821 105.346C100.888 105.19 101.085 104.939 101.085 104.939L131.055 53.0278L185.887 74.7947L161.885 116.367C159.522 113.76 156.477 111.496 152.878 109.858C141.494 104.686 128.973 107.74 124.904 116.665C120.84 125.601 126.772 137.025 138.149 142.194C149.536 147.36 162.058 144.318 166.117 135.388C166.188 135.24 166.386 134.98 166.386 134.98L166.385 134.98Z" fill="white"/>
</svg>
