<svg width="249" height="227" viewBox="0 0 249 227" fill="none" xmlns="http://www.w3.org/2000/svg">
<path d="M74.6574 129.33C73.1898 126.991 73.8962 123.905 76.2353 122.437L165.135 66.6574C167.475 65.1898 170.561 65.8962 172.028 68.2354L173.018 69.8132L75.6474 130.908L74.6574 129.33Z" fill="#373737"/>
<path d="M248.807 76.3202C247.107 74.8501 241.413 70.1567 239.384 71.5246C238.246 72.3108 238.189 75.0859 238.189 79.5828C238.189 82.1063 238.189 86.3202 237.516 86.6582C236.842 86.9962 234.645 84.8658 233.242 83.5136C231.124 81.446 229.769 80.196 228.638 80.3689C227.035 80.6126 227.243 83.3563 227.748 87.8453C227.933 89.4727 228.189 91.7053 228.005 92.122C227.636 92.2399 225.503 91.3359 220.106 85.762C220.058 85.6901 219.995 85.6292 219.921 85.5837C219.847 85.5381 219.764 85.5089 219.677 85.4981C219.591 85.4873 219.502 85.4951 219.419 85.5211C219.336 85.5471 219.259 85.5906 219.195 85.6485C219.13 85.7065 219.08 85.7775 219.046 85.8566C219.013 85.9357 218.997 86.0211 219 86.1068C219.004 86.1924 219.027 86.2762 219.066 86.3525C219.106 86.4287 219.163 86.4955 219.232 86.5481C223.578 91.0135 226.521 93.2777 227.989 93.2777H228.181C228.368 93.2503 228.545 93.1778 228.697 93.0666C228.848 92.9554 228.968 92.8091 229.047 92.6409C229.392 91.9333 229.24 90.3846 228.935 87.7038C228.703 85.6991 228.278 81.957 228.815 81.5246C229.408 81.4302 231.221 83.1834 232.383 84.339C234.565 86.4695 236.457 88.2698 237.925 87.7746C239.392 87.2793 239.384 84.4727 239.376 79.5671C239.376 76.9256 239.376 72.9319 240.05 72.4916C240.852 71.9256 244.861 74.4649 247.997 77.2086C248.116 77.3128 248.273 77.3664 248.432 77.3576C248.591 77.3487 248.741 77.2782 248.847 77.1614C248.953 77.0447 249.008 76.8912 248.999 76.735C248.99 76.5787 248.918 76.4323 248.799 76.3281L248.807 76.3202Z" fill="#373737"/>
<path d="M23.9865 114.733C24.0198 114.577 23.991 114.415 23.9063 114.28C23.8216 114.145 23.6877 114.049 23.5335 114.013C23.0567 113.901 22.4606 114.221 20.7361 115.237C19.552 115.933 17.8195 116.957 16.985 117.069C17.1521 116.056 17.4183 115.062 17.7798 114.101C18.5745 111.701 19.3692 109.244 18.4632 108.084C17.4301 106.708 15.1334 107.868 12.7095 109.1C11.1916 109.901 9.475 110.741 8.56108 110.661C8.52049 110.664 8.47975 110.656 8.44331 110.638C8.40688 110.619 8.37614 110.591 8.35445 110.557C7.88557 109.853 8.72002 107.124 9.27632 105.316C9.69339 104.185 9.9606 103.004 10.071 101.803C10.0769 101.58 10.0304 101.359 9.93506 101.157C9.83976 100.956 9.69845 100.779 9.52268 100.643C8.52929 99.8912 6.51072 100.411 3.45107 101.195C2.5292 101.435 1.53582 101.691 0.502687 101.923C0.422159 101.936 0.345098 101.966 0.276288 102.01C0.207478 102.054 0.148381 102.111 0.102638 102.179C0.0568957 102.247 0.0254881 102.324 0.0103568 102.405C-0.00477451 102.485 -0.00331399 102.568 0.0146617 102.648C0.0326373 102.728 0.0667439 102.804 0.114862 102.87C0.16298 102.937 0.224093 102.992 0.294417 103.034C0.364741 103.075 0.442782 103.102 0.523715 103.112C0.604647 103.122 0.68674 103.115 0.764932 103.092C1.81395 102.852 2.81529 102.596 3.74511 102.355C5.86699 101.811 8.26704 101.195 8.80744 101.603C8.80744 101.603 8.87896 101.659 8.88691 101.835C8.73087 102.903 8.46452 103.952 8.09219 104.964C7.17827 107.94 6.58224 110.133 7.29748 111.229C7.42043 111.411 7.58314 111.563 7.7732 111.672C7.96326 111.782 8.17565 111.846 8.39419 111.861C9.65778 111.973 11.3664 111.061 13.1625 110.173C14.6883 109.372 17.0009 108.228 17.438 108.812C17.8751 109.396 17.1122 112.013 16.5638 113.733C15.8407 115.981 15.483 117.19 15.936 117.87C16.0183 117.988 16.1261 118.086 16.2513 118.157C16.3765 118.228 16.5159 118.269 16.6592 118.278H16.7784C17.7957 118.278 19.2897 117.478 21.2765 116.277C21.9171 115.864 22.5895 115.503 23.2871 115.197C23.4405 115.224 23.5981 115.191 23.728 115.105C23.8579 115.018 23.9503 114.886 23.9865 114.733V114.733Z" fill="#373737"/>
<path d="M106.188 48.3478C106.285 48.2213 106.328 48.0619 106.31 47.9039C106.291 47.7459 106.211 47.6019 106.087 47.503C105.705 47.1972 105.029 47.2306 103.035 47.4087C101.667 47.5295 99.6627 47.7114 98.8609 47.4546C99.4466 46.6109 100.114 45.8269 100.852 45.1142C102.6 43.2869 104.371 41.409 104.051 39.9723C103.708 38.286 101.135 38.3487 98.4174 38.4219C96.703 38.4935 94.792 38.516 94.0008 38.0517C93.9627 38.0373 93.9293 38.0126 93.9042 37.9804C93.8792 37.9482 93.8635 37.9097 93.8588 37.8691C93.7373 37.0319 95.6615 34.9253 96.9397 33.5305C97.8015 32.6882 98.5495 31.736 99.1644 30.6986C99.2655 30.4995 99.3184 30.2795 99.3188 30.0565C99.3192 29.8335 99.2671 29.6138 99.1668 29.4154C98.5921 28.3098 96.5456 27.9137 93.4454 27.3094C92.5097 27.1308 91.5025 26.9359 90.4697 26.7023C90.3915 26.6794 90.3093 26.6728 90.2282 26.6831C90.1472 26.6933 90.069 26.7202 89.9985 26.7619C89.9281 26.8037 89.8668 26.8595 89.8185 26.9259C89.7703 26.9922 89.736 27.0678 89.7179 27.1478C89.6998 27.2278 89.6982 27.3107 89.7132 27.3912C89.7283 27.4717 89.7596 27.5482 89.8053 27.6158C89.851 27.6835 89.9101 27.741 89.979 27.7847C90.0478 27.8284 90.1249 27.8575 90.2055 27.87C91.2561 28.1032 92.2704 28.3015 93.2133 28.4835C95.3634 28.9023 97.7957 29.3754 98.1088 29.9759C98.1088 29.9759 98.1494 30.0571 98.081 30.2195C97.482 31.1172 96.7916 31.95 96.0211 32.7046C93.9187 35.0011 92.4398 36.7257 92.6157 38.0227C92.6485 38.2403 92.7303 38.4472 92.855 38.6277C92.9797 38.8082 93.1439 38.9575 93.3352 39.0642C94.4285 39.7074 96.3633 39.6165 98.3666 39.5847C100.088 39.5166 102.668 39.4751 102.812 40.1902C102.957 40.9054 101.145 42.9414 99.9117 44.2601C98.2939 45.9808 97.4526 46.9187 97.5701 47.7274C97.5936 47.8696 97.6488 48.0046 97.7316 48.1221C97.8144 48.2397 97.9226 48.3368 98.0483 48.4062L98.1559 48.4573C99.0748 48.8937 100.768 48.8119 103.077 48.5801C103.833 48.4816 104.595 48.4437 105.357 48.4669C105.484 48.5568 105.64 48.5945 105.795 48.5724C105.949 48.5502 106.09 48.4699 106.188 48.3478V48.3478Z" fill="#373737"/>
<path d="M70.437 134.371C76.101 158.13 95.3414 226.11 95.3846 226.11C95.4278 226.11 202.741 151.8 202.698 151.713C201.444 148.115 186.528 63.5726 185.403 62.4454C185.274 62.4454 97.8059 116.119 70.437 134.371Z" stroke="#373737" stroke-linejoin="round"/>
<path d="M164.347 74.8449C162.142 71.2031 159.764 67.648 157.646 63.9195V63.6593C156.651 63.6593 139.097 76.6658 136.373 78.1399C114.755 91.1463 78.5656 113.734 78.5656 113.734L70.6101 111.393C70.6101 111.393 41.3388 126.004 36.5396 128.735C37.8685 131.842 39.4596 134.83 41.2956 137.666C42.1603 139.877 83.4514 203.305 94.2173 225.199" stroke="#373737" stroke-linejoin="round"/>
<path d="M95.3848 226.11L36.3235 128.908L34.1616 134.978L88.8128 225.373L95.3848 226.11Z" stroke="#373737" stroke-linejoin="round"/>
<path d="M56.9472 118.633C56.9472 114.298 56.9472 109.702 56.9472 105.237C56.9472 100.771 56.6013 96.5657 56.9472 92.2302C56.9472 90.1492 57.2498 87.8947 57.3796 85.9871C57.3796 85.5969 57.3796 84.0795 57.3796 83.7326C57.3796 83.3858 59.9738 82.6488 60.8385 82.5187C64.6245 82.2586 68.4238 82.2586 72.2097 82.5187C80.1396 82.2213 88.0804 82.5984 95.9467 83.6459C97.287 83.6459 98.8436 83.6459 100.27 84.0361C100.27 84.0361 102.259 86.6374 102.562 86.9843C104.681 89.5422 106.886 92.0568 109.134 94.528" stroke="#373737" stroke-linejoin="round"/>
<path d="M191.976 91.6233C195.867 91.6233 199.845 91.6233 203.736 91.8834C205.168 91.6457 206.628 91.6457 208.06 91.8834C208.118 92.952 208.118 94.023 208.06 95.0917C208.06 98.6034 208.406 102.115 208.536 105.67C208.881 114.341 209.4 123.012 209.184 131.683C209.184 138.88 208.103 146.034 207.671 153.361C207.238 160.688 207.368 169.012 207.671 176.729C207.671 179.33 207.93 181.931 207.671 184.533C207.671 185.356 207.671 186.137 207.671 186.961C207.671 187.784 208.06 188.305 207.671 188.218C189.944 184.403 171.784 186.484 153.798 186.354" stroke="#373737" stroke-linejoin="round"/>
<path d="M50.4503 58.5989C50.37 58.3771 50.2101 58.2028 50.0057 58.1142C49.8012 58.0257 49.5688 58.0301 49.3596 58.1265C46.1513 59.5326 42.7049 60.064 39.3341 59.6722C39.1268 59.6384 38.9117 59.6903 38.7312 59.8178C38.5507 59.9454 38.4179 60.1392 38.3589 60.3612C38.2949 60.5979 37.1274 66.3787 36.3284 70.3666C35.4487 70.0265 34.5042 69.8937 33.5562 69.9767C32.6083 70.0597 31.6779 70.3566 30.8257 70.8483C27.7736 72.3097 26.0239 74.8342 26.7276 76.7389C26.8941 77.1329 27.145 77.4753 27.4604 77.7391C27.7758 78.0029 28.1471 78.1808 28.5449 78.2587C30.147 78.5675 31.8222 78.3029 33.3206 77.5043C34.2335 77.1473 35.0747 76.588 35.7886 75.8636C36.5024 75.1391 37.0726 74.2659 37.4615 73.3017C37.5144 73.1641 37.5531 73.0212 37.5767 72.8756L37.5958 72.8046C38.0373 70.6125 38.5839 67.9025 39.0498 65.5772C42.2246 65.993 45.4817 65.5321 48.5207 64.2373C48.6245 64.1886 48.7194 64.1187 48.7998 64.0316C48.8803 63.9445 48.9449 63.8419 48.9898 63.7296C49.0346 63.6173 49.059 63.4975 49.0615 63.3771C49.0639 63.2568 49.0444 63.1381 49.0041 63.028C48.9638 62.9179 48.9034 62.8184 48.8264 62.7353C48.7494 62.6521 48.6573 62.587 48.5553 62.5435C48.4534 62.5 48.3436 62.4791 48.2323 62.482C48.1209 62.4848 48.0102 62.5113 47.9064 62.5599C45.1935 63.7106 42.2897 64.1302 39.4538 63.7813C39.6396 62.879 39.787 62.1187 39.892 61.601C43.3186 61.8791 46.7944 61.2733 50.0356 59.8331C50.1368 59.778 50.2277 59.7024 50.3033 59.6104C50.3789 59.5185 50.4377 59.4122 50.4763 59.2975C50.5148 59.1829 50.5323 59.0622 50.5278 58.9423C50.5234 58.8224 50.497 58.7057 50.4503 58.5989Z" fill="#373737"/>
<path d="M136.265 16.9561C134.416 16.7689 132.537 17.2182 130.928 18.2326C129.606 18.9545 128.456 19.973 127.568 21.2083C127.155 21.6844 126.882 22.2673 126.781 22.887C126.681 23.5067 126.757 24.1369 127.001 24.7021C127.204 25.0798 127.503 25.3934 127.867 25.6115C128.536 25.9697 129.296 26.1253 130.061 26.0603C131.527 25.9626 132.962 25.5191 134.251 24.7652C135.666 24.0114 136.88 22.9069 137.776 21.5574C138.279 20.8219 138.495 19.9289 138.38 19.0585C138.381 19.0018 138.374 18.9456 138.358 18.8916L138.319 18.7528L134.117 3.51152C136.214 4.51652 138.54 4.97 140.887 4.83162C144.464 4.89157 147.055 4.92921 148.1 10.0539C148.168 10.2264 148.294 10.3675 148.457 10.4529C148.619 10.5383 148.807 10.5627 148.989 10.5221C149.171 10.4814 149.335 10.3782 149.454 10.23C149.573 10.0818 149.639 9.8979 149.641 9.70968C148.351 3.36215 144.589 3.3043 140.95 3.24505C138.302 3.19877 135.569 3.15159 133.252 0.875046C133.127 0.75078 132.964 0.67372 132.788 0.655999C132.612 0.638278 132.433 0.680914 132.28 0.777196C132.127 0.873479 132.008 1.01791 131.942 1.18767C131.876 1.35743 131.867 1.54284 131.916 1.71462L136.265 16.9561Z" fill="#373737"/>
<path d="M194.026 52.9024C194.269 53.0564 194.524 53.1891 194.79 53.2991C195.961 53.7303 197.222 53.8786 198.472 53.7323C200.181 53.6701 201.816 52.9484 203.04 51.7162V51.7162C203.04 51.7162 207.058 46.6853 210.003 43.0222L210.63 43.4335C213.036 45.0011 215.68 46.1706 218.465 46.8989L215 52.3961C214.61 51.9834 214.129 51.6684 213.595 51.4752C212.422 51.0375 211.158 50.8871 209.904 51.0363C206.82 51.3457 204.598 52.9442 204.724 54.7749C204.771 55.1592 204.905 55.5255 205.116 55.8454C205.327 56.1654 205.609 56.4306 205.94 56.6205C207.28 57.3771 208.838 57.6664 210.377 57.4446C212.751 57.2143 214.597 56.2102 215.281 54.9363L222.664 43.1909C222.702 43.1172 222.728 43.0383 222.741 42.957C222.77 42.9199 222.796 42.8805 222.819 42.8392C222.817 42.7654 222.805 42.6924 222.784 42.6223C222.78 42.5615 222.768 42.5017 222.749 42.4441V42.4441C222.687 42.3294 222.602 42.2295 222.499 42.1508V42.1508C222.425 42.1114 222.344 42.0848 222.26 42.072C222.227 42.0458 222.192 42.0225 222.154 42.0024C220.538 41.8565 218.952 41.4961 217.438 40.9304C215.796 40.3296 214.226 39.5523 212.755 38.6117L212.614 38.519C212.561 38.4719 212.501 38.4329 212.437 38.4032C212.291 38.3602 212.136 38.3606 211.989 38.4041C211.842 38.4476 211.709 38.5324 211.606 38.6486C211.606 38.6486 211.606 38.6486 211.565 38.712C211.523 38.7754 210.61 39.8987 209.32 41.4615C207.387 43.8324 204.858 46.9778 203.292 48.9423C202.896 48.4143 202.358 48.0126 201.741 47.7827C200.564 47.353 199.298 47.2059 198.043 47.3528C194.957 47.6474 192.737 49.2608 192.87 51.0825C192.911 51.4577 193.037 51.8166 193.237 52.1319C193.437 52.4472 193.707 52.7107 194.026 52.9024V52.9024Z" fill="#373737"/>
</svg>
