<svg width="249" height="202" viewBox="0 0 249 202" fill="none" xmlns="http://www.w3.org/2000/svg">
<path d="M70.437 109.371C76.101 133.13 95.3414 201.11 95.3846 201.11C95.4278 201.11 202.741 126.8 202.698 126.713C201.444 123.115 186.528 38.5726 185.403 37.4454C185.274 37.4454 97.8059 91.1187 70.437 109.371Z" stroke="black" stroke-linejoin="round"/>
<path d="M164.347 49.8449C162.142 46.2031 159.764 42.648 157.646 38.9195V38.6593C156.651 38.6593 139.097 51.6658 136.373 53.1399C114.755 66.1463 78.5656 88.7342 78.5656 88.7342L70.6101 86.393C70.6101 86.393 41.3388 101.004 36.5396 103.735C37.8685 106.842 39.4596 109.83 41.2956 112.666C42.1603 114.877 83.4514 178.305 94.2173 200.199" stroke="black" stroke-linejoin="round"/>
<path d="M95.3848 201.11L36.3235 103.908L34.1616 109.978L88.8128 200.373L95.3848 201.11Z" stroke="black" stroke-linejoin="round"/>
<path d="M56.9472 93.6333C56.9472 89.2978 56.9472 84.7022 56.9472 80.2366C56.9472 75.7711 56.6013 71.5657 56.9472 67.2302C56.9472 65.1492 57.2498 62.8947 57.3796 60.9871C57.3796 60.5969 57.3796 59.0795 57.3796 58.7326C57.3796 58.3858 59.9738 57.6488 60.8385 57.5187C64.6245 57.2586 68.4238 57.2586 72.2097 57.5187C80.1396 57.2213 88.0804 57.5984 95.9467 58.6459C97.287 58.6459 98.8436 58.6459 100.27 59.0361C100.27 59.0361 102.259 61.6374 102.562 61.9843C104.681 64.5422 106.886 67.0568 109.134 69.528" stroke="black" stroke-linejoin="round"/>
<path d="M191.976 66.6232C195.867 66.6232 199.845 66.6232 203.736 66.8834C205.168 66.6456 206.628 66.6456 208.06 66.8834C208.118 67.952 208.118 69.023 208.06 70.0916C208.06 73.6034 208.406 77.1151 208.536 80.6702C208.881 89.3412 209.4 98.0121 209.184 106.683C209.184 113.88 208.103 121.034 207.671 128.361C207.238 135.687 207.368 144.012 207.671 151.729C207.671 154.33 207.93 156.931 207.671 159.533C207.671 160.356 207.671 161.137 207.671 161.961C207.671 162.784 208.06 163.305 207.671 163.218C189.944 159.403 171.784 161.484 153.798 161.354" stroke="black" stroke-linejoin="round"/>
<path d="M248.807 51.3202C247.107 49.8501 241.413 45.1567 239.384 46.5246C238.246 47.3108 238.189 50.0859 238.189 54.5828C238.189 57.1063 238.189 61.3202 237.516 61.6582C236.842 61.9962 234.645 59.8658 233.242 58.5136C231.124 56.446 229.769 55.196 228.638 55.3689C227.035 55.6126 227.243 58.3563 227.748 62.8453C227.933 64.4727 228.189 66.7053 228.005 67.122C227.636 67.2399 225.503 66.3359 220.106 60.762C220.058 60.6901 219.995 60.6292 219.921 60.5837C219.847 60.5381 219.764 60.5089 219.677 60.4981C219.591 60.4873 219.502 60.4951 219.419 60.5211C219.336 60.5471 219.259 60.5906 219.195 60.6485C219.13 60.7065 219.08 60.7775 219.046 60.8566C219.013 60.9357 218.997 61.0211 219 61.1068C219.004 61.1924 219.027 61.2762 219.066 61.3525C219.106 61.4287 219.163 61.4955 219.232 61.5481C223.578 66.0135 226.521 68.2777 227.989 68.2777H228.181C228.368 68.2503 228.545 68.1778 228.697 68.0666C228.848 67.9554 228.968 67.8091 229.047 67.6409C229.392 66.9333 229.24 65.3846 228.935 62.7038C228.703 60.6991 228.278 56.957 228.815 56.5246C229.408 56.4302 231.221 58.1834 232.383 59.339C234.565 61.4695 236.457 63.2698 237.925 62.7746C239.392 62.2793 239.384 59.4727 239.376 54.5671C239.376 51.9256 239.376 47.9319 240.05 47.4916C240.852 46.9256 244.861 49.4649 247.997 52.2086C248.116 52.3128 248.273 52.3664 248.432 52.3576C248.591 52.3487 248.741 52.2782 248.847 52.1614C248.953 52.0447 249.008 51.8912 248.999 51.735C248.99 51.5787 248.918 51.4323 248.799 51.3281L248.807 51.3202Z" fill="#373737"/>
<path d="M23.9865 89.7332C24.0198 89.5773 23.991 89.4145 23.9063 89.2799C23.8216 89.1452 23.6877 89.0494 23.5335 89.0131C23.0567 88.9011 22.4606 89.2211 20.7361 90.2373C19.552 90.9334 17.8195 91.9575 16.985 92.0695C17.1521 91.0561 17.4183 90.0618 17.7798 89.1011C18.5745 86.7008 19.3692 84.2444 18.4632 83.0843C17.4301 81.7081 15.1334 82.8682 12.7095 84.1004C11.1916 84.9005 9.47501 85.7406 8.56108 85.6606C8.52049 85.664 8.47975 85.6561 8.44331 85.6377C8.40688 85.6194 8.37614 85.5913 8.35445 85.5566C7.88557 84.8525 8.72002 82.1242 9.27632 80.3159C9.69339 79.1853 9.9606 78.0043 10.071 76.8034C10.0769 76.5802 10.0304 76.3588 9.93506 76.1571C9.83976 75.9555 9.69845 75.7794 9.52268 75.6433C8.52929 74.8912 6.51072 75.4112 3.45107 76.1953C2.5292 76.4354 1.53582 76.6914 0.502687 76.9234C0.422159 76.9363 0.345098 76.9656 0.276288 77.0097C0.207478 77.0537 0.148381 77.1115 0.102638 77.1794C0.0568957 77.2474 0.0254881 77.3241 0.0103568 77.4047C-0.00477451 77.4854 -0.00331399 77.5683 0.0146617 77.6484C0.0326373 77.7285 0.0667439 77.804 0.114862 77.8703C0.16298 77.9365 0.224093 77.9922 0.294417 78.0337C0.364741 78.0752 0.442782 78.1018 0.523715 78.1118C0.604647 78.1217 0.68674 78.1149 0.764932 78.0916C1.81395 77.8516 2.81529 77.5955 3.74511 77.3555C5.86699 76.8114 8.26704 76.1953 8.80744 76.6034C8.80744 76.6034 8.87896 76.6594 8.88691 76.8354C8.73087 77.9032 8.46452 78.9517 8.09219 79.9639C7.17827 82.9403 6.58224 85.1326 7.29748 86.2287C7.42043 86.4112 7.58314 86.563 7.7732 86.6725C7.96326 86.782 8.17565 86.8464 8.39419 86.8608C9.65778 86.9728 11.3664 86.0607 13.1625 85.1726C14.6883 84.3724 17.0009 83.2283 17.438 83.8124C17.8751 84.3965 17.1122 87.0128 16.5638 88.7331C15.8407 90.9814 15.483 92.1895 15.936 92.8696C16.0183 92.988 16.1261 93.0862 16.2513 93.1569C16.3765 93.2276 16.5159 93.2688 16.6592 93.2777H16.7784C17.7957 93.2777 19.2897 92.4776 21.2765 91.2774C21.9171 90.8641 22.5895 90.5029 23.2871 90.1972C23.4405 90.2239 23.5981 90.1908 23.728 90.1046C23.8579 90.0183 23.9503 89.8856 23.9865 89.7332Z" fill="#373737"/>
<path d="M106.188 23.3478C106.285 23.2213 106.328 23.0619 106.31 22.9039C106.291 22.7459 106.211 22.6019 106.087 22.503C105.705 22.1972 105.029 22.2306 103.035 22.4087C101.667 22.5295 99.6627 22.7114 98.8609 22.4546C99.4466 21.6109 100.114 20.8269 100.852 20.1142C102.6 18.2869 104.371 16.409 104.051 14.9723C103.708 13.286 101.135 13.3487 98.4174 13.4219C96.703 13.4935 94.792 13.516 94.0008 13.0517C93.9627 13.0373 93.9293 13.0126 93.9042 12.9804C93.8792 12.9482 93.8634 12.9097 93.8588 12.8691C93.7373 12.0319 95.6615 9.92531 96.9397 8.53055C97.8015 7.68821 98.5495 6.73602 99.1644 5.69861C99.2655 5.49952 99.3184 5.2795 99.3188 5.05649C99.3192 4.83348 99.2671 4.61378 99.1668 4.41538C98.5921 3.30984 96.5456 2.91368 93.4454 2.30941C92.5097 2.13076 91.5025 1.93589 90.4697 1.70229C90.3915 1.67935 90.3093 1.67281 90.2282 1.68307C90.1472 1.69332 90.069 1.72017 89.9985 1.76193C89.9281 1.80369 89.8668 1.85948 89.8185 1.92586C89.7703 1.99223 89.736 2.06777 89.7179 2.1478C89.6998 2.22784 89.6982 2.31069 89.7132 2.39119C89.7283 2.4717 89.7596 2.54815 89.8053 2.61585C89.851 2.68354 89.9101 2.74101 89.979 2.78473C90.0478 2.82844 90.1249 2.85748 90.2055 2.87001C91.2561 3.10321 92.2704 3.30148 93.2133 3.48354C95.3634 3.90234 97.7957 4.37542 98.1088 4.97585C98.1088 4.97585 98.1494 5.05713 98.081 5.21955C97.482 6.11717 96.7916 6.95003 96.0211 7.70456C93.9187 10.0011 92.4398 11.7257 92.6157 13.0227C92.6485 13.2403 92.7303 13.4472 92.855 13.6277C92.9797 13.8082 93.1439 13.9575 93.3352 14.0642C94.4285 14.7074 96.3633 14.6165 98.3666 14.5847C100.088 14.5166 102.668 14.4751 102.812 15.1902C102.957 15.9054 101.145 17.9414 99.9117 19.2601C98.2939 20.9808 97.4526 21.9187 97.5701 22.7274C97.5936 22.8696 97.6488 23.0046 97.7316 23.1221C97.8144 23.2397 97.9226 23.3368 98.0483 23.4062L98.1559 23.4573C99.0748 23.8937 100.768 23.8119 103.077 23.5801C103.833 23.4816 104.595 23.4437 105.357 23.4669C105.484 23.5568 105.64 23.5945 105.795 23.5724C105.949 23.5502 106.09 23.4699 106.188 23.3478Z" fill="#373737"/>
</svg>
