<svg width="23" height="20" viewBox="0 0 23 20" fill="none" xmlns="http://www.w3.org/2000/svg">
<path d="M11.1112 14.6666C13.0748 14.6666 14.6667 13.0748 14.6667 11.1111C14.6667 9.1474 13.0748 7.55552 11.1112 7.55552C9.14749 7.55552 7.55561 9.1474 7.55561 11.1111C7.55561 13.0748 9.14749 14.6666 11.1112 14.6666Z" fill="#3A86FF"/>
<path d="M7.77778 0L5.74444 2.22222H2.22222C1 2.22222 0 3.22222 0 4.44444V17.7778C0 19 1 20 2.22222 20H20C21.2222 20 22.2222 19 22.2222 17.7778V4.44444C22.2222 3.22222 21.2222 2.22222 20 2.22222H16.4778L14.4444 0H7.77778ZM11.1111 16.6667C8.04444 16.6667 5.55556 14.1778 5.55556 11.1111C5.55556 8.04444 8.04444 5.55556 11.1111 5.55556C14.1778 5.55556 16.6667 8.04444 16.6667 11.1111C16.6667 14.1778 14.1778 16.6667 11.1111 16.6667Z" fill="#3A86FF"/>
</svg>
