<svg width="20" height="18" viewBox="0 0 20 18" fill="none" xmlns="http://www.w3.org/2000/svg">
<path d="M14.2364 0C12.528 0 10.8884 0.794551 9.81818 2.05014C8.748 0.794551 7.10836 0 5.4 0C2.376 0 0 2.37384 0 5.3951C0 9.103 3.33818 12.1243 8.39455 16.715L9.81818 18L11.2418 16.7052C16.2982 12.1243 19.6364 9.103 19.6364 5.3951C19.6364 2.37384 17.2604 0 14.2364 0ZM9.91636 15.2534L9.81818 15.3515L9.72 15.2534C5.04655 11.0256 1.96364 8.22997 1.96364 5.3951C1.96364 3.43324 3.43636 1.96185 5.4 1.96185C6.912 1.96185 8.38473 2.93297 8.90509 4.27684H10.7411C11.2516 2.93297 12.7244 1.96185 14.2364 1.96185C16.2 1.96185 17.6727 3.43324 17.6727 5.3951C17.6727 8.22997 14.5898 11.0256 9.91636 15.2534Z" fill="#3A86FF"/>
</svg>
