<svg width="45" height="43" viewBox="0 0 45 43" fill="none" xmlns="http://www.w3.org/2000/svg">
<ellipse cx="22.0811" cy="21.5" rx="22.0811" ry="21.5" fill="white"/>
<path fill-rule="evenodd" clip-rule="evenodd" d="M33.1047 11.8413L31.7248 28.0856C31.6724 28.7019 32.1296 29.244 32.7459 29.2963C33.3621 29.3487 33.9042 28.8915 33.9565 28.2752L35.4493 10.7038C35.5582 9.42165 34.1615 8.56144 33.0655 9.23568L25.6103 14.6377L20.7335 10.4026C19.74 9.7039 18.3637 10.3513 18.2685 11.5621L16.9862 27.8687C16.9377 28.4853 17.3982 29.0244 18.0148 29.0729C18.6314 29.1214 19.1706 28.6609 19.2191 28.0443L20.409 12.9127L24.853 16.8255C25.3653 17.1858 25.6658 17.1537 26.1993 16.8255L33.1047 11.8413Z" fill="#3A86FF"/>
<path fill-rule="evenodd" clip-rule="evenodd" d="M28.8595 30.2334C30.2885 30.2334 31.2309 29.16 31.2309 28.0957C31.2309 27.0313 30.2885 25.9579 28.8595 25.9579C27.4305 25.9579 26.4881 27.0313 26.4881 28.0957C26.4881 29.16 27.4305 30.2334 28.8595 30.2334ZM28.8595 33C31.7018 33 34.1478 31.4016 34.1478 27.7167C34.1478 25.0081 31.7018 23.1913 28.8595 23.1913C26.0172 23.1913 23.713 25.3871 23.713 28.0957C23.713 30.8042 26.0172 33 28.8595 33Z" fill="#3A86FF"/>
<path fill-rule="evenodd" clip-rule="evenodd" d="M14.1048 30.2334C15.5222 30.2334 16.457 29.16 16.457 28.0957C16.457 27.0313 15.5222 25.9579 14.1048 25.9579C12.6873 25.9579 11.7526 27.0313 11.7526 28.0957C11.7526 29.16 12.6873 30.2334 14.1048 30.2334ZM14.1048 33C16.924 33 19.0588 31.4016 19.4348 27.8112C19.4348 25.1026 16.924 23.1913 14.1048 23.1913C11.2855 23.1913 9 25.3871 9 28.0957C9 30.8042 11.2855 33 14.1048 33Z" fill="#3A86FF"/>
<path fill-rule="evenodd" clip-rule="evenodd" d="M33.1047 11.8413L31.7248 28.0856C31.6724 28.7019 32.1296 29.244 32.7459 29.2963C33.3621 29.3487 33.9042 28.8915 33.9565 28.2752L35.4493 10.7038C35.5582 9.42165 34.1615 8.56144 33.0655 9.23568L25.6103 14.6377L20.7335 10.4026C19.74 9.7039 18.3637 10.3513 18.2685 11.5621L16.9862 27.8687C16.9377 28.4853 17.3982 29.0244 18.0148 29.0729C18.6314 29.1214 19.1706 28.6609 19.2191 28.0443L20.409 12.9127L24.853 16.8255C25.3653 17.1858 25.6658 17.1537 26.1993 16.8255L33.1047 11.8413Z" stroke="#3A86FF"/>
<path fill-rule="evenodd" clip-rule="evenodd" d="M28.8595 30.2334C30.2885 30.2334 31.2309 29.16 31.2309 28.0957C31.2309 27.0313 30.2885 25.9579 28.8595 25.9579C27.4305 25.9579 26.4881 27.0313 26.4881 28.0957C26.4881 29.16 27.4305 30.2334 28.8595 30.2334ZM28.8595 33C31.7018 33 34.1478 31.4016 34.1478 27.7167C34.1478 25.0081 31.7018 23.1913 28.8595 23.1913C26.0172 23.1913 23.713 25.3871 23.713 28.0957C23.713 30.8042 26.0172 33 28.8595 33Z" stroke="#3A86FF"/>
<path fill-rule="evenodd" clip-rule="evenodd" d="M14.1048 30.2334C15.5222 30.2334 16.457 29.16 16.457 28.0957C16.457 27.0313 15.5222 25.9579 14.1048 25.9579C12.6873 25.9579 11.7526 27.0313 11.7526 28.0957C11.7526 29.16 12.6873 30.2334 14.1048 30.2334ZM14.1048 33C16.924 33 19.0588 31.4016 19.4348 27.8112C19.4348 25.1026 16.924 23.1913 14.1048 23.1913C11.2855 23.1913 9 25.3871 9 28.0957C9 30.8042 11.2855 33 14.1048 33Z" stroke="#3A86FF"/>
</svg>
